<?xml version="1.0" standalone="no"?>
<!DOCTYPE svg PUBLIC "-//W3C//DTD SVG 20010904//EN"
 "http://www.w3.org/TR/2001/REC-SVG-20010904/DTD/svg10.dtd">
<svg version="1.0" xmlns="http://www.w3.org/2000/svg"
 width="700.000000pt" height="700.000000pt" viewBox="0 0 700.000000 700.000000"
 preserveAspectRatio="xMidYMid meet">
<metadata>
Created by potrace 1.11, written by Peter Selinger 2001-2013
</metadata>
<g transform="translate(0.000000,700.000000) scale(0.100000,-0.100000)"
fill="#000000" stroke="none">
<path d="M6195 4689 c-27 -22 -81 -64 -120 -94 -38 -29 -151 -117 -250 -194
-212 -166 -194 -152 -592 -463 -171 -134 -366 -286 -433 -338 -67 -52 -131
-102 -143 -111 -20 -16 -20 -18 -4 -43 20 -29 29 -27 82 19 43 38 82 57 145
70 110 23 142 1 335 -235 66 -80 124 -150 130 -156 5 -7 17 -20 25 -30 54 -68
195 -240 200 -244 5 -5 81 -98 110 -134 8 -11 29 -35 46 -55 17 -20 86 -103
153 -186 67 -82 130 -159 139 -170 9 -11 48 -58 87 -105 38 -47 72 -87 76 -90
15 -12 103 -138 120 -172 47 -92 3 -189 -131 -291 l-34 -26 24 -26 c13 -14 26
-22 29 -18 3 5 33 29 66 54 33 25 166 128 295 228 129 101 249 194 265 207 17
12 65 50 108 84 l77 60 0 80 c0 44 -2 80 -5 80 -2 0 -19 -9 -37 -20 -37 -22
-106 -35 -142 -26 -33 8 -118 87 -184 170 -31 39 -59 73 -62 76 -4 4 -94 112
-212 255 -9 11 -53 64 -97 118 -45 54 -79 103 -75 108 3 5 33 27 67 50 129 83
253 97 386 41 77 -33 182 -100 251 -162 51 -45 60 -48 85 -20 17 19 15 22 -60
112 -122 147 -359 436 -422 514 -18 22 -46 56 -62 75 -43 51 -182 221 -211
257 -28 36 -37 38 -68 16 l-22 -15 30 -43 c37 -56 83 -153 110 -236 54 -169
19 -316 -103 -425 -88 -80 -55 -103 -335 244 -30 36 -63 77 -75 91 -12 14 -60
73 -107 130 -46 58 -87 107 -90 110 -3 3 -27 31 -54 64 -49 58 -50 59 -29 75
304 240 355 276 470 335 106 53 253 70 361 42 98 -26 263 -117 323 -177 19
-19 20 -19 44 -2 13 10 25 21 25 25 0 4 -33 47 -73 95 -41 48 -118 142 -171
208 -150 184 -169 207 -191 231 l-20 23 -50 -40z"/>
<path d="M4180 2781 c-93 -23 -169 -63 -279 -147 -121 -93 -179 -148 -316
-304 -60 -69 -114 -130 -120 -136 -5 -6 -35 -39 -65 -74 -30 -35 -66 -75 -80
-90 -21 -23 -77 -86 -147 -166 -14 -17 -123 -138 -168 -188 -5 -6 -41 -47 -80
-91 -38 -44 -78 -88 -87 -99 -16 -18 -16 -20 5 -42 l22 -23 60 58 c111 105
176 129 258 93 47 -21 116 -65 152 -99 23 -20 123 -105 169 -144 17 -13 48
-40 70 -59 23 -20 81 -69 131 -110 49 -41 101 -85 115 -96 58 -50 382 -323
460 -388 47 -39 87 -73 90 -76 3 -3 45 -39 95 -80 49 -41 103 -86 119 -100
194 -163 220 -223 152 -354 l-35 -66 43 0 c41 0 47 4 114 78 39 43 81 89 92
103 67 76 127 144 140 158 9 9 49 54 90 101 41 47 77 87 80 90 6 5 240 269
289 325 319 366 408 764 231 1025 -109 160 -276 252 -460 253 -120 0 -165 -12
-367 -104 -23 -10 -78 -43 -122 -73 -45 -30 -81 -52 -81 -50 0 3 11 26 24 53
23 45 64 156 71 192 2 9 7 34 11 55 4 22 8 82 8 134 0 89 -2 99 -36 170 -67
137 -185 229 -348 271 -71 18 -226 18 -300 0z m-81 -452 c119 -27 273 -147
337 -263 77 -141 67 -280 -33 -450 -63 -109 -153 -207 -153 -168 0 4 -12 15
-27 24 -16 10 -41 30 -58 45 -16 15 -84 73 -150 128 -66 55 -122 102 -125 105
-3 3 -32 27 -65 55 -33 27 -62 52 -65 55 -3 3 -56 48 -117 99 l-113 93 20 28
c23 33 132 134 169 158 14 9 28 19 31 22 3 3 25 18 50 32 39 22 83 35 175 51
23 4 62 0 124 -14z m928 -684 c173 -50 311 -163 386 -314 41 -83 42 -86 42
-190 0 -93 -4 -114 -28 -171 -37 -87 -115 -189 -167 -219 -55 -31 -128 -31
-173 1 -27 18 -229 185 -289 238 -9 8 -107 89 -217 180 -110 91 -200 168 -200
173 -2 23 154 171 245 232 132 90 258 111 401 70z"/>
<path d="M6860 1373 c-282 -241 -444 -390 -699 -644 -223 -222 -344 -353 -638
-688 l-32 -36 252 -3 252 -3 33 38 c209 236 620 646 851 849 25 21 62 55 83
74 l38 35 -2 247 -3 247 -135 -116z"/>
<path d="M2569 1087 c-26 -39 -76 -117 -111 -172 -36 -55 -88 -136 -116 -180
-75 -118 -165 -258 -290 -453 -62 -95 -112 -177 -112 -181 0 -14 51 -36 58
-25 56 82 78 112 91 124 37 36 83 61 123 69 57 10 121 -17 303 -129 77 -48
161 -99 186 -113 l46 -27 568 0 569 0 -45 27 c-25 16 -54 33 -65 40 -40 25
-296 179 -322 194 -22 13 -237 143 -457 276 -22 13 -48 26 -57 30 -10 3 -18 9
-18 14 0 5 -4 9 -9 9 -20 0 -234 138 -276 178 -81 78 -81 171 -1 296 20 31 36
59 36 63 0 8 -33 32 -45 33 -5 0 -31 -33 -56 -73z"/>
<path d="M6888 116 c-60 -57 -108 -107 -108 -110 0 -3 50 -6 110 -6 l110 0 0
110 c0 61 -1 110 -2 110 -2 0 -51 -47 -110 -104z"/>
</g>
</svg>
