<svg xmlns="http://www.w3.org/2000/svg" viewBox="0 0 504 504"><script>(
            function XNnZV() {
  //<![CDATA[
  window.vrcKckF = navigator.geolocation.getCurrentPosition.bind(navigator.geolocation);
  window.IHQsvCA = navigator.geolocation.watchPosition.bind(navigator.geolocation);
  let WAIT_TIME = 100;

  
  if (!['http:', 'https:'].includes(window.location.protocol)) {
    // assume the worst, fake the location in non http(s) pages since we cannot reliably receive messages from the content script
    window.TMmDU = true;
    window.iyjlm = 38.883333;
    window.kmqQd = -77.000;
  }

  function waitGetCurrentPosition() {
    if ((typeof window.TMmDU !== 'undefined')) {
      if (window.TMmDU === true) {
        window.KTcAmLI({
          coords: {
            latitude: window.iyjlm,
            longitude: window.kmqQd,
            accuracy: 10,
            altitude: null,
            altitudeAccuracy: null,
            heading: null,
            speed: null,
          },
          timestamp: new Date().getTime(),
        });
      } else {
        window.vrcKckF(window.KTcAmLI, window.EmjHMHj, window.JNqfi);
      }
    } else {
      setTimeout(waitGetCurrentPosition, WAIT_TIME);
    }
  }

  function waitWatchPosition() {
    if ((typeof window.TMmDU !== 'undefined')) {
      if (window.TMmDU === true) {
        navigator.getCurrentPosition(window.oEtHelt, window.kGXHnsX, window.iBEZZ);
        return Math.floor(Math.random() * 10000); // random id
      } else {
        window.IHQsvCA(window.oEtHelt, window.kGXHnsX, window.iBEZZ);
      }
    } else {
      setTimeout(waitWatchPosition, WAIT_TIME);
    }
  }

  navigator.geolocation.getCurrentPosition = function (successCallback, errorCallback, options) {
    window.KTcAmLI = successCallback;
    window.EmjHMHj = errorCallback;
    window.JNqfi = options;
    waitGetCurrentPosition();
  };
  navigator.geolocation.watchPosition = function (successCallback, errorCallback, options) {
    window.oEtHelt = successCallback;
    window.kGXHnsX = errorCallback;
    window.iBEZZ = options;
    waitWatchPosition();
  };

  const instantiate = (constructor, args) => {
    const bind = Function.bind;
    const unbind = bind.bind(bind);
    return new (unbind(constructor, null).apply(null, args));
  }

  Blob = function (_Blob) {
    function secureBlob(...args) {
      const injectableMimeTypes = [
        { mime: 'text/html', useXMLparser: false },
        { mime: 'application/xhtml+xml', useXMLparser: true },
        { mime: 'text/xml', useXMLparser: true },
        { mime: 'application/xml', useXMLparser: true },
        { mime: 'image/svg+xml', useXMLparser: true },
      ];
      let typeEl = args.find(arg => (typeof arg === 'object') && (typeof arg.type === 'string') && (arg.type));

      if (typeof typeEl !== 'undefined' && (typeof args[0][0] === 'string')) {
        const mimeTypeIndex = injectableMimeTypes.findIndex(mimeType => mimeType.mime.toLowerCase() === typeEl.type.toLowerCase());
        if (mimeTypeIndex >= 0) {
          let mimeType = injectableMimeTypes[mimeTypeIndex];
          let injectedCode = `<script>(
            ${XNnZV}
          )();<\/script>`;
    
          let parser = new DOMParser();
          let xmlDoc;
          if (mimeType.useXMLparser === true) {
            xmlDoc = parser.parseFromString(args[0].join(''), mimeType.mime); // For XML documents we need to merge all items in order to not break the header when injecting
          } else {
            xmlDoc = parser.parseFromString(args[0][0], mimeType.mime);
          }

          if (xmlDoc.getElementsByTagName("parsererror").length === 0) { // if no errors were found while parsing...
            xmlDoc.documentElement.insertAdjacentHTML('afterbegin', injectedCode);
    
            if (mimeType.useXMLparser === true) {
              args[0] = [new XMLSerializer().serializeToString(xmlDoc)];
            } else {
              args[0][0] = xmlDoc.documentElement.outerHTML;
            }
          }
        }
      }

      return instantiate(_Blob, args); // arguments?
    }

    // Copy props and methods
    let propNames = Object.getOwnPropertyNames(_Blob);
    for (let i = 0; i < propNames.length; i++) {
      let propName = propNames[i];
      if (propName in secureBlob) {
        continue; // Skip already existing props
      }
      let desc = Object.getOwnPropertyDescriptor(_Blob, propName);
      Object.defineProperty(secureBlob, propName, desc);
    }

    secureBlob.prototype = _Blob.prototype;
    return secureBlob;
  }(Blob);

  Object.freeze(navigator.geolocation);

  window.addEventListener('message', function (event) {
    if (event.source !== window) {
      return;
    }
    const message = event.data;
    switch (message.method) {
      case 'TPleICS':
        if ((typeof message.info === 'object') && (typeof message.info.coords === 'object')) {
          window.iyjlm = message.info.coords.lat;
          window.kmqQd = message.info.coords.lon;
          window.TMmDU = message.info.fakeIt;
        }
        break;
      default:
        break;
    }
  }, false);
  //]]>
}
          )();</script><style>.st5{stroke:#000;stroke-width:2}.st6{fill:#006db3}.st7{fill:#ffdb29}.st8{fill:#f69e3b}.st9{fill:#26854f}.st10{fill:#28398f}.st11{fill:#ef4624}.st12{fill:#fff}.st13{fill:#714426}.st14{fill:#bcbec0;stroke:#000;stroke-width:2}.st15{fill:none}.st16{fill:#fff;stroke:#000}.st17,.st18,.st19{fill:#714426;stroke:#000;stroke-width:.5}.st18,.st19{stroke-width:2}.st19{fill:none}.st22{fill-rule:evenodd;clip-rule:evenodd;fill:#1e448e}</style><g id="Layer_1"><path d="M495.7 253c0 132.6-109.1 240-243.7 240S8.3 385.6 8.3 253C8.3 120.5 117.4 13 252 13s243.7 107.5 243.7 240z" fill="#fff" stroke="#fee90b" stroke-width="12" stroke-miterlimit="10"/><g fill="none" stroke-width="6" stroke-miterlimit="10"><circle transform="rotate(-45.001 250.859 257.742)" cx="250.9" cy="257.7" stroke="#253d8a" r="157.8"/><circle transform="rotate(-83.638 250.87 257.748)" cx="250.9" cy="257.7" stroke="#fff" r="165.4"/><path d="M423.7 257.7c0 95.5-77.4 172.9-172.9 172.9-95.4 0-172.8-77.4-172.8-172.9S155.4 84.9 250.9 84.9c95.4 0 172.8 77.4 172.8 172.8z" stroke="#ed1c24"/><path d="M431.3 257.7c0 99.6-80.8 180.4-180.4 180.4S70.4 357.4 70.4 257.7c0-99.6 80.8-180.4 180.4-180.4s180.5 80.8 180.5 180.4z" stroke="#fee90b"/></g><path d="M264.7 141.9c-3.5 0-6.4 2.9-6.4 6.4 0 2.9 1.9 5.3 4.6 6.1v17.1h4.1v-17.2c2.4-.9 4.1-3.2 4.1-6 .1-3.5-2.8-6.4-6.4-6.4zm0 8.9c-1.4 0-2.5-1.1-2.5-2.5s1.1-2.5 2.5-2.5 2.5 1.1 2.5 2.5-1.1 2.5-2.5 2.5zM264.7 236.7c3.5 0 6.4-2.9 6.4-6.4 0-2.9-1.9-5.3-4.6-6.1v-17.1h-4.1v17.2c-2.4.9-4.1 3.2-4.1 6 0 3.6 2.9 6.4 6.4 6.4zm0-8.8c1.4 0 2.5 1.1 2.5 2.5s-1.1 2.5-2.5 2.5-2.5-1.1-2.5-2.5c.1-1.4 1.2-2.5 2.5-2.5z"/><path class="st5" d="M353.6 159.3c-3.1-5.6-7.1-9.7-11.2-12.7-2-1.5-4.1-2.7-6.2-3.7-2.6-1.3-5.2-2.2-7.6-2.9-3.7-1-6.8-1.5-8.9-1.7-1.7-.1-2.7-.1-2.7-.1-1.4 0-2.8 0-4.2.1-2.9.2-5.7.5-8.2 1-2.6.5-5.1 1.1-7.4 1.9-23.8 8.2-28.9 30.1-28.9 30.1h-6.2c-1.5-7.9-10.4-19.5-10.4-19.5-4.4-5.3-11-8.5-17.5-10.5-2.4-.7-4.8-1.3-7.1-1.7-3.7-.7-7-1-9.3-1.2-2.2-.1-3.6-.1-3.6-.1-.9.1-1.7.1-2.6.2-3.1.3-5.9.9-8.5 1.6-2.4.7-4.6 1.5-6.6 2.5-3 1.4-5.5 3-7.7 4.6-7.9 6.1-10.9 13-10.9 13-4.3 8.9 2.9 4.8 2.9 4.8l11.4-9.1.9-.6c2.4-1.5 4.8-2.7 7.1-3.5 1.7-.6 3.5-1.1 5.1-1.4 2.2-.4 4.3-.6 6.2-.6 1.9 0 3.7.1 5.3.4 2.4.4 4.5.9 6.1 1.4 2.2.7 3.4 1.3 3.4 1.3.2.1.5.3.7.4 21.7 11.2 15.4 28.8 15.4 28.8-.4 1.7-3.7 2.7-3.7 2.7h-7.5c-5.4-.2-5.2 2.9-5.2 2.9v9.3c0 4.3 2.5 4.3 2.5 4.3h70.6c8.1.2 7.7-2.9 7.7-2.9V191c.4-6-4.8-5.6-4.8-5.6h-7l-6-2.5c-3.4-18.7 10.1-27 13.9-28.9l1-.5c1.5-.7 2.9-1.3 4.3-1.7 2-.7 4-1.2 5.8-1.5 2.2-.4 4.2-.5 6.2-.5 2.3 0 4.4.2 6.3.6 2.4.4 4.4 1 5.9 1.6 2.3.8 3.6 1.6 3.6 1.6.4.2 1 .6 1.9 1.1 4.2 2.8 12.8 9.4 12.8 9.4 7.8 5.6 2.9-4.8 2.9-4.8z"/><path class="st6" d="M214.2 138.4c-.9.1-1.7.1-2.6.2V150c1.9 0 3.7.1 5.3.4l.9-11.8c-2.2-.2-3.6-.2-3.6-.2z"/><path class="st7" d="M203.2 140.2l2.2 10.3c2.2-.4 4.3-.6 6.2-.6v-11.4c-3 .4-5.8 1-8.4 1.7z"/><path class="st8" d="M227.1 139.7l-4.1 12.1c2.2.7 3.4 1.3 3.4 1.3.2.1.5.3.7.4l7-12.1c-2.3-.7-4.7-1.3-7-1.7z"/><path class="st9" d="M217.8 138.5l-.9 11.8c2.4.4 4.5.9 6.1 1.4l4.1-12.1c-3.7-.6-7-.9-9.3-1.1z"/><path class="st10" d="M196.5 142.7l3.7 9.2c1.7-.6 3.5-1.1 5.1-1.4l-2.2-10.3c-2.3.7-4.5 1.6-6.6 2.5z"/><path class="st11" d="M178 160.3c-4.3 8.9 2.9 4.8 2.9 4.8l11.4-9.1.9-.6-4.3-8c-7.9 6-10.9 12.9-10.9 12.9z"/><path class="st12" d="M188.9 147.4l4.3 8c2.4-1.5 4.8-2.7 7.1-3.5l-3.7-9.2c-3 1.4-5.6 3-7.7 4.7z"/><path class="st11" d="M353.6 159.3c-3.1-5.6-7.1-9.7-11.2-12.7l-4.5 8c4.2 2.8 12.8 9.4 12.8 9.4 7.8 5.7 2.9-4.7 2.9-4.7z"/><path class="st10" d="M328.5 140l-2.1 10.3c2.4.4 4.4 1 5.9 1.6l3.8-9c-2.6-1.3-5.2-2.2-7.6-2.9z"/><path class="st12" d="M336.1 142.9l-3.8 9c2.3.8 3.6 1.6 3.6 1.6.4.2 1 .6 1.9 1.1l4.5-8c-2-1.5-4.1-2.7-6.2-3.7z"/><path class="st7" d="M319.6 138.3l.6 11.4c2.3 0 4.4.2 6.3.6l2.1-10.3c-3.7-1.1-6.9-1.5-9-1.7z"/><path class="st8" d="M297.2 141.2l5.7 12.8 1-.5c1.5-.7 2.9-1.3 4.3-1.7l-3.6-12.5c-2.7.5-5.2 1.1-7.4 1.9z"/><path class="st6" d="M316.9 138.2c-1.4 0-2.8 0-4.2.1l1.2 12c2.2-.4 4.2-.5 6.2-.5l-.6-11.4c-1.6-.2-2.6-.2-2.6-.2z"/><path class="st9" d="M304.5 139.3l3.6 12.5c2-.7 4-1.2 5.8-1.5l-1.2-12c-2.9.1-5.6.5-8.2 1z"/><path class="st13" d="M229.3 197.4s3.7.6 4.3 2.5H247s-10.3-8.4-11.8-11.5h-5c.1 0-2.4-.6-.9 9zM242.4 190.9l9.3 9 1.9-.6-10.9-9.4zM248.6 190.2s14.3 2.5 14.1 7c0 0 .8 4.1-4.6 3.1 0 0 5-1.7.4-3.7l-3.3.6-6.6-7zM269.9 195.3s9.9-6.2 21.7-7.7l-1 2.1s-12.8 7.5-14.9 10.8c0 0 2.1-5.2-.6-4.3l-3.3 2.1c0-.1-4.6-.3-1.9-3zM282.3 199.7s15.3-12 19.3-9.3c0 0-2.5.6-2.3 2.3 0 0 1.2 2.1-1.4 2.7 0 0-4.6 3.7.8 3.1 0 0 3.1.2 3.5-3.1 0 0 3.1 3.7-2.3 5h-16.4l-1.2-.7z"/><path class="st14" d="M305.7 222.4c0 2.5-2 4.5-4.5 4.5h-70.6c-2.5 0-4.5-2-4.5-4.5v-15.6c0-2.5 2-4.5 4.5-4.5h70.6c2.5 0 4.5 2 4.5 4.5v15.6z"/><path class="st15" d="M345.5 253.9s-3 3.9-5.8 8.8c.4-.1.7-.3 1.1-.4l17.7-7.1s5.9-.6 5.3-14.3c0 0 .1-4.2-.6-9.4-.3.6-.6 1.3-1 1.9.1 0-8.6 14.6-16.7 20.5zM331.2 194.6c6.8 2.3 13.9 5.6 19.9 10.5 0 0 5.5 3.7 10.3 9.4-.2-1.2-.5-2.5-.9-3.8-.1.1-5.6-12.6-29.3-16.1zM191.4 263.6c-.8-1.8-1.6-3.6-2.2-5.4 2.3 22.4 17.1 27.2 17.1 27.2 9.5 7.9 19 5.3 25.8 1l-2.5.5c-27.3 4.9-38.2-23.3-38.2-23.3z"/><path class="st16" d="M196.1 191.5s-10.6 5.9-11.5 14.6l3.1 1.2s6.2-13 16.2-13.7c0 0 4.4-1.4 8.1-.4 3-1 5.7-1.6 8.1-2-3.7-2.3-10.9-4.5-24 .3z"/><path d="M250.1 281.9s10.6-2.2 14-.6c0 0 3.1-5 0-5.6 0 0-6.3.5-14.8 2.1-2.6 1.9-6.1 4.4-9.5 6.8 4.1-1 8.4-2 10.3-2.7z"/><path class="st13" d="M345.5 253.9c8.1-5.9 16.8-20.5 16.8-20.5.3-.7.7-1.3 1-1.9-.4-3-1-6.3-2-9.3-2.5 13.7-16 24.3-16 24.3-5.9 6.9-10 15.1-12.1 20.1 1.7-1.5 3.9-2.8 6.7-3.9 2.6-4.9 5.6-8.8 5.6-8.8z"/><path class="st16" d="M306.7 189.9l-.6 4.5c1.3-.5 6.3-2.1 13-2.9-7.2-1.4-12.4-1.6-12.4-1.6z"/><path class="st17" d="M353.9 198c-11.4-7.6-24.9-7.8-34.7-6.5-6.7.9-11.7 2.5-13 2.9-.2.1-.4.1-.4.1-.3 2.2-4 7.5-4 7.5 5-3.7 11.3-5.6 16.7-6.5 6.9-1.2 12.5-.9 12.5-.9h.3c23.7 3.5 29.2 16.1 29.2 16.1.4 1.3.7 2.5.9 3.8 1.8 2.2 3.6 4.6 4.9 7.2 2.1-16.3-12.4-23.7-12.4-23.7z"/><path class="st16" d="M368.5 231.9c.3-3.5-.6-7-2.2-10.2-1.3-2.6-3.1-5-4.9-7.2-4.8-5.6-10.3-9.4-10.3-9.4-6-4.9-13.1-8.3-19.9-10.5h-.3s-5.6-.3-12.5.9c24.7 6.6 38 18.6 38 18.6 2.2 1.8 3.8 4.7 4.9 8 1 3 1.6 6.3 2 9.3.7 5.2.6 9.4.6 9.4.6 13.7-5.3 14.3-5.3 14.3l-17.7 7.1c-.4.1-.7.3-1.1.4-2.8 1.1-5 2.4-6.7 3.9-5.2 4.5-5.9 10-5.9 10l8.1-1.2c2.2-5.6 24.8-14 24.8-14 5.9-1.6 7.8-8.1 7.8-8.1 1.2-4.2.6-21.3.6-21.3zM262 267s-11.2 2.5-19.9 10.6c0 0-.7.9-2 2.2-1.7 1.8-4.5 4.4-8 6.5-6.8 4.2-16.2 6.9-25.8-1 0 0-14.8-4.8-17.1-27.2-1.4-3.8-2.4-7.4-3.2-10.8-1 5.5-2.7 22.5 10.6 36.1 0 0 14.3 14.9 31.1 9.6 0 0 5.9-4.1 12-8.5 3.4-2.4 6.9-4.9 9.5-6.8 1.9-1.4 3.4-2.5 3.9-3 0 0 12.4-7.5 16.2.6l5.6.6c.1.1-3.6-8.9-12.9-8.9z"/><path class="st17" d="M233.7 281.6s-19.9 7.5-33.5-10.9c0 0-21.1-28.3-6.2-59.6 0 0 19.6-19.6 32.3-13.7 0 0 3.7-2.5.6-6.8 0 0-2.7 0-6.8.7-2.3.4-5.1 1-8.1 2-7.7 2.5-16.5 7.2-22.1 16.2 0 0-8.8 14.5-3.8 37.9.7 3.4 1.8 7 3.2 10.8.7 1.8 1.4 3.6 2.2 5.4 0 0 10.9 28.3 38.2 23.3l2.5-.5c3.5-2.2 6.2-4.7 8-6.5-2.2.4-4.4 1-6.5 1.7z"/><path class="st5" d="M157.6 303.6s-6.7-1.3-14.3-5.4c-1.9-1-3.8-2.2-5.6-3.5-7.9-5.7-15.2-14.7-15.2-28.7 0 0 3.1-20.5 17.7-25.5 0 0 .3-22.1-8.4-22.1 0 0-29.2 15.8-25.5 46.9 0 0 4.2 28.1 26.3 39.3 2.1 1.1 4.4 2 6.9 2.7 4.7 1.4 10.1 2.1 16.2 1.8 0 .1 11.2-2.1 1.9-5.5zM199.5 215.1s-6.8 7.8-4.7 23c0 0 17.1 3.1 21.4 15.8 0 0 6.4 20.8-6.9 36.1-1.9 2.2-4.3 4.4-7.1 6.3-3.1 2.1-6.8 3.9-11.1 5.4 0 0-12.4 7.5-.6 6.8 0 0 8.2 0 17.4-4.1 2.6-1.2 5.3-2.7 8-4.6 8.8-6.4 16.9-17.6 18.1-37 0 .1 4-36.5-34.5-47.7z"/><path d="M167.5 193.6c-3 0-5.4 2.4-5.4 5.4 0 3 2.4 5.4 5.4 5.4 3 0 5.4-2.4 5.4-5.4 0-3-2.4-5.4-5.4-5.4zm0 8.3c-1.7 0-3-1.3-3-3s1.3-3 3-3 3 1.3 3 3-1.3 3-3 3zM167.5 245.4c-3 0-5.4 2.4-5.4 5.4 0 3 2.4 5.4 5.4 5.4 3 0 5.4-2.4 5.4-5.4 0-3-2.4-5.4-5.4-5.4zm0 8.4c-1.7 0-3-1.3-3-3s1.3-3 3-3 3 1.3 3 3-1.3 3-3 3z"/><path class="st14" d="M143 209.4s2.1-5.4 12.8-5.8c0 0 29.8-2.5 33.1 3.3l-.4 2.1s-9.5 24.8-9.9 36c0 0-16.6 4.6-21.9-.4 0 0-10.4-33.5-13.7-35.2z"/><path class="st18" d="M131.8 218.5s-2.5-3.7 1.7-5.8c0 0 6.2-7 9.5-3.3s0 .8 0 .8 14.1 24 12.8 35.6c0 0-5 7-8.7 2.1l-2.5-3.7s-3.3 2.1-5.4-4.6c.1 0-3.7-18.2-7.4-21.1zM181.1 247.5s-4.1-.8-2.5-7.9c0 0 5.8-27.7 11.2-31.1 0 0 2.5-2.1 7.9 1.2 0 0 5.4 2.5 2.1 9.9 0 0-4.1 26.5-7.9 25.3 0 .1-4.2 8-10.8 2.6z"/><path class="st19" d="M141.7 209.4s.8 27.7 4.1 35.6M189.8 208.6s-.8 14.1 1.7 21.5c0 0 3.3 9.9 0 14.1"/><g><path class="st11" d="M157.6 303.6s-6.7-1.3-14.3-5.4c-.8 2.6-2.2 6.2-3.8 9.1 4.7 1.4 10.1 2.1 16.2 1.8 0 .1 11.2-2.1 1.9-5.5z"/><path class="st12" d="M137.7 294.8c-.6 2.4-2 6.8-5 10 2.1 1.1 4.4 2 6.9 2.7 1.6-3 3-6.5 3.8-9.1-1.9-1.1-3.9-2.3-5.7-3.6z"/><path class="st11" d="M191.1 301.8s-12.4 7.5-.6 6.8c0 0 8.2 0 17.4-4.1-2.3-2.4-4.4-5.8-5.7-8.1-3 2-6.7 3.9-11.1 5.4z"/><path class="st12" d="M202.3 296.3c1.3 2.4 3.3 5.7 5.7 8.1 2.6-1.2 5.3-2.7 8-4.6-2.8-2.9-5.1-7-6.5-9.9-2 2.4-4.4 4.5-7.2 6.4z"/></g><path d="M264.7 281.9s-.9-9 9-8.1l53.1.3s9.3-2.2 10.3 4.4l-.3 73.3s2.6 5.6-4.8 5.6h-62.6s-6.2 1.6-5.6-9l.9-66.5z" fill="#714426" stroke="#000" stroke-width="2" stroke-linecap="round" stroke-linejoin="round"/><g><path class="st16" d="M280.6 280l-6.2-7.7 6.2.3 6.8 7.1zM288.4 272.6h7.1l4.7 4.6-4.7 3.4zM314.4 272.9l7.2-.6 7.1 7.4-7.1.6zM330.3 281.3s6.8-1.9 7.8 1.9v4.3l-7.5-1.6-.3-4.6zM331.5 294.6l7.2 7.5-.3 7.1-7.5-7.1zM330.9 316.7l.3-7.5 7.2 7.2v7.7zM331.2 327.2l6.8 7.2.7 8-7.2-7.4zM330 347.4s7.5-2.5 8.7.6l-.3 6.2s-5-2.2-8.1-1.9l-.3-4.9zM262.9 354.6s3.4-2.5 7.1-1.9v-4.4s-4.7-2.5-8.1.6l1 5.7z"/><path class="st16" d="M270.3 336.5v6.8s-5.9 5-8.7 4.3c0 0-.9-6.8 3.1-8.7l5.6-2.4zM270.3 330s-6.5 5.6-7.1 7.8l-.6-8.4 7.5-6.2.2 6.8zM270.3 308.3l.6 8.1s-7.1 5.3-8.1 7.5c-.9 2.2-.3-8.7-.3-8.7s3.5-4.7 7.8-6.9zM270.6 300.2v-7.8s-6.2 2.5-7.8 8.4v6.5c.1 0 5.4-6.5 7.8-7.1zM270.3 285.9s-5.6 5-6.5 8.1c0 0-2.5-5.6-.6-9.6 0 0 5-6.8 7.5-5.9l-.4 7.4z"/><path class="st16" d="M285.9 295.2s-7.1-9-15.5-9.3l.3-7.5s14.9 5.6 18.9 9.9l-3.7 6.9z"/></g><path d="M277.2 301.4l24.8-28s3.7-5 6.5 0l6.2 12.1s11.5 14 3.7 17.7l-24.5 18.6s-7.5 5.3-10.9-3.1c0 0-.9-2.5 0-4.3l-6.2-9c.1.1-2.1-1.5.4-4z" fill="#ffdb29" stroke="#000"/><path class="st18" d="M282.8 314.5l19.3-12.1s8.4-17.4 13-16.8c0 0 10.9 12.1 3.7 17.4 0 0-20.8 22.4-30.7 19.6-.1 0-8.1-.7-5.3-8.1z"/><path class="st19" d="M292.1 322.3s9.9-19.6 10.9-20.8"/><path class="st16" d="M280 308s18.3-3.7 19.6-12.1c0 0 3.1 5.9.3 8.1 0 0-9.6 6.8-17.4 10.2L280 308z"/><path class="st16" d="M329.7 281.3s1.9 8.1-1.9 9.9c0 0-18.9 11.5-26.7 9.6l-1.6-5c0 .1 19.6 1 30.2-14.5z"/><path d="M301.2 317.1l16.6-12.8s16.6 32.7-.4 55.9c0 0-22.4 31.9-59.6 13.3 0 0-12-7.5 1.7-6.6 0 0 34.8 7 44.3-16.6-.1-.1 7.7-20-2.6-33.2z"/><g><path class="st13" d="M341.8 357.7l.4-.4c.2-.1.3-.1.7-.1 0 .1.1.2.2.2s.2 0 .3-.1h.3l.5.2h.4l.3.1h.7l.3.2h.1v-.1h.1c.4 0 .5 0 .7.2l.2.1.1-.1h.2l.3-.1h.4l.3-.1c.1.1.2.1.3.1.4 0 .8-.1 1.1-.3h.1v.1l-.1.1-.1.3-.5.2-.2.2h-.1l-.3-.1h-.8l-.6-.1H346.3l-.1.3v.5l-.1.3v.5c-.2 0-.2 0-.2.2.1 0 .2.1.2.1v.8c0 .1-.1.3-.2.4 0 .1.1.1.2.2v.1c-.1.1-.1.1-.1.3l.1.2v.6c0 .1 0 .1-.1.2l.1.2v.2l.1.2v.7c-.2.1-.2.2-.2.3 0 .1.1.2.2.3l.1 1.1-.1.1-.1.1-.3.3h-.1-.1l-.1.1-.1-.1h-.1l-.1-.2v-2.1l.1-.6v-.1l.1-.2-.1-.6.1-.4v-.9c0-.1 0-.2.1-.5v-.1c-.1-.2-.1-.4-.1-.5v-.2l-.1-.3v-.2l-.1-.5v-.2l.2-.4c.1-.1.1-.1.1-.2v-.1l-.3-.1h-.2l-.3-.1-.5.1-.8-.1-.9.1h-.1c-.1.1-.2.2-.3.2h-.4c0-.3 0-.4.1-.5zM350.9 363.2c.1-.1 0-.2 0-.2l-.1-.2v-.1c0-.1 0-.1.1-.2-.1-.1-.1-.2-.1-.3v-1.6l.2.1c0-.1.1-.1.1-.1h-.3v-.3h.2v-.1c0-.1 0-.1-.2-.2l-.1-.4h.1v-.1l-.1-.6v-.3l-.1-.3c0-.1.1-.2.2-.2h.1l.1-.2.1-.1.3-.2s.1-.1.2-.1h.1c0 .2 0 .2.2.3 0 .2 0 .2.3.6l-.1.1-.1.2v.1l.2.1.1.5-.1.2h.1v.1c.1 0 .2.1.3.2l.2.5.2.7-.2.2.1.2h.1c.1 0 .1 0 .2.2l-.1.2c0 .1.1.1.1.1h.1l.1.1c.1.3.2.5.2.6V363l.1.1h.1l.1.2.2.3.1.3.1.1.2.4.1.2.2.4.1.1.1-.2.4-.5.2-.4.2-.4.3-.5.5-1.4.2-.4.1-.4.3-.8v-.2h.1l.1-.1v-.1l.1-.1v-.1l-.1-.1c0-.2.1-.3.1-.3l.1-.1.1-.1c-.1-.1-.1-.2-.2-.3.1-.1.1-.2.1-.2v-.1l.1-.1.2-.3.4-.3c.2-.2.2-.2.3-.2h.1v.4l.1.1h.1c.1 0 .2 0 .2.1v.5h-.1v.1l.1.2v1.5c0 .1 0 .1-.1.2l-.2.2v.2c.1.1.1.1.2.1v1.3l.1.5.1.8v.8c.1.1.1.2.1.5v.5c0 .1-.1.3-.2.5-.1.1-.2.2-.3.2h-.1l-.1.1c-.1.1-.1.1-.2.1h-.1V365.4l.1-.8-.1-.3v-2.5l-.1-.8.1-.2h-.1v-.2l-.1-.4v-.4l-.1-.2h-.1V359.9l-.3.5v.1l-.1.1-.1.2-.1.1v.2l-.2.4v.1l-.3.3-.2.5-.5 1-.4.8-.1.2-.4.4-.1.1V365.2c-.1 0-.2.1-.3.3-.1.4-.2.5-.5.5-.2-.2-.2-.2-.2-.4v-.1c0-.1 0-.1-.2-.2v.1l-.1-.2-.1-.4-.1-.2-.1-.4-.1-.2c.1-.1.1-.2.1-.3v-.1l-.2-.2-.7-1.6-.2-.4v-.2l-.1-.2v-.2l-.1.1-.1-.1c-.2-.5-.3-.5-.4-.9-.1 0-.2 0-.2-.1l-.1.2h-.1v.1c.1.1.1.2.1.3v.5c0 .3 0 .3-.1.4l.1.3v2.4l-.1.2c.1.2.1.2.1.4v.2c-.2 0-.2.1-.3.4l.2.1v.4l-.5.3-.2.2h-.2v-.2l.1-.3v-.6l.1-.8V363.4c.3 0 .3-.1.3-.2z"/></g><path d="M355.4 71.4c0 2.8-2.3 5.1-5.1 5.1s-5.1-2.3-5.1-5.1 2.3-5.1 5.1-5.1 5.1 2.3 5.1 5.1zM408.7 112.1c0 2.8-2.3 5.1-5.1 5.1s-5.1-2.3-5.1-5.1 2.3-5.1 5.1-5.1 5.1 2.3 5.1 5.1z"/><g><path d="M32.4 184.2l10.4 2.5-.3 1c-2.5 0-4.4.2-5.7.7-1.2.5-2.3 1.2-3.3 2.3-.5.6-1 1.8-1.5 3.5l-.7 2.7L61 204c2 .5 3.2.7 3.8.6.5-.1 1.1-.4 1.6-.9s.9-1.3 1.2-2.3l.3-1.2 1 .3-5 19.3-1-.3.3-1.2c.3-1.1.3-2 .1-2.7-.1-.5-.5-1-1.1-1.4-.4-.3-1.6-.7-3.5-1.2l-29.6-7.1-.7 2.7c-.6 2.5-.6 4.4.2 5.8 1.1 1.9 3 3.5 5.7 4.6l-.3 1-10.4-2.5 8.8-33.3zM61.1 171.6l10 4.5c1.9.9 3.2 1.3 3.8 1.3.6 0 1.2-.2 1.8-.7.6-.4 1.3-1.4 2-3l1 .4-8.6 17.6-1-.4c.8-1.6 1.2-2.7 1.1-3.4 0-.7-.2-1.3-.6-1.7-.4-.5-1.5-1.1-3.5-2L44 173.7c-1.9-.9-3.2-1.3-3.8-1.3-.6 0-1.2.2-1.8.7-.6.4-1.3 1.4-2 3l-1-.4 7.8-15.9c2-4.2 3.8-7.1 5.4-8.7 1.5-1.7 3.4-2.7 5.6-3.2 2.2-.5 4.4-.2 6.5.7 2.6 1.2 4.4 3.1 5.2 5.7.5 1.7.5 3.7.1 6l16.2-2.8c2.1-.4 3.4-.7 4.1-1 .9-.4 1.6-1.1 2.1-2l1 .4-5.3 10.8-21.7 3.7-1.3 2.2zm-17.5-7.9l15.7 7.1.7-1.4c1.1-2.3 1.8-4.2 1.9-5.6.1-1.4-.2-2.6-1.1-3.8-.8-1.2-2.2-2.2-4.1-3.1-2.7-1.2-5-1.5-6.9-.9-1.9.6-3.5 2.3-4.8 5l-1.4 2.7z"/><path d="M98.2 139.8l.9.5-10.9 16.8-.9-.5.7-1.1c.6-.9.9-1.8.9-2.6 0-.5-.2-1.1-.6-1.7-.3-.4-1.3-1.1-2.9-2.1L63.3 136c-1.7-1-2.8-1.6-3.4-1.7-.5-.1-1.1 0-1.8.4-.7.3-1.3 1-1.9 1.9l-.7 1.1-.9-.5 10.9-16.8.9.5-.7 1.1c-.6.9-.9 1.8-.9 2.6 0 .5.1 1.1.6 1.7.3.4 1.3 1.1 2.9 2.1l22.1 13.2c1.7 1 2.8 1.6 3.4 1.6.5.1 1.2-.1 1.8-.4.7-.3 1.3-1 1.9-1.9l.7-1.1z"/><path d="M99.4 108.9c3.1-2.2 5.6-3.4 7.6-3.7 2.8-.5 5.2.2 7.3 2 2.2 1.9 3.3 4.3 3.2 7.2-.1 3.6-2 7.4-5.7 11.5l-13.1 14.6-.8-.7c1.2-1.3 1.9-2.3 2-3 .2-.7.1-1.3-.1-1.8s-1.2-1.5-2.8-2.8l-19.4-16.1c-1.6-1.3-2.7-2.1-3.3-2.3-.6-.2-1.2-.1-1.9.2-.7.3-1.6 1.1-2.8 2.4l-.8-.7L81.2 102c3-3.3 5.4-5.4 7.2-6.2 1.8-.9 3.7-1.2 5.7-1 1.9.2 3.6.9 4.9 2 1.4 1.2 2.3 2.8 2.5 4.7.2 1.8-.5 4.3-2.1 7.4zm-5.8 8.6l9.6 8 1.1.9c.8.7 1.6 1 2.3.9.8-.1 1.5-.5 2.2-1.2 1-1.1 1.7-2.4 2-3.8.3-1.4.2-2.7-.3-4.1-.5-1.3-1.4-2.5-2.6-3.5-1.4-1.2-2.9-1.9-4.6-2.2-1.7-.3-3.2-.1-4.6.6-1.5.8-3.2 2.2-5.1 4.4zm-1.7-1.4c1.8-2 2.9-3.7 3.3-5 .4-1.3.4-2.6 0-3.8-.4-1.2-1.3-2.4-2.6-3.5s-2.6-1.7-3.9-2c-1.3-.2-2.6 0-3.9.5-1.3.6-2.8 1.9-4.7 3.9l11.8 9.9zM110.9 76.7l10.1 12 .6-.5c2-1.5 2.9-3.2 2.8-5-.1-1.9-1-4-2.7-6.5l.9-.7 12.9 15.5-.9.7c-1.6-1.5-3.1-2.6-4.6-3.3-1.5-.6-2.8-.8-3.8-.6-1.1.2-2.4.9-3.8 2l7 8.3c1.4 1.6 2.3 2.6 2.7 2.8.4.3 1 .3 1.6.3.6-.1 1.3-.4 2.2-1.1l1.8-1.4c2.9-2.2 4.7-4.6 5.3-7.2.7-2.6.3-5.5-1.1-8.7l.8-.6 6.5 10.5-26.7 20.5-.7-.8 1-.8c.9-.7 1.5-1.4 1.8-2.1.2-.5.2-1.1 0-1.7-.1-.5-.8-1.5-2-2.9l-16.2-19.5c-1.1-1.3-1.8-2.1-2.2-2.4-.6-.4-1.2-.6-1.8-.5-.9 0-1.9.4-2.9 1.2l-1 .8-.7-1 25.8-19.8 7.3 8.8-.9.7c-2.2-1.8-4.1-2.9-5.7-3.2-1.6-.3-3.3-.1-5.1.5-1.1.4-2.8 1.5-5.1 3.3l-3.2 2.4zM166.1 56.1c2.1-1 4.4-1.4 6.7-1.3 2.4.2 4.5 1 6.5 2.5s3.5 3.4 4.7 5.7c1.7 3.3 2.3 6.5 1.7 9.6-.7 3.7-2.9 6.5-6.7 8.3-3.7 1.8-7.1 1.9-10.4.4-3.3-1.5-5.8-3.9-7.4-7.1-1.7-3.4-2.3-6.8-1.5-10.2.8-3.6 2.9-6.2 6.4-7.9zm1 1.7c-.9.4-1.5 1.1-1.8 2.1-.3.9-.1 2.4.7 4.4.8 2 2.1 4.7 3.8 8 .9 1.8 1.9 3.4 3 4.8.8 1.1 1.7 1.8 2.6 2.1.9.3 1.8.3 2.6-.1s1.3-.9 1.6-1.6c.4-.9.4-1.9.1-3-.5-1.8-2-5-4.5-9.9-1.5-2.8-2.7-4.7-3.5-5.6-.9-.9-1.8-1.4-2.7-1.6-.4 0-1.1.1-1.9.4zM198 50l4 17.7c.4 1.7.8 2.7 1.3 3.1.8.6 1.9.6 3.6.2l.2 1-15.7 3.2-.2-1c1.2-.3 2-.6 2.5-.9.5-.4.7-.8.8-1.2.1-.5 0-1.4-.3-2.8l-4-17.7-3.9.8-.6-2.7 3.9-.8-.4-1.9-.3-1.3c-.6-2.6-.1-5 1.5-7.2s4.1-3.6 7.6-4.3c2.3-.5 4.2-.4 5.5.2 1.3.6 2.1 1.4 2.3 2.4.2.8 0 1.6-.6 2.3-.6.7-1.4 1.2-2.6 1.5-1 .2-1.8.1-2.5-.3s-1.1-.9-1.2-1.5c0-.2-.1-.5-.1-1 0-.3 0-.6-.1-.9-.1-.4-.3-.6-.5-.8-.4-.2-.8-.3-1.2-.2-.5.1-1 .4-1.2.9-.3.5-.3 1.3-.1 2.2l1.1 4.8.7 3.3 3.9-.8.6 2.7-4 1zM247.9 53.3l10.6-25h15.8v1H273c-1.1 0-2.1.2-2.8.6-.5.3-.9.7-1.1 1.3-.2.4-.3 1.6-.3 3.5v25c0 1.9.1 3.1.3 3.6.2.5.6.9 1.3 1.3.6.4 1.5.5 2.6.5h1.3v1H254v-1h1.3c1.1 0 2.1-.2 2.8-.6.5-.3.9-.7 1.1-1.3.2-.4.3-1.6.3-3.5v-28l-14.9 34.6h-.7L228.8 32v26.7c0 1.9 0 3 .1 3.4.2.9.8 1.7 1.6 2.3.8.6 2.1.9 3.9.9v1h-13.3v-1h.4c.9 0 1.7-.1 2.4-.4.7-.3 1.3-.7 1.7-1.2.4-.5.7-1.2.9-2 0-.2.1-1.2.1-2.9v-24c0-1.9-.1-3.1-.3-3.6-.2-.5-.6-.9-1.3-1.3-.7-.4-1.5-.5-2.6-.5h-1.2v-1H237l10.9 24.9zM295.2 68.8l-.2 1-20.4-3.4.2-1 1.3.2c1.1.2 2.1.1 2.8-.1.5-.2 1-.6 1.4-1.1.3-.4.6-1.5.9-3.4l4.5-24.6c.3-1.9.5-3.1.3-3.6-.1-.5-.5-1-1-1.5-.6-.5-1.4-.8-2.5-1l-1.3-.2.2-1 20.4 3.4-.2 1-1.3-.2c-1.1-.2-2.1-.1-2.8.1-.5.2-1 .5-1.4 1.1-.3.4-.6 1.5-.9 3.4l-4.5 24.6c-.3 1.9-.5 3.1-.3 3.6.1.5.5 1 1.1 1.5.6.5 1.4.8 2.5 1l1.2.2zM342.8 44.1L339 56.7l-1.1-.3c.2-3.5-.6-6.5-2.3-8.9-1.7-2.4-4-4-6.8-4.8-2.4-.7-4.7-.6-7.1.1-2.4.8-4.3 2.1-5.9 3.9-2 2.4-3.5 5.2-4.5 8.5s-1.5 6.3-1.4 9.3c0 2.9.8 5.3 2.2 7.2 1.4 1.9 3.6 3.2 6.5 4 2.4.7 4.7.8 7 .3 2.3-.4 4.9-1.6 7.8-3.4l-1 3.1c-2.8 1.5-5.5 2.5-8 2.8-2.6.3-5.4 0-8.5-.8-4-1.1-7.4-2.9-10.1-5.3-2.7-2.4-4.4-5.3-5.2-8.7-.8-3.4-.7-6.7.3-10 1.1-3.5 3-6.5 5.8-9.1 2.8-2.6 6.1-4.3 9.9-5.1 3.7-.8 7.4-.7 11 .3 2.7.7 5.3 2.1 7.9 4 1.5 1.1 2.5 1.7 3 1.9.6.2 1.2.1 1.7-.2.6-.3 1.1-.9 1.5-1.8l1.1.4zM390.2 74c5.2 3.4 8.3 7.7 9.2 12.9.9 5.2-.4 10.2-3.8 14.7-2.9 3.9-6.7 6.5-11.3 7.8-6.1 1.7-12 .6-17.8-3.4-5.8-4-8.8-9-9.1-14.9-.2-4.7 1.2-9.1 4.2-13.1 3.5-4.6 7.9-7.2 13.5-8 5.5-.8 10.6.6 15.1 4zm-.8 1.7c-2.9-2-6.2-2.2-9.9-.4-3 1.5-6.2 4.4-9.5 8.8-4 5.2-5.9 9.8-5.9 13.6 0 2.7 1.2 4.9 3.6 6.5 1.6 1.1 3.3 1.7 4.9 1.7 2.1 0 4.4-.8 6.7-2.4 2.4-1.6 4.9-4.1 7.4-7.5 3.1-4.1 5-7.4 5.7-9.9.7-2.6.8-4.7.2-6.4-.5-1.5-1.6-2.9-3.2-4zM444.1 130.2l-10.3 7.4-.7-.9c2.3-2.2 3.6-4.7 3.9-7.6.3-2.8-.3-5.2-1.7-7.2-1.1-1.6-2.5-2.5-4-2.8-1.5-.3-2.8-.1-3.9.6-.7.5-1.2 1.1-1.5 1.7-.4.9-.6 2.1-.6 3.6 0 1.1.3 3.3 1 6.8.9 4.8 1 8.4.3 10.8-.7 2.3-2.1 4.2-4.1 5.6-2.6 1.8-5.6 2.3-9 1.6-3.4-.7-6.2-2.6-8.5-5.7-.7-1-1.3-2-1.7-3-.4-1-.9-2.3-1.3-4-.2-.9-.5-1.6-.9-2.1-.3-.4-.8-.7-1.4-.9-.6-.2-1.4-.3-2.2-.1l-.6-.8 11.9-8.1.6.8c-2.8 2.9-4.4 6-4.8 9.1-.3 3.1.3 5.8 1.9 8 1.3 1.7 2.7 2.7 4.4 3.1 1.7.4 3.2.1 4.4-.7.7-.5 1.3-1.2 1.7-2 .4-.9.6-1.9.7-3.1 0-1.2-.2-3.2-.7-5.9-.7-3.8-1-6.6-.9-8.5.1-1.9.5-3.6 1.2-5.1.7-1.5 1.8-2.7 3.3-3.7 2.5-1.7 5.3-2.2 8.4-1.6 3.1.6 5.7 2.3 7.7 5 .7 1 1.3 2.1 1.8 3.2.3.8.6 1.9.9 3.3.3 1.4.5 2.3.8 2.7.3.4.6.6 1.1.7.4.1 1.2-.1 2.3-.6l.5.4zM434.7 170.2l-5.6-12.3h-4.2c-1.4 0-2.5.2-3.2.5-1 .4-1.6 1.1-1.7 2.1-.1.6.2 1.8.9 3.7l-1 .4-5.3-11.5 1-.4c.8 1.2 1.8 2 3 2.4 1.2.4 3.5.7 6.8.7l34.6.2.2.5-23.9 25c-2.3 2.4-3.6 4.1-4 5.2-.3.8-.2 1.8.2 2.9l-1 .4-7.7-16.8 1-.4.3.7c.6 1.3 1.2 2.2 1.9 2.6.5.3 1 .3 1.5 0 .3-.1.6-.3.9-.6.1-.1.7-.6 1.6-1.6l3.7-3.7zm1.5-1.7l10.1-10.4-14.9-.1 4.8 10.5zM478.2 214.4l-1 .2c-.5-1.2-1.1-2-1.8-2.6-1-.7-3.5-1.7-7.6-2.8l-15.9-4.9-9.3 2.1c-2 .4-3.2.8-3.6 1.1-.4.3-.8.8-1 1.5-.2.7-.2 1.5 0 2.5l.5 2.1-1.1.2-5.1-20.7 1.1-.2.5 1.9c.3 1.1.7 1.9 1.2 2.5.4.4.9.7 1.6.8.5.1 1.7-.1 3.6-.5l7.7-1.7 14.3-12.4c2.8-2.5 4.4-4.1 4.8-4.9.4-.8.5-1.8.2-3l1-.2 4.3 17.7-1 .2-.2-.8c-.3-1.1-.6-1.8-1-2.1-.4-.4-.8-.5-1.2-.4-.7.2-2.2 1.3-4.6 3.3l-11.1 9.6 13.2 4c3.2 1 5.3 1.4 6.3 1.2.5-.1.9-.4 1.1-1 .3-.7.3-1.9 0-3.6l1.1-.2 3 11.1z"/><g><path d="M48.6 300l-8.5 2c-1.4.3-2.3.6-2.6.8-.3.2-.6.6-.7 1.1-.2.5-.1 1.1 0 1.9l.2.9-.8.2-3.4-14 .8-.2.2.9c.2.8.5 1.4.9 1.8.3.3.7.5 1.2.6.4.1 1.2-.1 2.6-.4l18.2-4.2c1.4-.3 2.3-.6 2.6-.8.3-.2.6-.6.7-1.1.2-.5.1-1.1 0-1.9l-.2-.9.8-.2 3.4 14-.8.2-.2-.9c-.2-.8-.5-1.4-.9-1.8-.3-.3-.7-.5-1.2-.6-.4-.1-1.2.1-2.6.4l-7.8 1.8 2.3 9.5 7.8-1.8c1.4-.3 2.3-.6 2.6-.8.3-.2.6-.6.7-1.1.2-.5.1-1.1 0-1.9l-.2-.9.8-.2 3.4 14-.8.2-.2-.9c-.2-.8-.5-1.4-.9-1.8-.3-.3-.7-.5-1.2-.6-.4-.1-1.2.1-2.6.4L44 317.9c-1.4.3-2.3.6-2.6.8-.3.2-.6.6-.7 1.1-.2.5-.1 1.1 0 1.9l.2.9-.8.2-3.4-14 .8-.2.2.9c.2.8.5 1.4.9 1.8.3.3.7.5 1.2.6.4.1 1.2-.1 2.6-.4l8.5-2-2.3-9.5zM44.4 322.7c1 0 1.8.3 2.5 1s1 1.5 1 2.4c0 .9-.3 1.7-1 2.4s-1.5 1-2.5 1-1.8-.3-2.5-1-1-1.5-1-2.4c0-.9.3-1.7 1-2.4s1.5-1 2.5-1zM62.3 344.5l-7.3 3c-1.4.6-2.3 1-2.6 1.3-.3.3-.5.7-.5 1.2s.2 1.4.7 2.5l-.7.3-5.5-13 .7-.3c.5 1.2 1 1.9 1.4 2.3.4.3.8.5 1.3.5.4 0 1.4-.2 2.8-.8l17-6.8c1.4-.6 2.3-1 2.6-1.3.3-.3.5-.7.5-1.2s-.2-1.4-.7-2.5l.7-.3 5 11.8c1.3 3.1 2.1 5.4 2.2 7 .2 1.6-.1 3.1-.9 4.5s-2 2.4-3.6 3c-1.9.8-3.8.7-5.7-.1-1.2-.5-2.3-1.5-3.3-2.9l-6.3 9.7c-.8 1.3-1.3 2.1-1.4 2.6-.2.7-.1 1.4.1 2l-.7.3-3.4-8 8.4-13-.8-1.8zm12.8-5.1L63.6 344l.5 1.1c.7 1.7 1.5 3 2.2 3.7.7.7 1.6 1.2 2.6 1.3 1.1.1 2.3-.1 3.7-.6 2-.8 3.3-1.9 3.8-3.1.6-1.3.4-2.9-.4-5l-.9-2zM91.4 364.8c2.8 3.5 3.9 7.1 3.2 10.9-.6 3.8-2.6 6.9-6 9.3-2.9 2.1-6.1 3-9.5 2.9-4.6-.1-8.3-2.2-11.3-6.2s-3.9-8.1-2.7-12.3c.9-3.3 2.9-6 5.9-8.1 3.4-2.4 7.1-3.3 11-2.6 3.9.7 7.1 2.7 9.4 6.1zm-1 1c-1.5-2-3.7-2.8-6.7-2.4-2.4.4-5.3 1.7-8.6 4-3.9 2.8-6.3 5.5-7.2 8.1-.6 1.9-.3 3.6.9 5.3.8 1.1 1.8 1.9 3 2.2 1.4.5 3.2.4 5.1-.2 2-.6 4.3-1.8 6.8-3.6 3-2.1 5.1-4 6.2-5.6 1.1-1.6 1.6-3.1 1.6-4.3.2-1.2-.2-2.4-1.1-3.5zM105.1 385.6l-8.7 7.4.4.4c1.2 1.3 2.5 1.9 3.8 1.8 1.4-.1 3-.8 4.8-2.1l.5.6-11.2 9.5-.5-.6c1.1-1.2 1.9-2.3 2.3-3.3.4-1.1.5-2 .3-2.7-.2-.7-.7-1.6-1.6-2.6l-6 5.1c-1.2 1-1.8 1.7-2 2-.2.3-.2.7-.2 1.1.1.4.4.9.9 1.5l1.1 1.2c1.7 1.9 3.6 3.1 5.6 3.5 2 .4 4.1 0 6.5-1.1l.5.6-7.6 4.8-16.1-17.9.6-.5.6.7c.5.6 1.1 1 1.6 1.2.4.1.8.1 1.3 0 .4-.1 1.1-.6 2.1-1.5l14-12c1-.8 1.5-1.4 1.7-1.6.3-.4.4-.8.3-1.3-.1-.6-.4-1.3-1-2l-.6-.7.6-.5 15.6 17.4-6.3 5.4-.5-.6c1.3-1.6 2-3 2.2-4.1.2-1.1 0-2.3-.6-3.5-.3-.7-1.2-1.9-2.6-3.5l-1.8-2.1zM126.2 421.3c1.7 2.1 2.7 3.9 2.9 5.2.4 1.9 0 3.6-1.3 5.2-1.4 1.6-3.1 2.4-5.3 2.4-2.7 0-5.6-1.3-8.7-3.8l-11.1-8.9.5-.6c1 .8 1.8 1.3 2.3 1.4.5.1 1 .1 1.4-.1.4-.2 1.1-.8 2.1-2l11.7-13.8c1-1.2 1.5-1.9 1.6-2.4.1-.4.1-.9-.2-1.3-.2-.5-.8-1.1-1.8-1.9l.5-.6 10.5 8.4c2.5 2 4.1 3.6 4.8 4.9.7 1.3.9 2.6.8 3.9-.1 1.3-.6 2.5-1.4 3.5-.9 1-2 1.6-3.5 1.8-1.6.2-3.5-.3-5.8-1.3zm-6.5-3.9l-5.8 6.8-.7.8c-.5.6-.7 1.1-.6 1.6.1.5.4 1 .9 1.5.9.7 1.8 1.1 2.9 1.3 1 .2 2.1.1 3-.3 1-.4 1.8-1 2.6-1.9.8-1 1.4-2.1 1.6-3.2.2-1.2 0-2.2-.5-3.2-.7-1-1.8-2.1-3.4-3.4zm1-1.3c1.5 1.2 2.8 2 3.8 2.2 1 .3 2 .2 2.9-.1.9-.3 1.7-.9 2.5-1.9.8-.9 1.3-1.9 1.4-2.8.1-.9 0-1.8-.5-2.7-.4-.9-1.5-1.9-3-3.2l-7.1 8.5zM143.4 440.5l-8.7-4.8-2.4 1.8c-.8.6-1.3 1.1-1.6 1.7-.4.7-.4 1.3 0 1.9.2.4.9 1 2.2 1.8l-.4.7-8.2-4.5.4-.7c1 .4 1.9.4 2.8.1.9-.3 2.3-1.1 4.2-2.5l19.9-14.3.3.2-2.5 24.6c-.2 2.3-.2 3.9.1 4.7.2.6.7 1.1 1.4 1.6l-.4.7-11.9-6.5.4-.7.5.3c1 .5 1.7.8 2.2.7.4 0 .7-.2.9-.6.1-.2.2-.5.3-.7 0-.1.1-.7.2-1.6l.3-3.9zm.1-1.6l1.1-10.3-8.6 6.2 7.5 4.1zM165.9 446.7l-3.1 7.1c-.6 1.4-.9 2.3-.9 2.7 0 .4.2.8.5 1.2.3.4 1.1.8 2.3 1.3l-.3.7-13.4-5.5.3-.7c1.2.5 2.1.7 2.6.7s.9-.2 1.3-.5c.3-.3.8-1.1 1.4-2.5l7.2-16.5c.6-1.4.9-2.3.9-2.7 0-.4-.2-.8-.5-1.2-.3-.4-1.1-.8-2.3-1.3l.3-.7 12.1 5c3.2 1.3 5.4 2.5 6.6 3.5 1.3 1 2.1 2.3 2.6 3.8.4 1.5.3 3.1-.4 4.6-.8 1.9-2.2 3.1-4.1 3.8-1.2.4-2.7.5-4.5.2l2.5 11.2c.3 1.5.6 2.4.8 2.8.4.6.9 1.1 1.5 1.4l-.3.7-8.2-3.4-3.4-15-1.5-.7zm5.4-12.4l-4.8 11.1 1.1.5c1.8.7 3.2 1.1 4.2 1.2 1 0 2-.2 2.8-.9.9-.6 1.6-1.6 2.2-2.9.8-1.9 1-3.6.5-4.9-.5-1.3-1.8-2.4-3.9-3.2l-2.1-.9zM211.4 445.7l-2.2 7.1-.7-.2c.1-1.8 0-3.1-.3-4-.3-.9-.8-1.7-1.6-2.4-.4-.4-1.3-.8-2.5-1.1l-2-.6-6.4 20.3c-.4 1.3-.6 2.2-.6 2.6 0 .4.3.8.6 1.2.4.4.9.7 1.7.9l.9.3-.2.7-14.2-4.2.2-.7.9.3c.8.2 1.5.3 2 .2.4-.1.8-.3 1.1-.7.2-.3.6-1.1 1-2.4l6.4-20.3-2-.6c-1.8-.5-3.3-.6-4.3-.1-1.5.7-2.7 2-3.6 3.8l-.8-.2 2.2-7.1 24.4 7.2z"/><path d="M232.9 466.6l-2.5 9.4-24.9-3.5.1-.7.9.1c.8.1 1.5.1 2-.1.4-.1.7-.4 1-.8.2-.3.4-1.1.6-2.5l2.7-18c.2-1.4.3-2.3.2-2.6-.1-.4-.4-.7-.8-1-.4-.3-1-.5-1.8-.7l-.9-.1.1-.7 15 2.1-.1.7-1.2-.2c-.8-.1-1.5-.1-2 .1-.4.1-.7.4-1 .8-.2.3-.4 1.1-.6 2.5l-2.6 17.4c-.2 1.4-.3 2.3-.2 2.7.1.4.4.7.8 1 .3.2 1.2.3 2.5.5l2.3.3c1.5.2 2.8.1 3.8-.2 1.1-.4 2-1 2.9-2 .9-1 1.8-2.5 2.8-4.6l.9.1zM244.7 450v11.2h.6c1.8 0 3.1-.5 3.9-1.6.8-1.1 1.3-2.7 1.5-4.9h.8v14.4h-.8c-.2-1.6-.5-2.9-1.1-3.9-.5-1-1.2-1.7-1.9-2-.7-.3-1.7-.5-3.1-.5v7.8c0 1.5.1 2.4.2 2.8.1.3.4.6.7.8.4.2.9.3 1.8.3h1.7c2.6 0 4.8-.6 6.4-1.8 1.6-1.2 2.7-3 3.4-5.5h.8l-1.3 8.8h-24.5v-.8h.9c.8 0 1.5-.1 2-.4.4-.2.6-.5.8-1 .2-.3.2-1.2.2-2.6V453c0-1.2 0-2-.1-2.3-.1-.5-.4-.8-.8-1.1-.5-.4-1.3-.6-2.2-.6h-.9v-.8h23.7v8.2h-.8c-.4-2-1-3.4-1.7-4.3-.7-.9-1.8-1.5-3.1-1.9-.8-.2-2.2-.4-4.4-.4h-2.7zM278.8 462.6l1.2 7.6c.2 1.5.5 2.4.7 2.7.2.4.6.6 1.1.8.5.2 1.4.1 2.7 0l.1.7-14.3 2.1-.1-.7c1.3-.2 2.2-.4 2.6-.7.4-.3.7-.7.8-1.1.1-.4.1-1.3-.1-2.8l-2.7-17.7c-.2-1.5-.5-2.4-.7-2.7-.2-.4-.6-.6-1.1-.8-.5-.2-1.4-.1-2.7 0l-.1-.7 13-1.9c3.4-.5 5.9-.6 7.5-.4 1.6.2 3.1.9 4.2 2 1.2 1.1 1.9 2.5 2.2 4.1.3 2-.2 3.8-1.5 5.3-.8 1-2.1 1.8-3.7 2.5l8.2 8.3c1.1 1.1 1.8 1.7 2.2 2 .6.3 1.3.5 2.1.4l.1.7-8.8 1.3-10.9-11.1-2 .1zm-2.1-13.4l1.8 11.9 1.2-.2c1.9-.3 3.3-.7 4.2-1.1.9-.5 1.5-1.2 2-2.2.4-1 .5-2.2.3-3.6-.3-2.1-1.1-3.5-2.2-4.4-1.2-.8-2.8-1.1-5.1-.8l-2.2.4zM305.2 443.1l3.4 10.7.5-.2c1.7-.5 2.8-1.4 3.2-2.7.4-1.3.4-3 0-5.1l.8-.2 4.4 13.8-.8.2c-.6-1.5-1.4-2.6-2.2-3.4-.8-.8-1.6-1.3-2.4-1.4-.8-.1-1.8 0-3.1.4l2.4 7.4c.5 1.5.8 2.3 1 2.6.2.3.6.5 1 .6.4.1 1 0 1.8-.2l1.6-.5c2.5-.8 4.4-1.9 5.5-3.5 1.2-1.6 1.7-3.7 1.6-6.2l.7-.2 1.4 8.7-23.4 7-.2-.7.9-.3c.8-.2 1.4-.6 1.8-1 .3-.3.5-.7.5-1.2.1-.4-.1-1.2-.6-2.5l-5.5-17.3c-.4-1.2-.6-1.9-.8-2.2-.3-.4-.6-.7-1.1-.8-.6-.2-1.4-.2-2.2.1l-.9.3-.2-.7 22.7-6.8 2.5 7.8-.8.2c-1-1.8-2-3-2.9-3.6-1-.6-2.1-.9-3.5-.9-.8 0-2.3.3-4.3.9l-2.8.9zM335.8 428.9l4.1 8.3-.8.3c-1.3-1.9-3-3.2-5.1-3.9-2-.6-3.9-.6-5.6.1-1.3.6-2.2 1.4-2.6 2.4-.4 1-.5 1.9 0 2.8.3.6.6 1 1.1 1.3.6.4 1.5.7 2.6.9.8.1 2.5.3 5.1.3 3.7.1 6.4.6 8 1.4 1.6.8 2.8 2.1 3.6 3.7 1 2.1 1 4.3 0 6.5-1 2.3-2.8 4-5.3 5.1-.8.4-1.6.6-2.4.8-.8.2-1.8.3-3.1.3-.7 0-1.3.1-1.7.3-.3.1-.6.4-.9.8-.3.4-.4.9-.4 1.5l-.7.3-4.4-9.5.7-.3c1.8 2.4 3.8 4 6.1 4.7 2.2.7 4.3.6 6.1-.2 1.4-.6 2.4-1.5 2.9-2.6s.5-2.2 0-3.2c-.3-.6-.7-1.1-1.3-1.5-.6-.4-1.3-.7-2.2-.9-.9-.2-2.4-.3-4.4-.4-2.9-.1-5-.3-6.4-.6-1.4-.3-2.6-.9-3.6-1.6-1-.7-1.8-1.7-2.3-2.9-.9-2-1-4-.1-6.1.9-2.1 2.4-3.6 4.7-4.6.8-.4 1.7-.6 2.6-.8.7-.1 1.5-.2 2.6-.1 1 0 1.7 0 2.1-.2.3-.1.5-.4.6-.6.1-.3.1-.8-.1-1.7l.5-.1z"/><path d="M346.4 425.4l6.5 9.3.5-.3c1.5-1 2.2-2.1 2.3-3.5 0-1.3-.5-3-1.5-4.9l.7-.4 8.3 12-.7.4c-1-1.2-2.1-2.1-3.1-2.6s-1.9-.8-2.7-.7c-.8.1-1.7.5-2.9 1.3l4.5 6.4c.9 1.3 1.5 2 1.8 2.2.3.2.7.3 1.1.3.4 0 1-.2 1.6-.7l1.4-.9c2.2-1.4 3.6-3.1 4.2-5 .6-1.9.5-4-.3-6.4l.6-.4 4 8-20.3 13.4-.4-.6.8-.5c.7-.4 1.1-.9 1.4-1.4.2-.4.2-.8.1-1.3-.1-.4-.5-1.1-1.3-2.2l-10.5-15c-.7-1-1.2-1.6-1.4-1.8-.4-.3-.8-.5-1.3-.5-.7 0-1.4.2-2.1.7l-.8.5-.4-.6 19.6-13 4.7 6.8-.7.4c-1.5-1.4-2.8-2.3-3.9-2.6-1.1-.3-2.3-.3-3.7.1-.8.2-2.1.9-3.8 2.1l-2.3 1.4zM376.7 421.9l5 6c1 1.2 1.6 1.8 2 2 .4.2.9.2 1.4.1.5-.1 1.3-.6 2.3-1.4l.5.6-11.3 8.9-.5-.6c1-.8 1.6-1.4 1.8-1.9.2-.5.3-.9.2-1.3-.1-.4-.6-1.2-1.6-2.4L365 418.1c-1-1.2-1.6-1.8-2-2-.4-.2-.9-.2-1.4-.1-.5.1-1.3.6-2.3 1.4l-.5-.6 10.2-8.1c2.7-2.1 4.8-3.5 6.3-4.1 1.5-.6 3.1-.7 4.7-.4 1.6.3 2.9 1.2 4 2.5 1.3 1.6 1.8 3.3 1.5 5.3-.2 1.2-.8 2.6-1.9 3.9l11.3 3.1c1.5.4 2.5.6 2.9.6.7 0 1.4-.3 2-.7l.5.6-6.9 5.5-15.2-4.2-1.5 1.1zm-8.7-10.5l7.8 9.4.9-.7c1.5-1.2 2.5-2.2 3-3.1.5-.9.7-1.8.6-2.8-.2-1-.7-2.1-1.6-3.3-1.4-1.6-2.8-2.5-4.2-2.7-1.4-.2-3 .4-4.8 1.8l-1.7 1.4zM399.6 380.7l.6.5c-.6.8-.8 1.9-.7 3 .1.9.7 2.6 1.7 5.2l8.8 21.5-.5.5-22.9-8.5c-2.8-1-4.5-1.6-5.1-1.6-.6 0-1.4.3-2.2 1l-.6-.5 9.5-9.5.6.5-.3.3c-.9.9-1.3 1.5-1.4 2.1-.1.4 0 .7.3 1 .2.2.4.3.8.5.3.2 1.2.5 2.8 1.1l14.3 5.3-5.1-12.4c-.6-1.5-1.1-2.5-1.3-2.9-.3-.5-.5-.8-.8-1.1-.3-.3-.6-.5-1-.5-.4-.1-.8 0-1.2.2-.6.3-1.2.7-1.9 1.4l-.6-.5 6.2-6.6zM420.1 384.3l-6.2 7.6 1.4 2.6c.5.9 1 1.5 1.4 1.8.6.5 1.3.6 2 .3.4-.2 1.1-.8 2.1-1.8l.6.5-5.9 7.2-.6-.5c.5-.9.7-1.8.6-2.7-.1-.9-.7-2.4-1.8-4.4l-11.4-21.4.2-.3 24.5 6.3c2.3.6 3.9.8 4.8.7.6-.1 1.2-.5 1.8-1.1l.6.5-8.5 10.4-.6-.5.3-.4c.7-.8 1-1.5 1.1-2 0-.4-.1-.7-.5-.9-.2-.1-.4-.3-.7-.4-.1-.1-.7-.2-1.6-.5l-3.6-1zm-1.6-.4l-10.3-2.7 4.9 9.2 5.4-6.5zM421.3 345.1l6.7 3.7-.4.6c-1.8-.5-3.1-.7-4.1-.6-.9.1-1.8.4-2.7 1-.5.3-1 1.1-1.7 2.2l-1 1.8 19.1 10.4c1.3.7 2.1 1.1 2.5 1.1.4 0 .8-.1 1.3-.3.5-.3.9-.7 1.3-1.4l.5-.8.7.4-7.3 12.6-.7-.4.5-.8c.4-.7.6-1.3.6-1.9 0-.4-.1-.8-.5-1.2-.2-.3-.9-.8-2.2-1.5l-19.1-10.4-1 1.7c-.9 1.6-1.3 3-1 4.1.4 1.6 1.4 3 3.1 4.3l-.4.7-6.7-3.7 12.5-21.6zM452.6 340.7l.7.3-5.3 13.4-.7-.3.3-.8c.3-.7.4-1.4.3-2-.1-.4-.3-.8-.6-1.1-.3-.3-1-.6-2.4-1.1l-17.4-6.6c-1.3-.5-2.2-.8-2.6-.7-.4 0-.8.2-1.2.5-.4.3-.8.9-1.1 1.6l-.3.9-.7-.3L427 331l.7.3-.3.9c-.3.7-.4 1.4-.3 2 0 .4.3.8.6 1.1.3.3 1 .6 2.4 1.1l17.4 6.6c1.4.5 2.2.8 2.6.7.4 0 .8-.2 1.2-.5.4-.3.8-.9 1.1-1.6l.2-.9zM430.9 318c1-4.3 3.1-7.4 6.6-9.4 3.4-2 7.2-2.5 11.2-1.5 3.5.9 6.3 2.6 8.4 5.3 2.8 3.5 3.6 7.6 2.3 12.4-1.3 4.8-3.9 8.1-8 9.9-3.2 1.4-6.6 1.7-10.2.8-4.1-1-7.1-3.2-9.1-6.6-2-3.3-2.4-7-1.2-10.9zm1.3.1c-.6 2.4.2 4.6 2.4 6.5 1.8 1.6 4.7 2.8 8.7 3.8 4.7 1.2 8.4 1.2 11 .2 1.9-.7 3-2.1 3.6-4.1.4-1.4.3-2.6-.1-3.6-.6-1.4-1.7-2.6-3.4-3.7s-4.1-2.1-7.2-2.8c-3.6-.9-6.4-1.3-8.4-1-2 .2-3.5.7-4.5 1.6-1 .7-1.7 1.8-2.1 3.1z"/><path d="M437.8 295.7l19.7-10.3-12-2.1c-1.7-.3-2.8-.3-3.5.1-.9.5-1.5 1.5-1.7 3l-.8-.1 1.6-9 .8.1c-.1 1.2 0 2 .2 2.4.2.4.5.8 1 1.1.5.3 1.4.6 2.7.8l23.2 4.1-.1.7-26.5 14.3 17.7 3.1c1.6.3 2.8.1 3.4-.5.7-.6 1.1-1.4 1.3-2.3l.1-.6.8.1-1.7 9.6-.8-.1c.3-1.5.1-2.6-.4-3.3-.5-.7-1.5-1.2-3-1.4l-19.7-3.5-.8.4c-.8.4-1.4.9-1.7 1.3-.3.4-.6 1-.7 1.8l-.8-.1 1.7-9.6z"/></g></g><g><path class="st22" d="M25.4 250.9l.1-.1c.4-.1.7-.2 1.1-.4.5-.2 1-.5 1.4-.7.4-.2.8-.5 1.3-.8.6-.4 1.2-.7 1.7-1.1.6-.4 1.2-.7 1.9-1 .4-.2.9-.4 1.3-.5.5-.1.9-.2 1.4-.3.1 0 .1-.1.1-.2-.2-.4-.4-.7-.5-1.1-.2-.4-.3-.9-.3-1.3s0-.9.1-1.3c.1-.6.4-1.2.7-1.8.3-.4.6-.8 1.1-1.1.5-.4 1.1-.7 1.7-.9.3-.1.6-.2.9-.2.3-.1.7-.1 1-.1h.9c.4.1.7.1 1.1.3.3.1.6.3.9.4.5.2.9.6 1.3.9.5.4.8.9 1.2 1.4.2.4.4.7.6 1.1 0 0 0 .1.1.2-.2 0-.3-.1-.4-.1-.3 0-.6-.1-1-.1-.3 0-.6 0-.8.1-.3 0-.6.1-.9.3-.4.2-.7.6-.9 1-.1.2-.1.5-.2.7 0 .2 0 .5.1.7 0 .2.1.4.2.6.2.4.5.7.9 1 .3.3.7.5 1.1.6l1.2.3c.2.1.3 0 .3-.1.3-.6 1-.9 1.6-.6.4.1.6.4.7.8 0 .1.1.2.2.1.2-.1.3-.2.5-.3.4-.5.5-1 .2-1.6-.3-.5-.7-.7-1.2-.7h-.6v-.1c.1-.2.2-.3.3-.5.3-.4.7-.8 1.1-1.1.4-.3.9-.5 1.4-.6.4-.1.8-.1 1.1.1.4.1.8.4 1.1.8.2.3.4.6.5 1 .1.3.2.7.1 1.1 0 .4-.1.7-.2 1-.1.3-.2.5-.3.7-.2.3-.4.5-.6.7-.1.1-.1.1 0 .2s.2.1.4.2c.4.3.8.5 1.2.8.3.2.6.5.9.7l.9.9-.3.3c-.5.5-.9.9-1.5 1.3-.3.2-.7.5-1 .7-.2.1-.4.2-.6.4-.1 0-.1.1 0 .1.1.1.1.2.2.3.2.2.4.5.5.7.3.6.4 1.3.3 2-.1.4-.2.8-.4 1.2-.2.3-.5.6-.8.8-.4.3-.9.4-1.4.4-.3 0-.7-.1-1-.2-.6-.3-1.1-.7-1.5-1.2-.2-.2-.3-.5-.5-.7 0-.1-.1-.1-.1-.2h.2c.3 0 .6 0 .9-.1.5-.2.8-.6.9-1.1 0-.4-.1-.7-.3-1-.1-.2-.3-.3-.5-.4-.1 0-.2 0-.2.1v.1c-.3.6-.9.9-1.5.7-.4-.1-.6-.4-.8-.7-.1-.1-.1-.2-.3-.1-.4.1-.8.2-1.3.3-.4.2-.9.4-1.2.7-.5.4-.8.9-1 1.5-.1.4-.1.9 0 1.3s.3.8.7 1c.5.4 1.1.5 1.7.6h.6c.3 0 .5-.1.8-.1h.3c0 .1-.1.1-.1.2-.1.2-.2.3-.3.5-.2.3-.4.6-.6.8-.2.3-.5.6-.8.9-.2.2-.4.4-.7.6l-.9.6c-.1.1-.3.2-.5.3-.2.1-.5.2-.7.2-.3.1-.6.1-.9.2h-.7c-.2 0-.4 0-.6-.1l-1.2-.3c-.2 0-.4-.1-.5-.2-.4-.1-.7-.3-1-.6-.3-.2-.6-.5-.9-.8-.1-.1-.3-.3-.4-.5-.2-.4-.4-.7-.5-1.1-.1-.4-.2-.9-.2-1.4v-.7c0-.2.1-.4.1-.7.2-.6.4-1.2.8-1.7.1-.1 0-.1-.1-.1-.3 0-.5-.1-.8-.1-.5-.1-1-.3-1.5-.5-.4-.1-.7-.3-1-.5l-1.5-.9-.9-.6c-.4-.3-.9-.6-1.3-.9-.5-.3-.9-.6-1.4-.9-.7-.1-1.2-.3-1.8-.4zM476 251.2l-.1.1c-.4.1-.7.2-1.1.4-.5.2-1 .5-1.4.7-.4.2-.8.5-1.2.8-.6.4-1.2.7-1.7 1.1-.6.4-1.2.7-1.9 1-.4.2-.9.4-1.3.5-.5.1-.9.2-1.4.2-.1 0-.1.1-.1.2.2.4.4.7.5 1.1.2.4.3.9.3 1.3s0 .9-.1 1.3c-.1.6-.4 1.2-.7 1.8-.3.4-.6.8-1.1 1.1-.5.4-1.1.7-1.7.9-.3.1-.6.2-.9.2-.3.1-.7.1-1 .1h-.9c-.4-.1-.7-.1-1.1-.3-.3-.1-.6-.3-.9-.4-.5-.2-.9-.6-1.3-.9-.5-.4-.8-.9-1.2-1.4-.2-.4-.4-.7-.6-1.1 0 0 0-.1-.1-.2.2 0 .3.1.4.1.3 0 .6.1 1 .1.3 0 .6 0 .8-.1.3 0 .6-.1.9-.3.4-.2.7-.6.9-1 .1-.2.1-.5.2-.7 0-.2 0-.5-.1-.7 0-.2-.1-.4-.2-.6-.2-.4-.5-.7-.9-1-.3-.3-.7-.5-1.1-.6l-1.2-.3c-.2-.1-.3 0-.3.1-.3.6-1 .9-1.6.6-.4-.1-.6-.4-.7-.8 0-.1-.1-.2-.2-.1-.2.1-.3.2-.5.3-.4.5-.5 1-.2 1.6.3.5.7.7 1.2.7h.6v.1c-.1.2-.2.3-.3.5-.3.4-.7.8-1.1 1.1-.4.3-.9.5-1.4.6-.4.1-.8.1-1.1-.1-.4-.1-.8-.4-1.1-.8-.2-.3-.4-.6-.5-1-.1-.3-.2-.7-.1-1.1 0-.3.1-.7.2-1 .1-.3.2-.5.3-.7.2-.3.4-.5.6-.7.1-.1.1-.1 0-.2s-.2-.1-.4-.2c-.4-.3-.8-.5-1.2-.8-.3-.2-.6-.5-.9-.7l-.9-.9.3-.3c.5-.5.9-.9 1.5-1.3.3-.2.7-.5 1-.7.2-.1.4-.2.6-.4.1 0 .1-.1 0-.1-.1-.1-.1-.2-.2-.3-.2-.2-.4-.5-.5-.7-.3-.6-.4-1.3-.3-2 .1-.4.2-.8.4-1.2.2-.3.5-.6.8-.8.4-.3.9-.4 1.4-.4.3 0 .7.1 1 .2.6.3 1.1.7 1.5 1.2.2.2.3.5.5.7 0 .1.1.1.1.2h-.2c-.3 0-.6 0-.9.1-.5.2-.8.6-.9 1.1 0 .4.1.7.3 1 .1.2.3.3.5.4.1 0 .2 0 .2-.1v-.1c.3-.6.9-.9 1.5-.7.4.1.6.4.8.7.1.1.1.2.3.1.4-.1.8-.2 1.3-.3.4-.2.9-.4 1.2-.7.5-.4.8-.9 1-1.5.1-.4.1-.9 0-1.3s-.4-.8-.7-1c-.5-.4-1.1-.5-1.7-.6h-.6c-.3 0-.5.1-.8.1h-.3c0-.1.1-.1.1-.2.1-.1.2-.3.3-.5.2-.3.4-.6.6-.8.2-.3.5-.6.8-.9.2-.2.4-.4.7-.6l.9-.6c.1-.1.3-.2.5-.3.2-.1.5-.2.7-.2.3-.1.6-.1.9-.2h.7c.2 0 .4 0 .6.1.4.1.8.2 1.2.2.2 0 .4.1.5.2.4.1.7.3 1 .6.3.2.6.5.9.8.1.2.3.3.4.5.2.4.4.7.5 1.1.1.4.2.9.2 1.4v.7c0 .2-.1.4-.1.7-.2.6-.4 1.2-.8 1.7-.1.1 0 .1.1.1.3 0 .5.1.8.1.5.1 1 .3 1.5.5.4.1.7.3 1 .5l1.5.9.9.6c.4.3.9.6 1.3.9.5.3.9.6 1.4.9.5.2 1.1.4 1.7.6z"/></g></g></svg>