<?xml version="1.0" encoding="utf-8"?>
<!-- Generator: Adobe Illustrator 21.0.2, SVG Export Plug-In . SVG Version: 6.00 Build 0)  -->
<svg version="1.1" xmlns="http://www.w3.org/2000/svg" xmlns:xlink="http://www.w3.org/1999/xlink" x="0px" y="0px"
	 viewBox="0 0 454.452 448.184" style="enable-background:new 0 0 454.452 448.184; opacity: 0.02;" xml:space="preserve">
<style type="text/css">
	.st0{display:none;}
	.st1{display:inline;fill:#294EA1;stroke:#000000;stroke-miterlimit:10;}
	.st2{display:none;fill:none;stroke:#253D8A;stroke-width:6;stroke-miterlimit:10;}
	.st3{fill:none;stroke:#FFFFFF;stroke-width:6;stroke-miterlimit:10;}
	.st4{display:none;fill:none;stroke:#ED1C24;stroke-width:6;stroke-miterlimit:10;}
	.st5{display:inline;}
	.st6{display:inline;stroke:#000000;stroke-width:2;}
	.st7{fill:#006DB3;}
	.st8{fill:#FFDB29;}
	.st9{fill:#F69E3B;}
	.st10{fill:#26854F;}
	.st11{fill:#28398F;}
	.st12{fill:#EF4624;}
	.st13{fill:#FFFFFF;}
	.st14{display:inline;fill:#714426;}
	.st15{display:inline;fill:#BCBEC0;stroke:#000000;stroke-width:2;}
	.st16{display:inline;fill:none;}
	.st17{display:inline;fill:#FFFFFF;stroke:#000000;}
	.st18{display:inline;fill:#714426;stroke:#000000;stroke-width:0.5;}
	.st19{stroke:#000000;stroke-width:2;}
	.st20{display:inline;fill:#714426;stroke:#000000;stroke-width:2;}
	.st21{display:inline;fill:none;stroke:#000000;stroke-width:2;}
	.st22{display:inline;fill:#714426;stroke:#000000;stroke-width:2;stroke-linecap:round;stroke-linejoin:round;}
	.st23{fill:#FFFFFF;stroke:#000000;}
	.st24{display:inline;fill:#FFDB29;stroke:#000000;}
	.st25{fill:#714426;}
	.st26{display:inline;fill:#FFFFFF;}
	.st27{fill-rule:evenodd;clip-rule:evenodd;fill:#FFFFFF;}
	.st28{fill:none;stroke:#FFFFFF;stroke-width:3;}
	.st29{fill:none;stroke:#FFFFFF;stroke-width:3;stroke-miterlimit:10;}
	.st30{fill:none;stroke:#FFFFFF;stroke-width:3;stroke-linecap:round;stroke-linejoin:round;}
</style>
<g id="Layer_2" class="st0">
	<rect x="-92.682" y="-92.669" class="st1" width="688.667" height="588.667"/>
</g>
<g id="Layer_1">
	<g>
		<g>
			<g>
				<circle class="st2" cx="227.127" cy="229.402" r="157.801"/>
				<circle class="st3" cx="227.127" cy="229.402" r="165.373"/>
				<ellipse class="st4" cx="227.127" cy="229.403" rx="172.857" ry="172.875"/>
				<ellipse class="st3" cx="227.127" cy="229.402" rx="180.423" ry="180.42"/>
			</g>
			<g class="st0">
				<path class="st5" d="M241.012,113.566c-3.546,0-6.42,2.876-6.42,6.42c0,2.894,1.925,5.311,4.556,6.111v17.081h4.141v-17.207
					c2.417-0.921,4.144-3.244,4.144-5.984C247.433,116.441,244.556,113.566,241.012,113.566z M241.012,122.454
					c-1.363,0-2.47-1.103-2.47-2.468c0-1.362,1.107-2.468,2.47-2.468c1.362,0,2.47,1.106,2.47,2.468
					C243.481,121.351,242.374,122.454,241.012,122.454z"/>
				<path class="st5" d="M241.012,208.404c3.544,0,6.421-2.875,6.421-6.421c0-2.894-1.928-5.309-4.559-6.112v-17.079h-4.139v17.207
					c-2.416,0.921-4.143,3.245-4.143,5.984C234.592,205.529,237.466,208.404,241.012,208.404z M241.012,199.515
					c1.362,0,2.47,1.105,2.47,2.468c0,1.363-1.107,2.47-2.47,2.47c-1.363,0-2.47-1.107-2.47-2.47
					C238.541,200.62,239.649,199.515,241.012,199.515z"/>
				<path class="st6" d="M329.844,130.963c-3.11-5.574-7.065-9.667-11.22-12.687c-2.048-1.493-4.143-2.719-6.216-3.73
					c-2.642-1.29-5.232-2.229-7.623-2.906c-3.667-1.043-6.832-1.484-8.926-1.667c-1.671-0.146-2.667-0.13-2.667-0.13
					c-1.431-0.008-2.81,0.034-4.157,0.107c-2.928,0.154-5.656,0.496-8.224,0.98c-2.633,0.495-5.104,1.129-7.383,1.91
					c-23.845,8.157-28.898,30.132-28.898,30.132h-6.21c-1.451-7.869-10.355-19.463-10.355-19.463
					c-4.417-5.302-11.046-8.51-17.507-10.459c-2.424-0.731-4.823-1.289-7.075-1.704c-3.697-0.688-6.981-1.01-9.314-1.161
					c-2.221-0.146-3.582-0.136-3.582-0.136c-0.882,0.052-1.743,0.126-2.587,0.216c-3.069,0.327-5.875,0.896-8.457,1.634
					c-2.414,0.689-4.621,1.528-6.636,2.471c-2.954,1.383-5.493,2.983-7.662,4.647c-7.928,6.082-10.896,12.98-10.896,12.98
					c-4.347,8.905,2.899,4.765,2.899,4.765l11.388-9.114c0.304-0.205,0.609-0.391,0.914-0.581c2.384-1.512,4.76-2.657,7.08-3.482
					c1.744-0.622,3.456-1.063,5.122-1.375c2.182-0.407,4.278-0.58,6.247-0.585c1.899-0.005,3.681,0.14,5.302,0.374
					c2.442,0.353,4.514,0.902,6.1,1.416c2.152,0.698,3.404,1.337,3.404,1.337c0.248,0.124,0.479,0.253,0.72,0.379
					c21.689,11.203,15.43,28.816,15.43,28.816c-0.415,1.656-3.728,2.691-3.728,2.691h-7.455c-5.381-0.207-5.175,2.899-5.175,2.899
					v9.319c0,4.348,2.483,4.348,2.483,4.348h70.612c8.073,0.208,7.658-2.899,7.658-2.899v-7.661
					c0.415-6.005-4.761-5.591-4.761-5.591h-7.247l-6.006-2.484c-3.389-18.719,10.099-26.993,13.918-28.936
					c0.617-0.313,0.991-0.468,0.991-0.468c1.457-0.695,2.888-1.265,4.292-1.747c2.007-0.689,3.958-1.174,5.829-1.495
					c2.167-0.372,4.228-0.529,6.163-0.526c2.28,0.004,4.384,0.219,6.255,0.553c2.367,0.423,4.367,1.019,5.922,1.588
					c2.319,0.849,3.632,1.628,3.632,1.628c0.384,0.172,1.049,0.583,1.887,1.146c4.195,2.805,12.816,9.414,12.816,9.414
					C334.815,141.315,329.844,130.963,329.844,130.963z"/>
				<g class="st5">
					<path class="st7" d="M190.487,110.048c-0.882,0.052-1.743,0.126-2.587,0.216v11.36c1.899-0.005,3.681,0.14,5.302,0.374
						l0.867-11.813C191.848,110.038,190.487,110.048,190.487,110.048z"/>
					<path class="st8" d="M179.443,111.897l2.21,10.311c2.182-0.407,4.278-0.58,6.247-0.585v-11.36
						C184.831,110.591,182.024,111.16,179.443,111.897z"/>
					<path class="st9" d="M203.383,111.345l-4.082,12.068c2.152,0.698,3.404,1.337,3.404,1.337c0.248,0.124,0.479,0.253,0.72,0.379
						l7.033-12.081C208.034,112.318,205.635,111.76,203.383,111.345z"/>
					<path class="st10" d="M194.069,110.184l-0.867,11.813c2.442,0.353,4.514,0.902,6.1,1.416l4.082-12.068
						C199.687,110.657,196.402,110.335,194.069,110.184z"/>
					<path class="st11" d="M172.808,114.369l3.724,9.214c1.744-0.622,3.456-1.063,5.122-1.375l-2.21-10.311
						C177.029,112.586,174.822,113.425,172.808,114.369z"/>
					<path class="st12" d="M154.25,131.996c-4.347,8.905,2.899,4.765,2.899,4.765l11.388-9.114c0.304-0.205,0.609-0.391,0.914-0.581
						l-4.306-8.05C157.218,125.098,154.25,131.996,154.25,131.996z"/>
					<path class="st13" d="M165.146,119.016l4.306,8.05c2.384-1.512,4.76-2.657,7.08-3.482l-3.724-9.214
						C169.854,115.751,167.315,117.352,165.146,119.016z"/>
					<path class="st12" d="M329.844,130.963c-3.11-5.574-7.065-9.667-11.22-12.687l-4.498,8.033
						c4.195,2.805,12.816,9.414,12.816,9.414C334.815,141.315,329.844,130.963,329.844,130.963z"/>
					<path class="st11" d="M304.786,111.639l-2.1,10.309c2.367,0.423,4.367,1.019,5.922,1.588l3.801-8.99
						C309.766,113.255,307.176,112.317,304.786,111.639z"/>
					<path class="st13" d="M312.409,114.545l-3.801,8.99c2.319,0.849,3.632,1.628,3.632,1.628c0.384,0.172,1.049,0.583,1.887,1.146
						l4.498-8.033C316.577,116.783,314.481,115.557,312.409,114.545z"/>
					<path class="st8" d="M295.86,109.973l0.571,11.422c2.28,0.004,4.384,0.219,6.255,0.553l2.1-10.309
						C301.119,110.596,297.954,110.155,295.86,109.973z"/>
					<path class="st9" d="M273.429,112.839l5.727,12.792c0.617-0.313,0.991-0.468,0.991-0.468c1.457-0.695,2.888-1.265,4.292-1.747
						l-3.627-12.487C278.179,111.424,275.708,112.058,273.429,112.839z"/>
					<path class="st7" d="M293.193,109.842c-1.431-0.008-2.81,0.034-4.157,0.107l1.232,11.972c2.167-0.372,4.228-0.529,6.163-0.526
						l-0.571-11.422C294.189,109.827,293.193,109.842,293.193,109.842z"/>
					<path class="st10" d="M280.812,110.929l3.627,12.487c2.007-0.689,3.958-1.174,5.829-1.495l-1.232-11.972
						C286.108,110.103,283.379,110.445,280.812,110.929z"/>
				</g>
				<path class="st14" d="M205.603,169.061c0,0,3.727,0.622,4.349,2.484h13.356c0,0-10.25-8.385-11.804-11.492h-4.969
					C206.535,160.053,204.05,159.434,205.603,169.061z"/>
				<polygon class="st14" points="218.649,162.539 227.965,171.545 229.832,170.925 218.959,161.607 				"/>
				<path class="st14" d="M224.861,161.815c0,0,14.286,2.486,14.08,7.04c0,0,0.828,4.14-4.554,3.106c0,0,4.968-1.657,0.413-3.728
					l-3.313,0.622L224.861,161.815z"/>
				<path class="st14" d="M246.189,166.991c0,0,9.938-6.212,21.743-7.662l-1.037,2.071c0,0-12.839,7.455-14.909,10.767
					c0,0,2.07-5.176-0.621-4.347l-3.311,2.068C248.053,169.888,243.497,169.683,246.189,166.991z"/>
				<path class="st14" d="M258.613,171.34c0,0,15.324-12.011,19.258-9.318c0,0-2.489,0.62-2.277,2.277c0,0,1.241,2.072-1.449,2.691
					c0,0-4.559,3.73,0.826,3.107c0,0,3.108,0.207,3.52-3.107c0,0,3.105,3.73-2.278,4.971h-16.356L258.613,171.34z"/>
				<path class="st15" d="M282.01,194.097c0,2.47-2.001,4.472-4.473,4.472H206.97c-2.47,0-4.472-2.002-4.472-4.472v-15.593
					c0-2.472,2.002-4.473,4.472-4.473h70.567c2.472,0,4.473,2.001,4.473,4.473V194.097z"/>
				<path class="st16" d="M321.767,225.591c0,0-3.009,3.915-5.781,8.807c0.375-0.141,0.727-0.293,1.123-0.421l17.705-7.143
					c0,0,5.9-0.622,5.28-14.288c0,0,0.059-4.211-0.592-9.389c-0.301,0.636-0.613,1.278-0.963,1.935
					C338.54,205.091,329.844,219.689,321.767,225.591z"/>
				<path class="st16" d="M307.47,166.314c6.774,2.261,13.901,5.595,19.888,10.512c0,0,5.453,3.732,10.263,9.364
					c-0.196-1.246-0.501-2.505-0.945-3.772C336.675,182.417,331.128,169.794,307.47,166.314z"/>
				<path class="st16" d="M167.71,235.22c-0.827-1.843-1.551-3.645-2.206-5.413c2.324,22.377,17.114,27.155,17.114,27.155
					c9.534,7.888,18.98,5.252,25.762,1.021c-1.508,0.328-2.467,0.529-2.467,0.529C178.581,263.484,167.71,235.22,167.71,235.22z"/>
				<path class="st17" d="M172.368,163.161c0,0-10.558,5.901-11.491,14.596l3.105,1.244c0,0,6.212-13.045,16.152-13.667
					c0,0,4.361-1.395,8.116-0.396c2.958-0.955,5.731-1.576,8.064-1.974C192.7,160.575,185.458,158.348,172.368,163.161z"/>
				<path class="st5" d="M226.413,253.544c0,0,10.561-2.174,13.978-0.62c0,0,3.106-4.971,0-5.593c0,0-6.347,0.51-14.817,2.093
					c-2.606,1.917-6.091,4.41-9.501,6.833C220.214,255.292,224.48,254.235,226.413,253.544z"/>
				<path class="st14" d="M321.767,225.591c8.077-5.902,16.772-20.5,16.772-20.5c0.35-0.656,0.662-1.299,0.963-1.935
					c-0.38-3.002-0.996-6.323-2.003-9.346c-2.485,13.663-16.044,24.325-16.044,24.325c-5.94,6.931-9.982,15.119-12.137,20.148
					c1.692-1.474,3.878-2.835,6.667-3.886C318.758,229.506,321.767,225.591,321.767,225.591z"/>
				<path class="st17" d="M282.941,161.607l-0.564,4.53c1.337-0.459,6.311-2.059,13.032-2.95
					C288.124,161.787,282.941,161.607,282.941,161.607z"/>
				<path class="st18" d="M330.155,169.683c-11.367-7.576-24.919-7.799-34.746-6.496c-6.721,0.891-11.695,2.491-13.032,2.95
					c-0.233,0.08-0.366,0.129-0.366,0.129c-0.309,2.176-4.04,7.455-4.04,7.455c5.044-3.679,11.281-5.564,16.697-6.524
					c6.923-1.224,12.502-0.931,12.502-0.931c0.103,0.014,0.199,0.032,0.301,0.048c23.658,3.481,29.205,16.104,29.205,16.104
					c0.444,1.267,0.749,2.526,0.945,3.772c1.839,2.155,3.583,4.585,4.895,7.196C344.679,177.068,330.155,169.683,330.155,169.683z"
					/>
				<path class="st17" d="M344.753,203.538c0.311-3.525-0.642-6.972-2.238-10.153c-1.311-2.611-3.056-5.041-4.895-7.196
					c-4.809-5.632-10.263-9.364-10.263-9.364c-5.986-4.917-13.113-8.251-19.888-10.512c-0.102-0.016-0.198-0.034-0.301-0.048
					c0,0-5.579-0.293-12.502,0.931c24.715,6.598,37.971,18.637,37.971,18.637c2.212,1.77,3.763,4.697,4.861,7.977
					c1.007,3.023,1.623,6.344,2.003,9.346c0.65,5.178,0.592,9.389,0.592,9.389c0.62,13.665-5.28,14.288-5.28,14.288l-17.705,7.143
					c-0.396,0.128-0.748,0.28-1.123,0.421c-2.789,1.051-4.975,2.412-6.667,3.886c-5.194,4.522-5.877,9.981-5.877,9.981l8.077-1.242
					c2.173-5.591,24.844-13.977,24.844-13.977c5.904-1.553,7.769-8.077,7.769-8.077
					C345.374,220.622,344.753,203.538,344.753,203.538z"/>
				<path class="st17" d="M238.217,238.636c0,0-11.182,2.485-19.879,10.561c0,0-0.716,0.912-1.992,2.242
					c-1.729,1.804-4.493,4.379-7.965,6.545c-6.782,4.23-16.228,6.866-25.762-1.021c0,0-14.79-4.778-17.114-27.155
					c-1.396-3.769-2.423-7.361-3.157-10.77c-0.996,5.514-2.688,22.475,10.642,36.059c0,0,14.288,14.911,31.06,9.63
					c0,0,5.881-4.109,12.022-8.469c3.41-2.423,6.895-4.916,9.501-6.833c1.918-1.41,3.365-2.507,3.946-3.023
					c0,0,12.423-7.456,16.15,0.621l5.591,0.622C251.261,247.645,247.535,238.636,238.217,238.636z"/>
				<path class="st18" d="M209.952,253.235c0,0-19.879,7.454-33.546-10.872c0,0-21.121-28.263-6.211-59.634
					c0,0,19.568-19.567,32.303-13.667c0,0,3.726-2.485,0.621-6.832c0,0-2.734,0.037-6.805,0.735
					c-2.334,0.398-5.106,1.019-8.064,1.974c-7.652,2.474-16.518,7.193-22.093,16.238c0,0-8.828,14.532-3.809,37.861
					c0.734,3.409,1.76,7.001,3.157,10.77c0.655,1.768,1.379,3.569,2.206,5.413c0,0,10.871,28.264,38.204,23.293
					c0,0,0.958-0.201,2.467-0.529c3.472-2.166,6.236-4.741,7.965-6.545C214.232,251.971,212.087,252.568,209.952,253.235z"/>
				<g class="st5">
					<path class="st19" d="M133.854,275.288c0,0-6.719-1.309-14.277-5.355c-1.858-0.998-3.763-2.17-5.636-3.516
						c-7.917-5.695-15.183-14.723-15.183-28.712c0,0,3.106-20.501,17.704-25.47c0,0,0.31-22.054-8.387-22.054
						c0,0-29.196,15.841-25.47,46.901c0,0,4.174,28.073,26.307,39.307c2.115,1.071,4.415,1.968,6.867,2.693
						c4.73,1.4,10.088,2.108,16.212,1.796C131.991,280.878,143.172,278.703,133.854,275.288z"/>
					<path class="st19" d="M175.786,186.766c0,0-6.833,7.765-4.659,22.984c0,0,17.083,3.106,21.433,15.841
						c0,0,6.365,20.803-6.888,36.114c-1.938,2.24-4.287,4.366-7.15,6.287c-3.091,2.076-6.756,3.926-11.121,5.431
						c0,0-12.425,7.455-0.622,6.833c0,0,8.165-0.014,17.427-4.114c2.626-1.163,5.335-2.662,7.979-4.578
						c8.848-6.416,16.888-17.557,18.077-36.966C210.262,234.598,214.299,197.947,175.786,186.766z"/>
				</g>
				<path class="st5" d="M143.795,165.231c-2.975,0-5.386,2.41-5.386,5.384c0,2.974,2.411,5.384,5.386,5.384
					c2.973,0,5.382-2.41,5.382-5.384C149.177,167.641,146.768,165.231,143.795,165.231z M143.795,173.614c-1.656,0-3-1.343-3-2.999
					c0-1.656,1.343-3.001,3-3.001c1.656,0,2.998,1.344,2.998,3.001C146.793,172.27,145.451,173.614,143.795,173.614z"/>
				<path class="st5" d="M143.795,217.1c-2.975,0-5.386,2.412-5.386,5.384c0,2.974,2.411,5.385,5.386,5.385
					c2.973,0,5.382-2.411,5.382-5.385C149.177,219.512,146.768,217.1,143.795,217.1z M143.795,225.484c-1.656,0-3-1.344-3-3
					c0-1.655,1.343-2.998,3-2.998c1.656,0,2.998,1.343,2.998,2.998C146.793,224.141,145.451,225.484,143.795,225.484z"/>
				<path class="st15" d="M119.258,181.072c0,0,2.07-5.384,12.837-5.798c0,0,29.818-2.485,33.129,3.312l-0.413,2.072
					c0,0-9.526,24.848-9.939,36.03c0,0-16.566,4.554-21.95-0.415C132.923,216.273,122.57,182.728,119.258,181.072z"/>
				<path class="st20" d="M108.075,190.182c0,0-2.484-3.726,1.657-5.796c0,0,6.211-7.043,9.526-3.313c3.312,3.725,0,0.829,0,0.829
					s14.08,24.019,12.837,35.615c0,0-4.969,7.04-8.696,2.07l-2.486-3.728c0,0-3.313,2.072-5.384-4.554
					C115.529,211.304,111.802,193.082,108.075,190.182z"/>
				<path class="st20" d="M157.355,219.173c0,0-4.141-0.83-2.483-7.869c0,0,5.796-27.748,11.181-31.059c0,0,2.484-2.072,7.869,1.241
					c0,0,5.382,2.485,2.07,9.94c0,0-4.141,26.503-7.868,25.262C168.124,216.688,163.981,224.555,157.355,219.173z"/>
				<path class="st21" d="M118.014,181.072c0,0,0.83,27.748,4.142,35.616"/>
				<path class="st21" d="M166.053,180.245c0,0-0.829,14.081,1.657,21.533c0,0,3.312,9.939,0,14.08"/>
				<g class="st5">
					<path class="st12" d="M133.854,275.288c0,0-6.719-1.309-14.277-5.355c-0.788,2.639-2.234,6.185-3.798,9.149
						c4.73,1.4,10.088,2.108,16.212,1.796C131.991,280.878,143.172,278.703,133.854,275.288z"/>
					<path class="st13" d="M113.941,266.417c-0.576,2.388-1.99,6.814-5.029,9.972c2.115,1.071,4.415,1.968,6.867,2.693
						c1.564-2.964,3.01-6.511,3.798-9.149C117.719,268.935,115.814,267.763,113.941,266.417z"/>
					<path class="st12" d="M167.4,273.423c0,0-12.425,7.455-0.622,6.833c0,0,8.165-0.014,17.427-4.114
						c-2.348-2.409-4.387-5.758-5.685-8.149C175.43,270.069,171.765,271.918,167.4,273.423z"/>
					<path class="st13" d="M178.521,267.993c1.297,2.392,3.337,5.74,5.685,8.149c2.626-1.163,5.335-2.662,7.979-4.578
						c-2.758-2.938-5.09-7.042-6.514-9.858C183.733,263.946,181.384,266.072,178.521,267.993z"/>
				</g>
				<path class="st22" d="M241.012,253.544c0,0-0.933-9.007,9.009-8.075l53.108,0.311c0,0,9.32-2.174,10.252,4.351l-0.309,73.299
					c0,0,2.606,5.587-4.846,5.587c-0.096,0-1.368,0.004-1.368,0.004H245.67c0,0-6.212,1.553-5.591-9.008L241.012,253.544z"/>
				<g class="st5">
					<polygon class="st23" points="256.853,251.681 250.64,243.916 256.853,244.227 263.683,251.371 					"/>
					<polygon class="st23" points="264.617,244.227 271.761,244.227 276.42,248.885 271.761,252.304 					"/>
					<polygon class="st23" points="290.708,244.537 297.851,243.916 304.992,251.371 297.851,251.993 					"/>
					<path class="st23" d="M306.547,252.924c0,0,6.834-1.865,7.765,1.863v4.346l-7.453-1.551L306.547,252.924z"/>
					<polygon class="st23" points="307.791,266.279 314.934,273.733 314.623,280.878 307.169,273.733 					"/>
					<polygon class="st23" points="307.169,288.332 307.481,280.878 314.623,288.021 314.623,295.786 					"/>
					<polygon class="st23" points="307.481,298.893 314.312,306.038 314.934,314.109 307.791,306.658 					"/>
					<path class="st23" d="M306.237,319.081c0,0,7.455-2.483,8.697,0.622l-0.311,6.212c0,0-4.97-2.175-8.075-1.864L306.237,319.081z
						"/>
					<path class="st23" d="M239.148,326.227c0,0,3.415-2.486,7.141-1.864v-4.35c0,0-4.658-2.482-8.072,0.624L239.148,326.227z"/>
					<path class="st23" d="M246.602,308.21v6.832c0,0-5.899,4.97-8.696,4.35c0,0-0.933-6.833,3.106-8.697L246.602,308.21z"/>
					<path class="st23" d="M246.602,301.687c0,0-6.523,5.591-7.143,7.765l-0.621-8.385l7.451-6.211L246.602,301.687z"/>
					<path class="st23" d="M246.602,279.947l0.622,8.074c0,0-7.145,5.279-8.075,7.454c-0.931,2.175-0.31-8.696-0.31-8.696
						S242.255,282.12,246.602,279.947z"/>
					<path class="st23" d="M246.914,271.871v-7.767c0,0-6.211,2.486-7.766,8.389v6.522
						C239.148,279.014,244.428,272.493,246.914,271.871z"/>
					<path class="st23" d="M246.602,257.582c0,0-5.59,4.971-6.523,8.076c0,0-2.484-5.592-0.62-9.629c0,0,4.969-6.833,7.456-5.899
						L246.602,257.582z"/>
					<path class="st23" d="M262.131,266.901c0,0-7.144-9.007-15.53-9.318l0.313-7.452c0,0,14.908,5.588,18.947,9.937
						L262.131,266.901z"/>
				</g>
				<path class="st24" d="M253.435,273.115l24.849-27.956c0,0,3.727-4.971,6.522,0l6.215,12.113c0,0,11.489,13.978,3.726,17.705
					l-24.539,18.637c0,0-7.453,5.279-10.869-3.108c0,0-0.932-2.484,0-4.349l-6.212-9.005
					C253.125,277.152,250.95,275.597,253.435,273.115z"/>
				<path class="st20" d="M259.026,286.157l19.258-12.113c0,0,8.387-17.393,13.046-16.772c0,0,10.87,12.112,3.726,17.394
					c0,0-20.81,22.362-30.748,19.568C264.307,294.234,256.233,293.614,259.026,286.157z"/>
				<path class="st21" d="M268.346,293.922c0,0,9.938-19.569,10.87-20.808"/>
				<path class="st17" d="M256.233,279.636c0,0,18.325-3.729,19.564-12.115c0,0,3.107,5.902,0.313,8.076
					c0,0-9.628,6.832-17.394,10.249L256.233,279.636z"/>
				<path class="st17" d="M305.926,252.924c0,0,1.864,8.075-1.862,9.937c0,0-18.948,11.491-26.713,9.631l-1.554-4.972
					C275.797,267.521,295.367,268.454,305.926,252.924z"/>
				<path class="st5" d="M277.454,288.745l16.567-12.838c0,0,16.564,32.717-0.413,55.908c0,0-22.367,31.89-59.635,13.253
					c0,0-12.01-7.455,1.655-6.626c0,0,34.786,7.04,44.31-16.565C279.938,321.876,287.809,301.996,277.454,288.745z"/>
				<g class="st5">
					<path class="st25" d="M318.099,329.391l0.441-0.373c0.158-0.082,0.317-0.107,0.685-0.098c0.05,0.137,0.111,0.187,0.194,0.187
						c0.088,0,0.159-0.036,0.281-0.144l0.271,0.029l0.524,0.188l0.437-0.031l0.345,0.096l0.697,0.039l0.295,0.177l0.132,0.012
						l0.013-0.056l0.146,0.016c0.428,0,0.502,0.028,0.663,0.161l0.204,0.053l0.112-0.078l0.196-0.014l0.255-0.122l0.439,0.015
						l0.293-0.069c0.147,0.055,0.211,0.069,0.307,0.069c0.402,0,0.77-0.108,1.113-0.298l0.073,0.041l0.038,0.148l-0.111,0.094
						l-0.147,0.28l-0.481,0.203l-0.217,0.16c-0.046,0.025-0.099,0.038-0.145,0.038c-0.013,0-0.013,0-0.013,0l-0.344-0.065
						l-0.807-0.031l-0.564-0.064l-0.536,0.041l-0.206-0.041l-0.087,0.016l-0.06,0.308l0.021,0.159l0.012,0.216
						c0,0.012,0,0.041,0,0.055l-0.06,0.31l0.012,0.238l-0.025,0.204l0.039,0.147c-0.184,0.01-0.22,0.039-0.232,0.242
						c0.147,0.025,0.206,0.064,0.218,0.117l-0.025,0.469v0.31c0,0.122-0.071,0.268-0.23,0.429c0.05,0.121,0.086,0.147,0.23,0.174
						l0.039,0.082c-0.125,0.081-0.138,0.118-0.147,0.283l0.147,0.169v0.323v0.281c0.01,0.068-0.015,0.123-0.086,0.201l0.059,0.163
						l-0.024,0.173l0.051,0.241l-0.026,0.186l0.012,0.162l0.015,0.268c-0.172,0.08-0.232,0.16-0.232,0.294
						c0,0.109,0.061,0.189,0.218,0.281l0.087,1.103l-0.087,0.078l-0.11,0.054l-0.317,0.296l-0.11,0.014c-0.012,0-0.061,0-0.086,0
						l-0.073,0.094c-0.034-0.027-0.085-0.057-0.107-0.057c-0.013,0-0.037,0.016-0.076,0.029l-0.069-0.178
						c0.009-0.039,0.009-0.078,0.021-0.105l0.048-0.293l-0.048-0.351l0.048-0.509l0.039-0.751l0.06-0.561v-0.148l0.112-0.162
						l-0.147-0.605l0.06-0.41l-0.038-0.549l-0.022-0.381c-0.016-0.012-0.016-0.012-0.016-0.012c0-0.104,0.028-0.173,0.114-0.455
						l-0.038-0.147c-0.085-0.226-0.137-0.4-0.137-0.496v-0.01l0.013-0.192l-0.069-0.332l0.009-0.19l-0.071-0.478l-0.026-0.166
						l0.184-0.398c0.099-0.057,0.124-0.083,0.124-0.151c0-0.025,0-0.064-0.014-0.105l-0.331-0.068h-0.11l-0.12-0.01l-0.268-0.123
						l-0.539,0.054l-0.82-0.093l-0.88,0.051l-0.145-0.025c-0.099,0.137-0.175,0.189-0.271,0.189c-0.011,0-0.024,0-0.037,0
						l-0.173-0.025l-0.17-0.027C317.928,329.579,317.951,329.501,318.099,329.391z"/>
					<path class="st25" d="M327.191,334.886l0.063-0.039c-0.013-0.083-0.025-0.136-0.038-0.163l-0.07-0.158
						c0-0.029-0.013-0.068-0.013-0.097c0-0.066,0.023-0.118,0.096-0.214c-0.072-0.148-0.096-0.214-0.096-0.337
						c0-0.012,0-0.025,0-0.039l0.034-0.803l-0.034-0.697l0.013-0.145l0.193,0.064c0.048-0.064,0.063-0.094,0.063-0.146
						c0-0.015,0-0.03,0-0.042l-0.269-0.025l-0.025-0.323l0.194-0.012l0.024-0.132c0-0.082-0.048-0.139-0.17-0.19l-0.061-0.359h0.061
						l0.011-0.082l-0.095-0.646l0.01-0.308l-0.108-0.256c0-0.092,0.061-0.158,0.217-0.236l0.111,0.025l0.074-0.175l0.122-0.057
						l0.27-0.225c0.047-0.041,0.11-0.066,0.159-0.066l0.122,0.025c0.009,0.188,0.036,0.229,0.183,0.297
						c0.037,0.214,0.037,0.2,0.272,0.601l-0.052,0.148l-0.059,0.212l0.022,0.084l0.183,0.09l0.147,0.495l-0.12,0.205l0.07,0.039
						l0.05,0.135c0.149,0.01,0.197,0.053,0.295,0.243l0.192,0.467l0.221,0.683c-0.096,0.097-0.157,0.186-0.157,0.241l0.061,0.16
						l0.134,0.014c0.122,0.016,0.149,0.041,0.196,0.187l-0.108,0.189c0.045,0.068,0.071,0.094,0.117,0.094h0.075l0.074,0.12
						c0.146,0.294,0.234,0.51,0.234,0.578l-0.05,0.201l-0.038,0.145l0.111,0.068l0.123,0.023l0.131,0.204l0.23,0.268l0.066,0.259
						l0.132,0.131l0.158,0.428l0.137,0.161l0.195,0.414l0.097,0.098l0.146-0.152l0.431-0.532l0.219-0.416l0.196-0.403l0.292-0.55
						l0.55-1.406l0.222-0.359l0.061-0.417l0.307-0.752l0.047-0.2l0.074-0.025l0.07-0.069v-0.051l0.1-0.055l-0.011-0.109l-0.11-0.051
						c0.034-0.215,0.061-0.283,0.121-0.322l0.111-0.055l0.108-0.093c-0.061-0.119-0.08-0.16-0.183-0.295
						c0.065-0.096,0.103-0.188,0.103-0.242c0-0.01,0-0.041-0.017-0.063l0.11-0.139l0.181-0.307l0.358-0.319
						c0.166-0.162,0.219-0.22,0.268-0.22l0.147,0.042l-0.039,0.444l0.051,0.053l0.108-0.012c0.111,0,0.174,0.039,0.174,0.104
						l-0.013,0.256l-0.05,0.216l-0.073-0.025l-0.023,0.117l0.084,0.242l0.028,1.396v0.063c0,0.055-0.016,0.124-0.052,0.179
						l-0.158,0.237c-0.014,0.014-0.025,0.067-0.025,0.163c0.061,0.105,0.095,0.121,0.244,0.121l0.011,0.241l-0.02,1.083l0.095,0.47
						l0.051,0.819l0.046,0.55c0,0.092-0.011,0.146-0.046,0.268c0.097,0.131,0.107,0.158,0.133,0.549l0.023,0.509
						c0,0.014,0,0.014,0,0.014c0,0.119-0.088,0.321-0.194,0.467c-0.099,0.108-0.196,0.188-0.258,0.188
						c-0.024,0-0.048-0.014-0.085-0.029l-0.112,0.084c-0.096,0.082-0.132,0.107-0.203,0.107l-0.099-0.018l0.009-0.158l0.05-0.375
						l-0.012-0.267l0.106-0.791l-0.055-0.35l-0.04-0.765l-0.034-0.271l0.013-0.655l-0.028-0.428l0.028-0.254l-0.087-0.843
						l0.074-0.173l-0.098-0.043v-0.16l-0.088-0.392l0.013-0.372l-0.061-0.159l-0.146,0.039l-0.05,0.082l0.024,0.184l-0.318,0.526
						l-0.012,0.146l-0.101,0.105L334,332.811l-0.083,0.133l-0.037,0.24l-0.16,0.39l-0.021,0.147c-0.147,0.132-0.22,0.226-0.27,0.319
						l-0.196,0.485l-0.538,1.004l-0.378,0.778l-0.1,0.158l-0.353,0.362c-0.037,0.029-0.063,0.08-0.063,0.109
						c0,0,0,0.012,0.013,0.026c0.022,0.103,0.035,0.186,0.035,0.198l-0.013,0.07c-0.143,0.025-0.192,0.08-0.254,0.255
						c-0.145,0.414-0.172,0.455-0.501,0.535c-0.184-0.215-0.196-0.242-0.222-0.441l-0.046-0.055c0-0.12-0.027-0.147-0.152-0.214
						l-0.044,0.051l-0.086-0.172l-0.149-0.429l-0.119-0.189l-0.135-0.402l-0.146-0.243c0.058-0.131,0.07-0.212,0.07-0.293
						c0-0.066-0.013-0.119-0.035-0.145l-0.197-0.175l-0.744-1.623l-0.181-0.431h0.009l0.039-0.173l-0.099-0.214l-0.04-0.198
						l-0.119,0.065l-0.072-0.135c-0.233-0.451-0.271-0.55-0.356-0.871c-0.121,0.012-0.159-0.014-0.199-0.104l-0.084,0.215h-0.096
						l-0.025,0.051c0.074,0.123,0.086,0.174,0.086,0.269l-0.033,0.496c-0.027,0.282-0.014,0.253-0.138,0.428l0.146,0.319
						l-0.022,0.165l-0.014,0.467l-0.037,0.28l0.037,1.407l-0.073,0.216c0.073,0.163,0.073,0.216,0.087,0.376v0.052v0.081
						c-0.195,0.027-0.245,0.096-0.27,0.351l0.219,0.08l0.012,0.145v0.149c0,0.146-0.012,0.215-0.048,0.24l-0.453,0.334l-0.219,0.202
						l-0.086,0.014l-0.124-0.014l-0.012-0.08l-0.026-0.122l0.114-0.304v-0.634l0.097-0.789l-0.014-0.416l-0.01-0.148l0.023-0.2
						l-0.014-0.161C327.167,335.03,327.184,334.994,327.191,334.886z"/>
				</g>
				<circle class="st26" cx="326.598" cy="43.04" r="5.091"/>
				<circle class="st26" cx="379.837" cy="83.764" r="5.09"/>
			</g>
		</g>
		<g>
			<g>
				<path class="st13" d="M8.657,155.834l10.37,2.502l-0.252,0.977c-2.546,0.001-4.435,0.228-5.664,0.679
					c-1.231,0.455-2.32,1.22-3.264,2.301c-0.517,0.605-1.002,1.766-1.452,3.482l-0.717,2.739l29.564,7.132
					c1.96,0.474,3.212,0.665,3.757,0.574c0.545-0.089,1.08-0.393,1.605-0.908c0.527-0.52,0.926-1.3,1.202-2.35l0.318-1.22
					l1.047,0.252l-5.045,19.253l-1.045-0.251l0.318-1.22c0.281-1.067,0.308-1.976,0.081-2.722c-0.14-0.534-0.494-1.013-1.064-1.438
					c-0.399-0.308-1.562-0.694-3.483-1.158l-29.567-7.129l-0.698,2.658c-0.648,2.476-0.571,4.407,0.227,5.791
					c1.113,1.941,3.032,3.461,5.75,4.56l-0.272,1.031L0,188.867L8.657,155.834z"/>
				<path class="st13" d="M37.384,143.253l10.021,4.525c1.935,0.874,3.207,1.311,3.82,1.308c0.612-0.001,1.208-0.221,1.789-0.659
					c0.581-0.44,1.255-1.443,2.023-3.012l0.976,0.44l-8.609,17.559l-0.979-0.44c0.778-1.585,1.151-2.73,1.122-3.435
					c-0.031-0.703-0.234-1.279-0.617-1.728c-0.38-0.454-1.538-1.114-3.472-1.987L20.25,145.347c-1.935-0.873-3.206-1.31-3.818-1.308
					c-0.614,0.001-1.21,0.222-1.791,0.66c-0.582,0.438-1.256,1.442-2.025,3.012l-0.974-0.44l7.818-15.941
					c2.034-4.15,3.823-7.052,5.363-8.703c1.539-1.653,3.411-2.723,5.618-3.211c2.204-0.489,4.388-0.244,6.548,0.732
					c2.639,1.19,4.37,3.085,5.201,5.684c0.519,1.655,0.539,3.653,0.057,5.991l16.151-2.784c2.093-0.373,3.446-0.701,4.055-0.979
					c0.886-0.449,1.578-1.113,2.077-2.001l0.976,0.441l-5.299,10.805l-21.721,3.697L37.384,143.253z M19.846,135.336l15.665,7.072
					l0.708-1.441c1.148-2.345,1.786-4.2,1.908-5.568c0.122-1.365-0.236-2.646-1.078-3.84c-0.843-1.193-2.206-2.214-4.086-3.063
					c-2.724-1.232-5.038-1.528-6.94-0.893c-1.9,0.635-3.517,2.31-4.847,5.026L19.846,135.336z"/>
				<path class="st13" d="M74.474,111.441l0.914,0.547L64.46,128.813l-0.917-0.547l0.696-1.067c0.604-0.934,0.919-1.79,0.942-2.567
					c0.037-0.55-0.153-1.103-0.569-1.659c-0.284-0.409-1.267-1.117-2.947-2.123l-22.064-13.192c-1.714-1.025-2.845-1.58-3.384-1.664
					c-0.544-0.081-1.147,0.047-1.814,0.384c-0.665,0.338-1.29,0.958-1.875,1.86l-0.694,1.067l-0.914-0.547l10.928-16.825
					l0.916,0.545l-0.693,1.069c-0.607,0.933-0.921,1.79-0.946,2.565c-0.036,0.549,0.149,1.111,0.557,1.683
					c0.281,0.412,1.265,1.119,2.946,2.124l22.065,13.192c1.714,1.025,2.844,1.575,3.391,1.65c0.546,0.075,1.152-0.057,1.82-0.396
					c0.667-0.337,1.292-0.956,1.876-1.858L74.474,111.441z"/>
				<path class="st13" d="M75.686,80.531c3.114-2.169,5.64-3.413,7.572-3.73c2.76-0.468,5.206,0.185,7.337,1.954
					c2.245,1.869,3.321,4.279,3.225,7.232c-0.145,3.604-2.048,7.434-5.713,11.492l-13.149,14.561l-0.815-0.677
					c1.195-1.324,1.876-2.329,2.048-3.016c0.169-0.684,0.132-1.294-0.104-1.827c-0.239-0.532-1.168-1.469-2.782-2.812L53.918,87.595
					c-1.616-1.342-2.718-2.093-3.309-2.25c-0.592-0.157-1.228-0.101-1.909,0.169c-0.682,0.274-1.616,1.064-2.799,2.374l-0.814-0.679
					l12.405-13.737c2.965-3.281,5.37-5.354,7.214-6.212c1.843-0.86,3.728-1.182,5.653-0.964c1.923,0.218,3.567,0.895,4.934,2.03
					c1.439,1.198,2.267,2.762,2.487,4.697C77.999,74.956,77.301,77.459,75.686,80.531z M69.861,89.157l9.582,7.966l1.082,0.936
					c0.793,0.659,1.566,0.963,2.321,0.91c0.753-0.051,1.472-0.457,2.16-1.218c1.018-1.128,1.697-2.384,2.033-3.768
					c0.338-1.384,0.238-2.741-0.293-4.073c-0.534-1.332-1.41-2.503-2.629-3.516c-1.394-1.161-2.927-1.889-4.596-2.192
					c-1.668-0.303-3.213-0.094-4.631,0.625C73.468,85.546,71.792,86.989,69.861,89.157z M68.142,87.729
					c1.807-2.001,2.905-3.672,3.293-5.013c0.39-1.343,0.389-2.622-0.005-3.837c-0.394-1.215-1.25-2.372-2.573-3.472
					c-1.322-1.099-2.63-1.747-3.929-1.95c-1.294-0.2-2.581-0.02-3.861,0.543c-1.282,0.563-2.843,1.881-4.687,3.948L68.142,87.729z"
					/>
				<path class="st13" d="M87.206,48.321l10.052,12.05l0.616-0.471c1.956-1.503,2.884-3.181,2.78-5.036
					c-0.104-1.854-0.992-4.024-2.669-6.51l0.864-0.663l12.931,15.499l-0.864,0.664c-1.59-1.548-3.13-2.636-4.609-3.266
					c-1.482-0.629-2.767-0.83-3.849-0.608c-1.085,0.225-2.362,0.901-3.833,2.03l6.957,8.34c1.361,1.629,2.262,2.571,2.713,2.824
					c0.447,0.253,0.964,0.345,1.555,0.275c0.586-0.069,1.321-0.441,2.202-1.118l1.843-1.414c2.881-2.213,4.658-4.626,5.327-7.243
					c0.669-2.613,0.289-5.521-1.138-8.725l0.843-0.647l6.46,10.477L98.716,85.253l-0.674-0.807l1.024-0.787
					c0.894-0.686,1.489-1.391,1.779-2.117c0.225-0.507,0.236-1.089,0.037-1.747c-0.125-0.476-0.808-1.457-2.044-2.942L82.591,57.379
					c-1.118-1.338-1.84-2.132-2.17-2.381c-0.576-0.393-1.185-0.569-1.825-0.532c-0.917,0.034-1.878,0.438-2.877,1.206l-1.025,0.788
					L74.02,55.65L99.848,35.82l7.303,8.755l-0.865,0.663c-2.224-1.8-4.122-2.863-5.696-3.183c-1.573-0.319-3.272-0.139-5.092,0.543
					c-1.069,0.39-2.771,1.482-5.105,3.277L87.206,48.321z"/>
				<path class="st13" d="M142.384,27.759c2.119-1.017,4.366-1.442,6.737-1.267c2.373,0.174,4.537,0.999,6.493,2.478
					c1.958,1.478,3.535,3.366,4.736,5.667c1.732,3.317,2.305,6.514,1.714,9.591c-0.71,3.72-2.933,6.477-6.667,8.27
					c-3.666,1.761-7.133,1.884-10.401,0.369c-3.269-1.515-5.752-3.896-7.449-7.146c-1.749-3.352-2.261-6.757-1.539-10.223
					C136.731,32.032,138.858,29.453,142.384,27.759z M143.414,29.484c-0.884,0.425-1.478,1.112-1.777,2.057
					c-0.298,0.948-0.053,2.413,0.732,4.402c0.788,1.988,2.063,4.666,3.819,8.032c0.933,1.785,1.924,3.392,2.976,4.825
					c0.81,1.092,1.687,1.796,2.634,2.111c0.947,0.316,1.821,0.284,2.621-0.101c0.783-0.376,1.323-0.898,1.626-1.564
					c0.384-0.892,0.421-1.901,0.117-3.026c-0.48-1.751-1.978-5.036-4.492-9.853c-1.479-2.833-2.66-4.7-3.544-5.598
					c-0.881-0.901-1.769-1.438-2.666-1.612C144.828,29.023,144.143,29.134,143.414,29.484z"/>
				<path class="st13" d="M174.241,21.642l3.95,17.748c0.383,1.712,0.811,2.75,1.289,3.108c0.76,0.552,1.95,0.631,3.572,0.242
					l0.218,0.983l-15.703,3.22l-0.222-0.985c1.193-0.262,2.013-0.57,2.463-0.918c0.451-0.352,0.721-0.765,0.814-1.241
					c0.091-0.477-0.015-1.407-0.324-2.793l-3.954-17.747l-3.877,0.796l-0.595-2.68l3.876-0.795l-0.421-1.887l-0.314-1.279
					c-0.585-2.625-0.069-5.017,1.546-7.179c1.613-2.16,4.133-3.592,7.552-4.293c2.336-0.478,4.164-0.415,5.482,0.192
					c1.319,0.606,2.09,1.42,2.317,2.442c0.182,0.821-0.01,1.603-0.579,2.348c-0.568,0.747-1.435,1.238-2.592,1.475
					c-0.99,0.203-1.828,0.117-2.518-0.256c-0.69-0.373-1.102-0.86-1.234-1.462c-0.037-0.165-0.054-0.513-0.053-1.047
					c0.008-0.326-0.02-0.624-0.081-0.899c-0.085-0.381-0.262-0.641-0.532-0.776c-0.364-0.212-0.765-0.272-1.203-0.183
					c-0.549,0.114-0.96,0.426-1.237,0.941c-0.272,0.513-0.3,1.253-0.085,2.219l1.121,4.774l0.726,3.254l3.935-0.806l0.595,2.678
					L174.241,21.642z"/>
				<path class="st13" d="M224.194,24.999L234.746,0h15.826v1.034h-1.262c-1.147,0-2.063,0.196-2.752,0.588
					c-0.479,0.26-0.864,0.699-1.148,1.314c-0.211,0.447-0.316,1.612-0.316,3.496V31.43c0,1.937,0.105,3.15,0.316,3.635
					c0.207,0.485,0.64,0.908,1.291,1.271c0.647,0.364,1.52,0.547,2.609,0.547h1.262v1.034h-20.298v-1.034h1.262
					c1.146,0,2.063-0.197,2.752-0.588c0.475-0.261,0.86-0.708,1.145-1.341c0.21-0.449,0.316-1.623,0.316-3.524V3.327l-14.909,34.59
					h-0.688L205.015,3.579v26.704c0,1.865,0.049,3.01,0.143,3.438c0.25,0.933,0.789,1.693,1.623,2.28
					c0.829,0.586,2.132,0.881,3.911,0.881v1.034h-13.303v-1.034h0.401c0.861,0.019,1.662-0.117,2.409-0.407
					c0.745-0.288,1.31-0.676,1.692-1.16c0.381-0.485,0.679-1.167,0.888-2.042c0.038-0.205,0.057-1.156,0.057-2.851V6.432
					c0-1.92-0.104-3.12-0.314-3.594c-0.209-0.476-0.639-0.894-1.29-1.258c-0.65-0.364-1.52-0.546-2.61-0.546h-1.231V0h15.882
					L224.194,24.999z"/>
				<path class="st13" d="M271.471,40.44l-0.184,1.019l-20.359-3.403l0.185-1.019l1.294,0.216c1.13,0.189,2.07,0.147,2.831-0.122
					c0.545-0.175,1.008-0.551,1.389-1.131c0.291-0.405,0.607-1.545,0.947-3.418l4.463-24.572c0.347-1.909,0.457-3.121,0.333-3.633
					c-0.123-0.515-0.472-1.003-1.049-1.469c-0.574-0.463-1.409-0.789-2.5-0.97l-1.292-0.217l0.185-1.019l20.358,3.404l-0.186,1.019
					l-1.293-0.217c-1.13-0.188-2.074-0.146-2.833,0.123c-0.542,0.174-1.015,0.548-1.416,1.124c-0.292,0.407-0.608,1.546-0.946,3.42
					l-4.463,24.571c-0.347,1.911-0.454,3.122-0.32,3.638c0.131,0.513,0.488,1.003,1.063,1.468c0.576,0.465,1.412,0.789,2.497,0.972
					L271.471,40.44z"/>
				<path class="st13" d="M319.076,15.752l-3.819,12.62l-1.094-0.302c0.177-3.524-0.59-6.475-2.298-8.853
					c-1.705-2.378-3.979-3.963-6.817-4.754c-2.368-0.66-4.741-0.613-7.113,0.145c-2.373,0.755-4.337,2.061-5.892,3.919
					c-1.991,2.377-3.49,5.221-4.492,8.533c-0.987,3.257-1.459,6.345-1.408,9.259c0.048,2.917,0.78,5.313,2.195,7.192
					c1.411,1.88,3.574,3.224,6.487,4.035c2.387,0.666,4.727,0.775,7.019,0.325c2.287-0.449,4.905-1.594,7.85-3.432l-0.95,3.142
					c-2.771,1.538-5.455,2.464-8.05,2.78c-2.594,0.314-5.431,0.044-8.509-0.813c-4.049-1.128-7.412-2.908-10.084-5.342
					c-2.67-2.432-4.421-5.347-5.245-8.74c-0.822-3.394-0.738-6.738,0.26-10.031c1.052-3.475,2.994-6.504,5.832-9.09
					c2.836-2.588,6.125-4.293,9.864-5.115c3.739-0.821,7.418-0.728,11.038,0.281c2.667,0.743,5.318,2.083,7.949,4.02
					c1.521,1.123,2.514,1.748,2.981,1.879c0.597,0.166,1.178,0.1,1.745-0.198c0.564-0.299,1.051-0.886,1.458-1.764L319.076,15.752z"
					/>
				<path class="st13" d="M366.509,45.714c5.232,3.371,8.286,7.681,9.168,12.932c0.886,5.249-0.397,10.153-3.849,14.705
					c-2.948,3.89-6.73,6.483-11.343,7.782c-6.116,1.726-12.037,0.589-17.774-3.413c-5.751-4.015-8.782-8.987-9.088-14.919
					c-0.244-4.687,1.176-9.058,4.247-13.112c3.452-4.553,7.944-7.223,13.478-8.006C356.878,40.898,361.933,42.242,366.509,45.714z
					 M365.695,47.356c-2.92-2.039-6.229-2.159-9.925-0.358c-3.027,1.485-6.207,4.428-9.546,8.83
					c-3.968,5.232-5.939,9.767-5.919,13.608c0.009,2.68,1.218,4.859,3.622,6.537c1.616,1.13,3.256,1.697,4.909,1.7
					c2.115,0,4.359-0.789,6.734-2.371c2.377-1.581,4.857-4.075,7.44-7.481c3.074-4.056,4.979-7.364,5.722-9.926
					c0.742-2.56,0.816-4.679,0.229-6.358C368.369,49.857,367.281,48.464,365.695,47.356z"/>
				<path class="st13" d="M420.341,101.827l-10.28,7.37l-0.69-0.934c2.295-2.226,3.605-4.746,3.926-7.558
					c0.323-2.813-0.256-5.224-1.738-7.231c-1.148-1.55-2.478-2.49-3.987-2.825c-1.512-0.331-2.814-0.124-3.908,0.621
					c-0.695,0.472-1.193,1.052-1.498,1.739c-0.4,0.934-0.596,2.13-0.587,3.585c0.019,1.062,0.334,3.326,0.95,6.793
					c0.869,4.849,0.968,8.449,0.297,10.804c-0.685,2.338-2.06,4.21-4.128,5.618c-2.626,1.785-5.626,2.314-9.009,1.585
					c-3.378-0.728-6.214-2.644-8.507-5.745c-0.719-0.973-1.299-1.962-1.737-2.964c-0.443-1.003-0.869-2.348-1.278-4.033
					c-0.23-0.94-0.52-1.646-0.869-2.118c-0.293-0.396-0.756-0.708-1.392-0.94c-0.633-0.23-1.369-0.267-2.204-0.11l-0.625-0.844
					l11.855-8.066l0.624,0.845c-2.84,2.937-4.431,5.957-4.77,9.056c-0.343,3.101,0.303,5.752,1.93,7.958
					c1.259,1.702,2.735,2.74,4.423,3.109c1.689,0.372,3.159,0.131,4.411-0.718c0.74-0.504,1.314-1.187,1.723-2.049
					c0.406-0.859,0.631-1.896,0.672-3.114c0.039-1.216-0.18-3.168-0.659-5.859c-0.674-3.768-0.975-6.604-0.895-8.507
					c0.077-1.905,0.479-3.603,1.209-5.092c0.732-1.49,1.831-2.735,3.296-3.733c2.5-1.7,5.301-2.245,8.396-1.633
					c3.1,0.612,5.664,2.294,7.699,5.047c0.743,1.003,1.337,2.06,1.787,3.17c0.344,0.842,0.643,1.946,0.9,3.313
					c0.257,1.369,0.537,2.256,0.841,2.668c0.292,0.394,0.647,0.624,1.063,0.683c0.414,0.058,1.165-0.132,2.254-0.576
					L420.341,101.827z"/>
				<path class="st13" d="M410.935,141.851l-5.63-12.259l-4.188,0.031c-1.393,0.018-2.473,0.189-3.235,0.51
					c-1.014,0.428-1.582,1.137-1.702,2.124c-0.07,0.582,0.236,1.806,0.925,3.675l-0.989,0.418l-5.298-11.542l0.987-0.417
					c0.77,1.163,1.775,1.959,3.024,2.389c1.248,0.43,3.52,0.651,6.816,0.664l34.557,0.217l0.226,0.486l-23.918,25.046
					c-2.26,2.379-3.582,4.109-3.959,5.186c-0.283,0.813-0.229,1.767,0.17,2.862l-0.985,0.416l-7.707-16.788l0.985-0.415l0.316,0.692
					c0.619,1.346,1.249,2.209,1.892,2.591c0.455,0.255,0.951,0.27,1.486,0.045c0.319-0.135,0.625-0.326,0.915-0.571
					c0.146-0.102,0.694-0.64,1.648-1.613L410.935,141.851z M412.508,140.148l10.083-10.433l-14.899-0.061L412.508,140.148z"/>
				<path class="st13" d="M454.452,186.036l-1.049,0.238c-0.472-1.177-1.066-2.028-1.797-2.554
					c-1.016-0.728-3.536-1.669-7.554-2.828l-15.894-4.851l-9.304,2.105c-1.986,0.449-3.196,0.829-3.631,1.139
					c-0.433,0.309-0.761,0.799-0.983,1.473c-0.225,0.671-0.214,1.498,0.025,2.478l0.511,2.068l-1.052,0.238l-5.094-20.712
					l1.051-0.237l0.476,1.934c0.269,1.087,0.678,1.905,1.232,2.452c0.379,0.41,0.924,0.68,1.635,0.808
					c0.504,0.096,1.72-0.072,3.646-0.511l7.717-1.747l14.346-12.412c2.83-2.458,4.445-4.108,4.848-4.947
					c0.403-0.837,0.468-1.847,0.199-3.032l1.048-0.238l4.35,17.69l-1.05,0.237l-0.193-0.789c-0.263-1.072-0.609-1.782-1.036-2.136
					c-0.425-0.354-0.817-0.491-1.177-0.411c-0.678,0.154-2.214,1.269-4.598,3.34l-11.097,9.552l13.232,4.014
					c3.242,1.01,5.326,1.409,6.255,1.199c0.509-0.116,0.877-0.448,1.102-0.995c0.321-0.725,0.327-1.922,0.014-3.596l1.052-0.237
					L454.452,186.036z"/>
			</g>
			<g>
				<path class="st13" d="M24.87,271.685l-8.543,1.979c-1.412,0.326-2.278,0.608-2.594,0.839c-0.317,0.236-0.552,0.604-0.712,1.105
					c-0.158,0.504-0.146,1.132,0.036,1.883l0.213,0.891l-0.754,0.178l-3.372-14.034l0.755-0.176l0.214,0.892
					c0.187,0.778,0.479,1.373,0.878,1.781c0.271,0.298,0.66,0.488,1.165,0.565c0.362,0.068,1.232-0.055,2.618-0.377l18.152-4.206
					c1.411-0.326,2.273-0.602,2.592-0.828c0.318-0.228,0.556-0.594,0.714-1.097c0.158-0.504,0.146-1.132-0.034-1.884l-0.215-0.89
					l0.755-0.176l3.371,14.031l-0.756,0.177l-0.211-0.895c-0.188-0.773-0.479-1.367-0.881-1.781
					c-0.272-0.297-0.662-0.493-1.171-0.583c-0.361-0.068-1.233,0.057-2.616,0.377l-7.813,1.81l2.276,9.479l7.814-1.811
					c1.412-0.327,2.274-0.603,2.592-0.83c0.318-0.226,0.555-0.594,0.713-1.104c0.157-0.509,0.145-1.142-0.038-1.892l-0.207-0.874
					l0.752-0.175l3.367,14.015l-0.754,0.175l-0.209-0.873c-0.192-0.792-0.483-1.385-0.878-1.779c-0.274-0.3-0.665-0.495-1.172-0.587
					c-0.362-0.068-1.233,0.057-2.616,0.377l-18.153,4.204c-1.41,0.326-2.275,0.604-2.594,0.832
					c-0.317,0.228-0.554,0.596-0.712,1.105c-0.156,0.51-0.142,1.142,0.037,1.893l0.212,0.871l-0.754,0.175l-3.368-14.014
					l0.755-0.174l0.21,0.874c0.189,0.79,0.483,1.383,0.877,1.78c0.272,0.299,0.665,0.494,1.173,0.585
					c0.36,0.07,1.233-0.056,2.618-0.376l8.546-1.979L24.87,271.685z"/>
				<path class="st13" d="M20.643,294.362c0.976,0,1.802,0.331,2.477,0.994c0.673,0.665,1.014,1.468,1.014,2.397
					c0,0.941-0.342,1.736-1.026,2.393c-0.68,0.658-1.505,0.986-2.466,0.986c-0.96,0-1.779-0.328-2.456-0.986
					c-0.675-0.657-1.012-1.452-1.012-2.393c0-0.93,0.337-1.732,1.012-2.397C18.864,294.693,19.683,294.362,20.643,294.362z"/>
				<path class="st13" d="M38.529,316.203l-7.34,2.956c-1.417,0.57-2.271,1.011-2.566,1.33c-0.296,0.316-0.462,0.732-0.5,1.245
					c-0.039,0.513,0.192,1.355,0.685,2.52l-0.714,0.285l-5.546-13.042l0.715-0.287c0.5,1.177,0.954,1.928,1.355,2.261
					c0.404,0.328,0.822,0.505,1.257,0.527c0.431,0.025,1.356-0.248,2.773-0.818l16.994-6.845c1.417-0.567,2.272-1.011,2.57-1.328
					c0.294-0.318,0.458-0.733,0.5-1.248c0.036-0.514-0.194-1.352-0.687-2.517l0.713-0.288l5.034,11.837
					c1.31,3.086,2.051,5.429,2.221,7.033c0.167,1.604-0.144,3.094-0.939,4.471c-0.793,1.379-1.983,2.384-3.567,3.02
					c-1.932,0.778-3.816,0.745-5.654-0.1c-1.166-0.542-2.277-1.512-3.337-2.902l-6.259,9.695c-0.806,1.262-1.279,2.121-1.417,2.574
					c-0.182,0.673-0.147,1.357,0.103,2.05l-0.715,0.29l-3.412-8.025l8.443-13.021L38.529,316.203z M51.371,311.031L39.9,315.649
					l0.455,1.071c0.742,1.741,1.46,2.98,2.154,3.711c0.696,0.734,1.58,1.176,2.645,1.324c1.067,0.148,2.29-0.051,3.666-0.605
					c1.996-0.805,3.278-1.854,3.844-3.145c0.567-1.291,0.421-2.949-0.435-4.966L51.371,311.031z"/>
				<path class="st13" d="M67.633,336.468c2.779,3.47,3.857,7.113,3.239,10.934c-0.62,3.822-2.636,6.928-6.048,9.327
					c-2.914,2.051-6.092,3.023-9.541,2.919c-4.569-0.137-8.34-2.208-11.318-6.224c-2.985-4.025-3.892-8.119-2.722-12.287
					c0.925-3.292,2.908-6.007,5.947-8.143c3.412-2.398,7.093-3.265,11.047-2.605C62.19,331.046,65.321,333.074,67.633,336.468z
					 M66.695,337.43c-1.517-2.046-3.743-2.85-6.681-2.404c-2.407,0.366-5.26,1.712-8.558,4.029c-3.92,2.755-6.322,5.462-7.201,8.122
					c-0.617,1.854-0.302,3.62,0.945,5.305c0.84,1.13,1.823,1.877,2.951,2.24c1.441,0.459,3.155,0.402,5.144-0.175
					c1.985-0.579,4.257-1.761,6.809-3.555c3.04-2.138,5.11-4.008,6.208-5.617c1.103-1.61,1.646-3.058,1.636-4.347
					C67.937,339.738,67.52,338.539,66.695,337.43z"/>
				<path class="st13" d="M81.405,357.227l-8.678,7.4l0.372,0.413c1.185,1.313,2.469,1.903,3.849,1.772
					c1.383-0.13,2.975-0.824,4.776-2.073l0.525,0.584l-11.162,9.517l-0.522-0.579c1.103-1.162,1.869-2.27,2.29-3.323
					c0.424-1.053,0.532-1.95,0.333-2.703c-0.203-0.747-0.749-1.614-1.638-2.602l-6.007,5.121c-1.173,0.999-1.847,1.659-2.023,1.979
					c-0.174,0.318-0.226,0.685-0.153,1.095c0.068,0.405,0.373,0.906,0.904,1.498l1.115,1.236c1.744,1.942,3.604,3.1,5.578,3.483
					c1.974,0.38,4.134,0.019,6.479-1.08l0.509,0.568l-7.616,4.842l-16.144-17.925l0.584-0.498l0.62,0.688
					c0.541,0.603,1.088,0.992,1.638,1.172c0.386,0.139,0.82,0.127,1.306-0.03c0.351-0.104,1.062-0.609,2.13-1.522l14.022-11.957
					c0.963-0.823,1.532-1.352,1.709-1.592c0.274-0.415,0.387-0.845,0.338-1.291c-0.057-0.638-0.387-1.289-0.993-1.966l-0.62-0.685
					l0.582-0.498l15.635,17.363l-6.304,5.375l-0.523-0.583c1.274-1.605,2.006-2.965,2.194-4.074c0.188-1.105,0-2.284-0.57-3.53
					c-0.324-0.731-1.192-1.884-2.607-3.455L81.405,357.227z"/>
				<path class="st13" d="M102.486,392.928c1.676,2.137,2.652,3.875,2.923,5.217c0.398,1.919-0.047,3.639-1.329,5.155
					c-1.357,1.603-3.139,2.394-5.346,2.383c-2.698-0.037-5.594-1.294-8.692-3.778l-11.115-8.912l0.492-0.578
					c1.011,0.806,1.774,1.267,2.29,1.375c0.513,0.102,0.969,0.066,1.362-0.11c0.394-0.176,1.078-0.839,2.053-1.991l11.693-13.814
					c0.974-1.151,1.516-1.938,1.621-2.351c0.109-0.415,0.054-0.857-0.161-1.326c-0.214-0.477-0.823-1.109-1.823-1.911l0.494-0.583
					l10.486,8.407c2.505,2.009,4.096,3.649,4.771,4.918c0.676,1.273,0.949,2.58,0.821,3.926c-0.129,1.348-0.605,2.506-1.428,3.48
					c-0.869,1.025-2.024,1.633-3.464,1.822C106.691,394.445,104.809,394.002,102.486,392.928z M95.935,389.024l-5.782,6.831
					l-0.68,0.769c-0.477,0.567-0.692,1.113-0.639,1.639c0.052,0.524,0.367,1.02,0.948,1.485c0.861,0.69,1.811,1.14,2.853,1.35
					c1.039,0.206,2.053,0.117,3.039-0.28c0.986-0.395,1.846-1.028,2.581-1.896c0.841-0.993,1.36-2.079,1.554-3.247
					c0.195-1.171,0.013-2.245-0.549-3.223C98.7,391.475,97.588,390.332,95.935,389.024z M96.968,387.8
					c1.53,1.222,2.798,1.958,3.808,2.204c1.007,0.25,1.965,0.225,2.866-0.074c0.9-0.296,1.75-0.916,2.546-1.855
					c0.797-0.943,1.26-1.871,1.386-2.776c0.129-0.909-0.028-1.801-0.474-2.688c-0.445-0.88-1.457-1.944-3.035-3.193L96.968,387.8z"
					/>
				<path class="st13" d="M119.676,412.208l-8.723-4.778l-2.393,1.77c-0.791,0.598-1.334,1.146-1.628,1.653
					c-0.39,0.675-0.398,1.322-0.023,1.946c0.219,0.371,0.944,0.954,2.177,1.754l-0.38,0.655l-8.214-4.498l0.38-0.655
					c0.96,0.357,1.896,0.396,2.807,0.123c0.907-0.272,2.311-1.093,4.206-2.466l19.927-14.339l0.347,0.187l-2.495,24.593
					c-0.228,2.331-0.21,3.889,0.055,4.673c0.2,0.593,0.661,1.122,1.381,1.594l-0.38,0.659l-11.949-6.547l0.38-0.657l0.492,0.272
					c0.959,0.524,1.706,0.763,2.247,0.718c0.376-0.043,0.668-0.243,0.872-0.601c0.123-0.209,0.213-0.45,0.27-0.712
					c0.038-0.119,0.112-0.663,0.223-1.632L119.676,412.208z M119.815,410.557l1.108-10.29l-8.576,6.203L119.815,410.557z"/>
				<path class="st13" d="M142.178,418.373l-3.1,7.114c-0.6,1.375-0.892,2.272-0.871,2.7c0.016,0.429,0.198,0.84,0.541,1.229
					c0.346,0.393,1.114,0.832,2.306,1.328l-0.302,0.692l-13.352-5.511l0.3-0.694c1.208,0.497,2.071,0.726,2.597,0.687
					c0.524-0.041,0.95-0.201,1.275-0.479c0.324-0.28,0.787-1.103,1.387-2.479l7.182-16.478c0.598-1.373,0.888-2.271,0.871-2.699
					c-0.019-0.429-0.2-0.838-0.543-1.23c-0.345-0.392-1.113-0.835-2.305-1.326l0.3-0.692l12.123,5.003
					c3.156,1.303,5.373,2.466,6.649,3.494c1.278,1.028,2.128,2.303,2.556,3.829c0.427,1.524,0.303,3.051-0.365,4.587
					c-0.816,1.873-2.185,3.135-4.102,3.788c-1.224,0.406-2.715,0.479-4.475,0.208l2.527,11.184c0.337,1.45,0.619,2.385,0.848,2.801
					c0.355,0.605,0.872,1.068,1.55,1.391l-0.303,0.692l-8.217-3.39l-3.364-15.043L142.178,418.373z M147.606,405.919l-4.848,11.122
					l1.096,0.454c1.782,0.735,3.187,1.128,4.212,1.178c1.023,0.045,1.969-0.243,2.838-0.863c0.868-0.622,1.594-1.6,2.175-2.938
					c0.844-1.933,1.002-3.557,0.476-4.865c-0.528-1.306-1.826-2.386-3.89-3.238L147.606,405.919z"/>
				<path class="st13" d="M187.617,417.413l-2.245,7.141l-0.719-0.215c0.091-1.772-0.01-3.097-0.303-3.971
					c-0.293-0.874-0.827-1.662-1.597-2.358c-0.433-0.388-1.283-0.768-2.548-1.145l-2.018-0.599l-6.398,20.344
					c-0.424,1.348-0.613,2.214-0.563,2.598c0.045,0.383,0.252,0.765,0.618,1.152c0.368,0.385,0.938,0.692,1.712,0.923l0.899,0.268
					l-0.227,0.72l-14.189-4.227l0.225-0.717l0.899,0.267c0.786,0.233,1.462,0.286,2.026,0.155c0.403-0.078,0.774-0.308,1.114-0.689
					c0.244-0.267,0.574-1.061,0.991-2.384l6.396-20.347l-1.958-0.583c-1.827-0.546-3.269-0.564-4.333-0.056
					c-1.489,0.706-2.693,1.982-3.61,3.839l-0.762-0.228l2.247-7.137L187.617,417.413z"/>
				<path class="st13" d="M209.202,438.251l-2.486,9.435l-24.902-3.525l0.112-0.745l0.93,0.131c0.814,0.116,1.49,0.066,2.028-0.145
					c0.386-0.135,0.71-0.42,0.973-0.847c0.197-0.3,0.4-1.137,0.605-2.506l2.682-17.953c0.208-1.396,0.263-2.275,0.162-2.648
					c-0.099-0.368-0.356-0.72-0.782-1.049c-0.424-0.326-1.027-0.548-1.813-0.657l-0.93-0.133l0.111-0.743l14.951,2.116l-0.107,0.745
					l-1.223-0.172c-0.813-0.113-1.487-0.066-2.027,0.145c-0.385,0.141-0.716,0.421-0.993,0.847
					c-0.201,0.302-0.403,1.137-0.606,2.502l-2.6,17.391c-0.207,1.398-0.259,2.3-0.151,2.703c0.111,0.408,0.391,0.737,0.844,0.993
					c0.327,0.17,1.153,0.347,2.474,0.534l2.339,0.333c1.488,0.211,2.766,0.131,3.837-0.241c1.07-0.363,2.048-1.048,2.936-2.048
					c0.887-0.997,1.817-2.525,2.786-4.581L209.202,438.251z"/>
				<path class="st13" d="M220.927,421.651v11.228h0.564c1.799,0,3.1-0.549,3.909-1.648c0.807-1.097,1.322-2.717,1.545-4.86h0.796
					v14.444h-0.796c-0.167-1.574-0.517-2.861-1.052-3.869c-0.539-1.001-1.161-1.678-1.873-2.021c-0.71-0.35-1.741-0.52-3.093-0.52
					v7.772c0,1.517,0.066,2.442,0.197,2.785c0.133,0.336,0.381,0.614,0.745,0.832c0.361,0.219,0.946,0.326,1.754,0.326h1.692
					c2.649,0,4.77-0.597,6.366-1.787c1.595-1.195,2.741-3.013,3.437-5.456h0.775l-1.276,8.77h-24.495v-0.754h0.942
					c0.821,0,1.482-0.143,1.984-0.428c0.362-0.189,0.642-0.514,0.836-0.975c0.155-0.324,0.23-1.18,0.23-2.565v-18.143
					c0-1.248-0.035-2.013-0.105-2.299c-0.139-0.475-0.398-0.842-0.773-1.099c-0.53-0.38-1.255-0.567-2.173-0.567h-0.942v-0.755
					h23.723v8.157h-0.795c-0.401-1.993-0.97-3.422-1.702-4.291c-0.732-0.868-1.768-1.504-3.105-1.912
					c-0.78-0.243-2.242-0.367-4.388-0.367H220.927z"/>
				<path class="st13" d="M255.046,434.23l1.178,7.645c0.226,1.477,0.463,2.39,0.707,2.745c0.244,0.354,0.618,0.611,1.123,0.775
					c0.506,0.156,1.397,0.146,2.679-0.041l0.112,0.747l-14.342,2.083l-0.113-0.747c1.292-0.189,2.152-0.432,2.581-0.733
					c0.422-0.303,0.701-0.657,0.826-1.056c0.13-0.402,0.083-1.345-0.146-2.817l-2.728-17.703c-0.228-1.476-0.464-2.392-0.71-2.748
					c-0.243-0.355-0.62-0.61-1.121-0.772c-0.504-0.158-1.4-0.145-2.68,0.042l-0.114-0.748l13.022-1.89
					c3.39-0.493,5.903-0.626,7.545-0.399c1.641,0.233,3.053,0.885,4.235,1.968c1.184,1.081,1.898,2.451,2.155,4.099
					c0.308,2.013-0.178,3.784-1.465,5.314c-0.823,0.969-2.058,1.783-3.703,2.45l8.163,8.254c1.064,1.068,1.808,1.722,2.225,1.962
					c0.628,0.335,1.32,0.468,2.07,0.397l0.113,0.745l-8.827,1.283l-10.946-11.122L255.046,434.23z M252.985,420.852l1.841,11.948
					l1.176-0.172c1.917-0.275,3.323-0.657,4.222-1.135c0.896-0.48,1.548-1.209,1.958-2.179c0.405-0.97,0.499-2.173,0.276-3.608
					c-0.318-2.08-1.056-3.542-2.209-4.39c-1.151-0.845-2.834-1.108-5.052-0.786L252.985,420.852z"/>
				<path class="st13" d="M281.507,414.814l3.416,10.728l0.539-0.164c1.718-0.515,2.795-1.413,3.232-2.695
					c0.436-1.281,0.436-2.978-0.001-5.09l0.758-0.229l4.396,13.801l-0.761,0.227c-0.636-1.454-1.362-2.588-2.181-3.388
					c-0.819-0.807-1.621-1.271-2.404-1.399c-0.783-0.125-1.822,0.004-3.112,0.394l2.362,7.421c0.466,1.453,0.81,2.321,1.039,2.607
					c0.229,0.288,0.551,0.478,0.962,0.584c0.413,0.104,1.006,0.039,1.778-0.195l1.614-0.483c2.529-0.759,4.375-1.938,5.533-3.537
					c1.163-1.597,1.701-3.662,1.627-6.195l0.738-0.224l1.448,8.744l-23.393,7.031l-0.229-0.718l0.897-0.271
					c0.784-0.235,1.375-0.561,1.767-0.977c0.288-0.285,0.454-0.677,0.499-1.176c0.052-0.353-0.137-1.192-0.557-2.517l-5.522-17.334
					c-0.38-1.191-0.647-1.915-0.801-2.165c-0.276-0.417-0.634-0.69-1.071-0.829c-0.622-0.212-1.371-0.183-2.249,0.08l-0.898,0.27
					l-0.231-0.72l22.658-6.807l2.483,7.793l-0.761,0.227c-0.99-1.786-1.968-2.991-2.932-3.611c-0.963-0.619-2.144-0.93-3.545-0.936
					c-0.821-0.008-2.256,0.295-4.306,0.91L281.507,414.814z"/>
				<path class="st13" d="M312.059,400.52l4.109,8.279l-0.78,0.347c-1.347-1.941-3.039-3.23-5.073-3.872
					c-2.037-0.642-3.893-0.595-5.567,0.146c-1.295,0.572-2.162,1.361-2.604,2.367c-0.441,1.007-0.457,1.948-0.049,2.821
					c0.26,0.56,0.623,0.992,1.091,1.309c0.641,0.417,1.496,0.731,2.575,0.943c0.785,0.141,2.499,0.258,5.14,0.342
					c3.692,0.111,6.366,0.577,8.017,1.396c1.641,0.826,2.846,2.064,3.614,3.723c0.978,2.1,0.98,4.275,0.004,6.531
					c-0.976,2.255-2.758,3.951-5.346,5.095c-0.815,0.358-1.619,0.616-2.418,0.775c-0.798,0.159-1.846,0.257-3.145,0.293
					c-0.725,0.022-1.282,0.121-1.676,0.293c-0.33,0.146-0.621,0.425-0.875,0.831c-0.253,0.411-0.374,0.92-0.368,1.526l-0.704,0.313
					l-4.419-9.484l0.703-0.311c1.8,2.419,3.824,3.982,6.072,4.678c2.245,0.7,4.287,0.642,6.129-0.169
					c1.42-0.626,2.377-1.503,2.868-2.629c0.496-1.126,0.509-2.191,0.041-3.188c-0.274-0.594-0.705-1.096-1.289-1.51
					c-0.581-0.411-1.318-0.721-2.212-0.932c-0.891-0.209-2.364-0.346-4.411-0.41c-2.872-0.087-5.008-0.298-6.404-0.634
					c-1.396-0.337-2.597-0.873-3.602-1.605c-1.009-0.733-1.786-1.685-2.331-2.857c-0.932-2.003-0.972-4.043-0.117-6.114
					c0.853-2.075,2.431-3.616,4.725-4.632c0.839-0.369,1.697-0.63,2.576-0.778c0.665-0.116,1.521-0.163,2.564-0.138
					c1.044,0.025,1.736-0.04,2.08-0.192c0.332-0.143,0.543-0.356,0.642-0.642c0.098-0.28,0.054-0.836-0.13-1.661L312.059,400.52z"/>
				<path class="st13" d="M322.688,397.081l6.477,9.295l0.468-0.31c1.484-0.982,2.246-2.148,2.281-3.497
					c0.035-1.35-0.471-2.976-1.522-4.871l0.66-0.432l8.324,11.952l-0.656,0.435c-1.047-1.21-2.078-2.085-3.103-2.622
					c-1.023-0.538-1.927-0.754-2.714-0.653c-0.789,0.102-1.741,0.522-2.862,1.259l4.483,6.432c0.874,1.259,1.465,1.989,1.771,2.198
					c0.304,0.207,0.668,0.303,1.095,0.283c0.425-0.018,0.971-0.246,1.639-0.687l1.402-0.927c2.189-1.443,3.601-3.099,4.235-4.955
					c0.633-1.861,0.531-3.99-0.297-6.392l0.639-0.422l3.999,7.952l-20.274,13.379l-0.432-0.628l0.777-0.51
					c0.679-0.446,1.146-0.928,1.398-1.439c0.191-0.355,0.231-0.774,0.127-1.264c-0.058-0.352-0.489-1.102-1.287-2.245l-10.463-15.02
					c-0.717-1.032-1.189-1.647-1.411-1.845c-0.39-0.316-0.814-0.479-1.273-0.486c-0.656-0.022-1.366,0.211-2.128,0.716l-0.778,0.512
					l-0.434-0.624l19.636-12.955l4.703,6.753l-0.657,0.433c-1.485-1.428-2.781-2.303-3.886-2.621
					c-1.105-0.319-2.328-0.28-3.67,0.114c-0.788,0.224-2.07,0.92-3.845,2.092L322.688,397.081z"/>
				<path class="st13" d="M352.997,393.574l4.997,6.007c0.962,1.16,1.643,1.833,2.039,2.019c0.397,0.189,0.853,0.222,1.369,0.112
					c0.517-0.112,1.281-0.565,2.287-1.36l0.487,0.587l-11.273,8.882l-0.487-0.587c1.018-0.801,1.631-1.437,1.84-1.905
					c0.213-0.469,0.268-0.912,0.169-1.32c-0.102-0.41-0.634-1.198-1.597-2.354l-11.574-13.916c-0.964-1.156-1.646-1.829-2.04-2.017
					c-0.395-0.189-0.851-0.221-1.371-0.112c-0.515,0.112-1.277,0.565-2.285,1.357l-0.486-0.582l10.232-8.064
					c2.667-2.1,4.766-3.457,6.297-4.069c1.535-0.614,3.089-0.747,4.672-0.396c1.583,0.349,2.913,1.173,3.991,2.468
					c1.314,1.583,1.817,3.349,1.507,5.303c-0.203,1.245-0.841,2.558-1.913,3.941l11.332,3.085c1.472,0.394,2.453,0.591,2.94,0.591
					c0.715-0.025,1.376-0.253,1.99-0.679l0.484,0.585l-6.937,5.465l-15.226-4.18L352.997,393.574z M344.249,383.061l7.812,9.391
					l0.925-0.731c1.507-1.184,2.522-2.207,3.046-3.064c0.523-0.856,0.707-1.802,0.555-2.842c-0.157-1.038-0.703-2.123-1.642-3.251
					c-1.358-1.631-2.756-2.529-4.189-2.689c-1.435-0.163-3.023,0.443-4.768,1.814L344.249,383.061z"/>
				<path class="st13" d="M375.819,352.403l0.557,0.522c-0.597,0.836-0.84,1.851-0.731,3.046c0.093,0.884,0.662,2.598,1.705,5.156
					l8.762,21.48l-0.482,0.487l-22.944-8.468c-2.767-1.022-4.455-1.555-5.072-1.6c-0.616-0.043-1.353,0.279-2.21,0.964l-0.558-0.525
					l9.456-9.493l0.557,0.525l-0.32,0.318c-0.855,0.858-1.326,1.547-1.414,2.067c-0.074,0.363,0.035,0.683,0.324,0.956
					c0.182,0.17,0.43,0.333,0.755,0.485c0.322,0.154,1.24,0.513,2.76,1.072l14.333,5.332l-5.121-12.421
					c-0.626-1.498-1.07-2.47-1.333-2.927c-0.267-0.457-0.525-0.809-0.786-1.054c-0.302-0.284-0.645-0.453-1.028-0.516
					c-0.386-0.062-0.788,0.002-1.211,0.19c-0.585,0.257-1.223,0.731-1.911,1.425l-0.556-0.524L375.819,352.403z"/>
				<path class="st13" d="M396.393,356.007l-6.238,7.623l1.412,2.58c0.479,0.853,0.951,1.461,1.418,1.826
					c0.62,0.481,1.277,0.593,1.973,0.335c0.407-0.152,1.114-0.757,2.123-1.813l0.603,0.472l-5.872,7.171l-0.605-0.468
					c0.516-0.866,0.704-1.759,0.576-2.678c-0.134-0.913-0.741-2.396-1.833-4.434l-11.366-21.433l0.249-0.304l24.544,6.32
					c2.329,0.593,3.915,0.827,4.752,0.694c0.631-0.098,1.245-0.454,1.838-1.072l0.605,0.472l-8.546,10.433l-0.605-0.47l0.35-0.43
					c0.688-0.836,1.049-1.517,1.091-2.042c0.015-0.367-0.142-0.681-0.467-0.936c-0.198-0.149-0.426-0.276-0.685-0.37
					c-0.114-0.059-0.653-0.213-1.616-0.474L396.393,356.007z M394.742,355.611l-10.265-2.707l4.926,9.23L394.742,355.611z"/>
				<path class="st13" d="M397.594,316.783l6.69,3.654l-0.37,0.638c-1.764-0.464-3.109-0.651-4.052-0.557
					c-0.94,0.093-1.843,0.432-2.706,1.017c-0.479,0.327-1.041,1.054-1.689,2.179l-1.033,1.794l19.066,10.409
					c1.267,0.688,2.094,1.054,2.488,1.089c0.396,0.037,0.824-0.075,1.29-0.346c0.464-0.268,0.896-0.741,1.289-1.428l0.462-0.801
					l0.673,0.373l-7.262,12.59l-0.675-0.366l0.463-0.8c0.399-0.696,0.598-1.33,0.588-1.892c0.009-0.398-0.145-0.802-0.456-1.204
					c-0.216-0.289-0.945-0.775-2.185-1.452l-19.064-10.411l-1.003,1.741c-0.935,1.617-1.261,2.986-0.977,4.105
					c0.389,1.568,1.417,2.983,3.084,4.25l-0.39,0.673l-6.69-3.652L397.594,316.783z"/>
				<path class="st13" d="M428.843,312.341l0.719,0.271l-5.347,13.448l-0.723-0.273l0.341-0.849
					c0.298-0.747,0.399-1.402,0.309-1.956c-0.051-0.399-0.265-0.767-0.636-1.113c-0.256-0.254-1.045-0.634-2.373-1.133
					l-17.386-6.552c-1.35-0.511-2.22-0.758-2.617-0.746c-0.392,0.01-0.799,0.183-1.222,0.51c-0.422,0.328-0.776,0.853-1.063,1.572
					l-0.34,0.856l-0.72-0.272l5.35-13.45l0.719,0.271l-0.339,0.853c-0.296,0.748-0.399,1.403-0.305,1.958
					c0.048,0.397,0.255,0.773,0.622,1.131c0.258,0.256,1.049,0.636,2.374,1.135l17.385,6.551c1.354,0.504,2.227,0.752,2.623,0.733
					c0.393-0.016,0.803-0.19,1.227-0.518c0.42-0.33,0.774-0.854,1.061-1.573L428.843,312.341z"/>
				<path class="st13" d="M407.153,289.696c0.956-4.296,3.142-7.435,6.557-9.422c3.412-1.983,7.153-2.469,11.23-1.456
					c3.482,0.869,6.288,2.623,8.414,5.266c2.817,3.502,3.597,7.647,2.337,12.444c-1.262,4.81-3.914,8.109-7.954,9.902
					c-3.192,1.419-6.604,1.677-10.233,0.772c-4.078-1.016-7.119-3.212-9.134-6.586C406.363,297.238,405.955,293.598,407.153,289.696
					z M408.51,289.783c-0.645,2.446,0.153,4.622,2.385,6.535c1.831,1.562,4.719,2.832,8.661,3.815
					c4.681,1.166,8.357,1.227,11.02,0.184c1.858-0.729,3.05-2.096,3.58-4.107c0.356-1.352,0.314-2.566-0.119-3.642
					c-0.563-1.369-1.705-2.615-3.433-3.729c-1.725-1.115-4.117-2.053-7.168-2.812c-3.634-0.905-6.436-1.256-8.408-1.044
					c-1.976,0.207-3.467,0.727-4.478,1.559C409.54,287.375,408.861,288.454,408.51,289.783z"/>
				<path class="st13" d="M414.083,267.39l19.722-10.35l-12.002-2.111c-1.672-0.294-2.847-0.261-3.522,0.104
					c-0.909,0.498-1.487,1.507-1.731,3.019l-0.76-0.133l1.612-8.97l0.762,0.132c-0.058,1.177,0,1.981,0.167,2.418
					c0.172,0.437,0.509,0.813,1.01,1.125c0.501,0.319,1.411,0.593,2.726,0.823l23.243,4.087l-0.123,0.682l-26.541,14.272
					l17.746,3.12c1.602,0.284,2.752,0.115,3.44-0.499c0.692-0.616,1.119-1.385,1.286-2.303l0.115-0.644l0.763,0.134l-1.733,9.629
					l-0.762-0.135c0.259-1.494,0.124-2.589-0.385-3.288c-0.512-0.694-1.511-1.172-2.992-1.434l-19.696-3.464l-0.845,0.449
					c-0.844,0.444-1.424,0.869-1.735,1.266c-0.31,0.399-0.558,1.012-0.731,1.835l-0.763-0.133L414.083,267.39z"/>
			</g>
		</g>
		<g>
			<path class="st27" d="M1.683,222.561v-0.023c0.038-0.015,0.077-0.036,0.117-0.048c0.368-0.115,0.748-0.198,1.098-0.353
				c0.487-0.214,0.956-0.466,1.418-0.731c0.427-0.243,0.834-0.52,1.25-0.783c0.578-0.368,1.156-0.736,1.734-1.105
				c0.606-0.387,1.228-0.744,1.89-1.02c0.439-0.183,0.883-0.356,1.337-0.499c0.46-0.146,0.938-0.213,1.421-0.25
				c0.088-0.006,0.102-0.057,0.054-0.154c-0.181-0.357-0.377-0.709-0.533-1.076c-0.181-0.422-0.284-0.872-0.304-1.331
				c-0.018-0.433-0.02-0.867,0.06-1.3c0.116-0.636,0.355-1.216,0.691-1.758c0.277-0.445,0.647-0.809,1.055-1.143
				c0.504-0.413,1.066-0.707,1.676-0.91c0.286-0.097,0.586-0.157,0.884-0.204c0.327-0.052,0.66-0.085,0.992-0.094
				c0.302-0.008,0.61,0,0.908,0.049c0.363,0.061,0.727,0.147,1.073,0.267c0.307,0.108,0.589,0.28,0.883,0.419
				c0.483,0.233,0.897,0.562,1.284,0.928c0.455,0.427,0.833,0.919,1.168,1.441c0.227,0.352,0.433,0.715,0.645,1.073
				c0.027,0.045,0.037,0.098,0.062,0.163c-0.166-0.027-0.305-0.053-0.446-0.07c-0.319-0.042-0.636-0.102-0.955-0.112
				c-0.28-0.008-0.564,0.039-0.844,0.067c-0.334,0.032-0.646,0.143-0.929,0.315c-0.401,0.246-0.742,0.565-0.89,1.031
				c-0.077,0.242-0.145,0.495-0.158,0.748c-0.013,0.232,0.038,0.475,0.094,0.702c0.048,0.202,0.128,0.398,0.22,0.582
				c0.202,0.401,0.502,0.723,0.852,1.003c0.323,0.262,0.675,0.473,1.066,0.602c0.383,0.127,0.776,0.229,1.167,0.331
				c0.222,0.057,0.262,0.037,0.337-0.109c0.28-0.568,0.968-0.901,1.619-0.635c0.363,0.148,0.589,0.434,0.724,0.792
				c0.048,0.131,0.094,0.173,0.212,0.099c0.168-0.103,0.346-0.204,0.48-0.346c0.434-0.458,0.504-1.026,0.207-1.561
				c-0.255-0.458-0.674-0.693-1.206-0.702c-0.194-0.002-0.386,0-0.585,0c0.004-0.029-0.001-0.051,0.008-0.069
				c0.093-0.154,0.183-0.311,0.283-0.462c0.287-0.434,0.661-0.783,1.082-1.085c0.411-0.295,0.861-0.492,1.364-0.589
				c0.388-0.078,0.761-0.055,1.127,0.07c0.443,0.149,0.836,0.385,1.135,0.762c0.237,0.299,0.417,0.628,0.525,0.987
				c0.107,0.347,0.164,0.708,0.14,1.085c-0.024,0.351-0.061,0.695-0.184,1.022c-0.095,0.255-0.202,0.509-0.347,0.735
				c-0.164,0.252-0.375,0.477-0.577,0.705c-0.076,0.085-0.074,0.124,0.024,0.176c0.121,0.063,0.241,0.134,0.356,0.21
				c0.403,0.263,0.814,0.515,1.2,0.799c0.307,0.223,0.583,0.489,0.869,0.74c0.326,0.285,0.643,0.581,0.898,0.933v0.025
				c-0.091,0.104-0.182,0.215-0.279,0.314c-0.456,0.461-0.945,0.877-1.462,1.262c-0.336,0.25-0.689,0.471-1.044,0.693
				c-0.208,0.132-0.431,0.244-0.648,0.365c-0.062,0.034-0.075,0.07-0.028,0.126c0.069,0.087,0.146,0.17,0.208,0.261
				c0.168,0.233,0.361,0.458,0.485,0.712c0.309,0.632,0.422,1.304,0.307,2.01c-0.071,0.43-0.213,0.829-0.44,1.199
				c-0.2,0.326-0.451,0.602-0.774,0.803c-0.43,0.268-0.895,0.403-1.41,0.382c-0.345-0.015-0.668-0.094-0.975-0.226
				c-0.599-0.256-1.093-0.66-1.498-1.166c-0.178-0.224-0.333-0.471-0.493-0.711c-0.035-0.054-0.054-0.122-0.087-0.199
				c0.094,0,0.163-0.007,0.229,0.001c0.318,0.038,0.633,0.045,0.938-0.075c0.485-0.189,0.811-0.608,0.853-1.103
				c0.034-0.381-0.062-0.73-0.322-1.018c-0.144-0.162-0.297-0.311-0.505-0.396c-0.09-0.037-0.153-0.027-0.191,0.068
				c-0.015,0.034-0.026,0.07-0.045,0.108c-0.29,0.62-0.856,0.898-1.505,0.724c-0.374-0.102-0.641-0.35-0.816-0.692
				c-0.055-0.109-0.134-0.153-0.251-0.133c-0.427,0.074-0.849,0.158-1.258,0.311c-0.446,0.163-0.869,0.369-1.224,0.68
				c-0.458,0.398-0.84,0.853-0.988,1.464c-0.105,0.431-0.15,0.855-0.028,1.295c0.115,0.422,0.348,0.758,0.684,1.02
				c0.492,0.384,1.072,0.534,1.686,0.57c0.215,0.013,0.429,0.014,0.64-0.002c0.252-0.018,0.503-0.057,0.755-0.089
				c0.096-0.011,0.191-0.025,0.312-0.04c-0.04,0.077-0.059,0.126-0.085,0.169c-0.091,0.153-0.182,0.303-0.281,0.453
				c-0.18,0.273-0.351,0.552-0.552,0.809c-0.24,0.311-0.5,0.608-0.772,0.894c-0.203,0.213-0.423,0.415-0.659,0.588
				c-0.287,0.214-0.594,0.398-0.899,0.586c-0.145,0.093-0.294,0.189-0.454,0.251c-0.244,0.098-0.493,0.183-0.746,0.241
				c-0.292,0.068-0.589,0.105-0.885,0.154c-0.104,0.018-0.207,0.033-0.311,0.048c-0.12,0-0.243,0-0.363,0
				c-0.017-0.007-0.034-0.02-0.049-0.022c-0.207-0.018-0.417-0.017-0.618-0.052c-0.39-0.072-0.78-0.154-1.164-0.252
				c-0.183-0.046-0.351-0.137-0.527-0.203c-0.353-0.135-0.681-0.323-0.97-0.555c-0.304-0.241-0.585-0.519-0.857-0.798
				c-0.148-0.15-0.273-0.325-0.386-0.502c-0.227-0.353-0.386-0.735-0.517-1.135c-0.146-0.445-0.219-0.897-0.225-1.361
				c-0.005-0.236,0.019-0.472,0.046-0.703c0.024-0.219,0.052-0.441,0.11-0.653c0.163-0.597,0.41-1.156,0.765-1.666
				c0.058-0.082,0.039-0.13-0.061-0.146c-0.264-0.045-0.537-0.055-0.794-0.129c-0.518-0.149-1.037-0.312-1.542-0.504
				c-0.356-0.14-0.699-0.322-1.033-0.513c-0.502-0.285-0.993-0.589-1.485-0.897c-0.299-0.189-0.588-0.397-0.882-0.595
				c-0.447-0.303-0.892-0.61-1.347-0.902c-0.46-0.296-0.925-0.588-1.401-0.856C2.794,222.885,2.252,222.682,1.683,222.561z"/>
			<path class="st27" d="M452.217,222.831v0.022c-0.038,0.015-0.076,0.036-0.115,0.048c-0.367,0.115-0.749,0.196-1.099,0.351
				c-0.487,0.214-0.957,0.467-1.421,0.731c-0.426,0.245-0.835,0.52-1.249,0.783c-0.579,0.367-1.155,0.738-1.733,1.106
				c-0.605,0.385-1.228,0.742-1.891,1.018c-0.438,0.183-0.883,0.356-1.335,0.499c-0.461,0.145-0.938,0.211-1.422,0.248
				c-0.088,0.008-0.103,0.059-0.055,0.155c0.181,0.358,0.377,0.709,0.534,1.076c0.18,0.423,0.284,0.872,0.304,1.332
				c0.018,0.43,0.02,0.866-0.06,1.3c-0.118,0.635-0.355,1.216-0.689,1.757c-0.277,0.446-0.649,0.811-1.059,1.145
				c-0.502,0.413-1.066,0.704-1.675,0.908c-0.285,0.096-0.585,0.157-0.885,0.204c-0.326,0.052-0.659,0.084-0.992,0.093
				c-0.302,0.01-0.61,0-0.905-0.049c-0.364-0.059-0.729-0.146-1.076-0.267c-0.304-0.106-0.588-0.278-0.882-0.419
				c-0.479-0.235-0.896-0.562-1.283-0.927c-0.454-0.428-0.834-0.918-1.168-1.442c-0.225-0.351-0.433-0.714-0.643-1.074
				c-0.025-0.044-0.036-0.096-0.064-0.161c0.165,0.025,0.307,0.052,0.448,0.07c0.317,0.04,0.636,0.101,0.955,0.111
				c0.278,0.007,0.563-0.04,0.844-0.067c0.331-0.032,0.645-0.142,0.927-0.314c0.403-0.247,0.742-0.566,0.892-1.03
				c0.077-0.244,0.143-0.498,0.155-0.749c0.013-0.234-0.036-0.473-0.092-0.702c-0.05-0.201-0.127-0.397-0.221-0.581
				c-0.202-0.402-0.502-0.724-0.853-1.006c-0.323-0.26-0.675-0.468-1.064-0.599c-0.384-0.13-0.776-0.23-1.168-0.333
				c-0.223-0.057-0.264-0.034-0.337,0.111c-0.28,0.568-0.97,0.899-1.621,0.633c-0.362-0.147-0.591-0.431-0.724-0.79
				c-0.048-0.13-0.094-0.172-0.214-0.101c-0.167,0.104-0.344,0.204-0.477,0.346c-0.436,0.46-0.506,1.026-0.209,1.562
				c0.253,0.456,0.674,0.692,1.207,0.703c0.193,0.002,0.385,0,0.585,0c-0.005,0.028,0.002,0.049-0.009,0.067
				c-0.093,0.154-0.182,0.31-0.28,0.462c-0.289,0.436-0.664,0.786-1.084,1.087c-0.41,0.296-0.861,0.494-1.364,0.59
				c-0.387,0.075-0.762,0.053-1.126-0.069c-0.443-0.15-0.836-0.387-1.135-0.764c-0.239-0.298-0.421-0.63-0.527-0.986
				c-0.106-0.349-0.164-0.71-0.138-1.085c0.022-0.35,0.058-0.696,0.183-1.021c0.095-0.254,0.2-0.512,0.346-0.736
				c0.165-0.253,0.375-0.477,0.578-0.706c0.073-0.085,0.073-0.123-0.023-0.176c-0.123-0.065-0.243-0.134-0.357-0.209
				c-0.403-0.262-0.815-0.514-1.201-0.799c-0.305-0.225-0.582-0.49-0.866-0.739c-0.329-0.285-0.643-0.58-0.899-0.934v-0.025
				c0.093-0.104,0.184-0.214,0.281-0.314c0.451-0.461,0.943-0.877,1.459-1.262c0.337-0.248,0.689-0.472,1.045-0.693
				c0.208-0.132,0.431-0.246,0.647-0.364c0.064-0.034,0.076-0.071,0.029-0.128c-0.071-0.086-0.145-0.169-0.209-0.26
				c-0.168-0.234-0.358-0.458-0.484-0.712c-0.31-0.635-0.421-1.304-0.306-2.01c0.069-0.431,0.211-0.83,0.439-1.2
				c0.199-0.324,0.45-0.602,0.775-0.802c0.429-0.269,0.893-0.403,1.41-0.383c0.343,0.016,0.668,0.093,0.974,0.227
				c0.6,0.256,1.092,0.66,1.497,1.165c0.18,0.226,0.334,0.471,0.493,0.708c0.037,0.056,0.057,0.123,0.089,0.2
				c-0.095,0-0.163,0.008-0.228-0.002c-0.318-0.039-0.637-0.046-0.94,0.074c-0.485,0.191-0.812,0.61-0.854,1.106
				c-0.034,0.38,0.063,0.729,0.323,1.019c0.144,0.16,0.297,0.312,0.505,0.396c0.089,0.035,0.151,0.025,0.19-0.068
				c0.015-0.036,0.027-0.074,0.046-0.109c0.291-0.621,0.856-0.899,1.507-0.726c0.373,0.102,0.641,0.351,0.816,0.693
				c0.055,0.108,0.132,0.153,0.25,0.133c0.428-0.075,0.85-0.158,1.258-0.311c0.445-0.164,0.869-0.37,1.225-0.681
				c0.458-0.397,0.84-0.851,0.987-1.465c0.107-0.429,0.149-0.855,0.029-1.295c-0.117-0.421-0.351-0.758-0.683-1.02
				c-0.495-0.384-1.075-0.534-1.688-0.569c-0.215-0.013-0.43-0.014-0.642,0c-0.251,0.018-0.504,0.06-0.753,0.09
				c-0.098,0.013-0.192,0.025-0.313,0.042c0.039-0.079,0.057-0.125,0.084-0.171c0.093-0.149,0.183-0.303,0.281-0.45
				c0.18-0.273,0.351-0.553,0.552-0.812c0.241-0.312,0.502-0.609,0.773-0.894c0.2-0.212,0.423-0.414,0.657-0.588
				c0.286-0.213,0.595-0.396,0.898-0.586c0.148-0.091,0.295-0.188,0.455-0.251c0.242-0.096,0.492-0.182,0.747-0.241
				c0.29-0.068,0.591-0.105,0.884-0.155c0.104-0.018,0.207-0.032,0.31-0.048c0.12,0,0.241,0,0.363,0
				c0.017,0.008,0.032,0.022,0.05,0.023c0.205,0.018,0.415,0.018,0.616,0.053c0.391,0.071,0.779,0.152,1.162,0.249
				c0.185,0.048,0.354,0.141,0.53,0.205c0.353,0.133,0.679,0.322,0.97,0.554c0.304,0.241,0.582,0.52,0.856,0.798
				c0.147,0.15,0.273,0.324,0.386,0.501c0.227,0.353,0.388,0.735,0.518,1.136c0.146,0.445,0.219,0.897,0.228,1.362
				c0.002,0.233-0.021,0.47-0.048,0.704c-0.027,0.218-0.055,0.439-0.111,0.651c-0.162,0.597-0.409,1.157-0.767,1.665
				c-0.058,0.081-0.039,0.128,0.062,0.146c0.265,0.044,0.538,0.055,0.792,0.129c0.521,0.149,1.038,0.312,1.545,0.505
				c0.354,0.138,0.698,0.321,1.03,0.511c0.503,0.287,0.995,0.593,1.486,0.898c0.3,0.189,0.588,0.398,0.882,0.595
				c0.448,0.302,0.891,0.61,1.345,0.904c0.463,0.294,0.927,0.587,1.404,0.854C451.109,222.506,451.649,222.709,452.217,222.831z"/>
		</g>
	</g>
	<g>
		<path class="st28" d="M241.565,208.291c3.538,0,6.408-2.869,6.408-6.409c0-2.887-1.922-5.3-4.548-6.101v-17.048h-4.133v17.175
			c-2.413,0.921-4.136,3.239-4.136,5.973C235.157,205.422,238.026,208.291,241.565,208.291z M241.565,199.418
			c1.361,0,2.465,1.103,2.465,2.463s-1.105,2.466-2.465,2.466s-2.466-1.106-2.466-2.466S240.205,199.418,241.565,199.418z"/>
		<path class="st28" d="M330.239,130.988c-3.102-5.565-7.051-9.649-11.199-12.666c-2.045-1.489-4.137-2.713-6.205-3.722
			c-2.638-1.288-5.226-2.225-7.609-2.903c-3.661-1.041-6.82-1.481-8.912-1.663c-1.667-0.145-2.662-0.13-2.662-0.13
			c-1.427-0.008-2.804,0.035-4.149,0.106c-2.922,0.156-5.645,0.496-8.207,0.98c-2.63,0.494-5.098,1.127-7.372,1.906
			c-23.804,8.141-28.846,30.078-28.846,30.078h-6.2c-1.448-7.855-10.336-19.429-10.336-19.429
			c-4.41-5.292-11.027-8.493-17.478-10.44c-2.42-0.729-4.813-1.286-7.06-1.702c-3.69-0.686-6.969-1.007-9.298-1.158
			c-2.216-0.146-3.575-0.136-3.575-0.136c-0.881,0.054-1.742,0.126-2.583,0.216c-3.063,0.327-5.865,0.894-8.442,1.631
			c-2.409,0.689-4.612,1.525-6.624,2.467c-2.949,1.38-5.483,2.977-7.648,4.638c-7.914,6.071-10.877,12.957-10.877,12.957
			c-4.34,8.888,2.895,4.756,2.895,4.756l11.367-9.097c0.305-0.205,0.608-0.389,0.912-0.581c2.381-1.509,4.752-2.652,7.068-3.477
			c1.741-0.619,3.451-1.061,5.112-1.373c2.178-0.407,4.27-0.579,6.235-0.584c1.896-0.005,3.674,0.14,5.292,0.373
			c2.437,0.352,4.507,0.9,6.089,1.414c2.15,0.697,3.398,1.334,3.398,1.334c0.249,0.124,0.477,0.252,0.72,0.378
			c21.649,11.184,15.402,28.767,15.402,28.767c-0.414,1.652-3.721,2.686-3.721,2.686h-7.441c-5.373-0.205-5.167,2.895-5.167,2.895
			v9.301c0,4.34,2.48,4.34,2.48,4.34h70.484c8.061,0.206,7.648-2.894,7.648-2.894v-7.647c0.413-5.995-4.755-5.581-4.755-5.581
			h-7.235l-5.994-2.48c-3.38-18.685,10.082-26.946,13.893-28.885c0.617-0.313,0.991-0.467,0.991-0.467
			c1.454-0.693,2.881-1.262,4.283-1.743c2.005-0.689,3.95-1.173,5.819-1.494c2.164-0.371,4.221-0.528,6.151-0.524
			c2.278,0.004,4.376,0.219,6.245,0.552c2.363,0.421,4.359,1.016,5.908,1.585c2.316,0.847,3.629,1.624,3.629,1.624
			c0.38,0.174,1.044,0.584,1.882,1.145c4.188,2.799,12.796,9.396,12.796,9.396C335.199,141.322,330.239,130.988,330.239,130.988z"/>
		<path class="st28" d="M282.491,192.729c0,2.466-1.997,4.465-4.464,4.465h-70.443c-2.466,0-4.465-1.999-4.465-4.465v-15.565
			c0-2.465,1.999-4.463,4.465-4.463h70.443c2.467,0,4.464,1.998,4.464,4.463V192.729z"/>
		<path class="st29" d="M322.177,225.448c0,0-3.003,3.907-5.771,8.791c0.372-0.141,0.725-0.292,1.12-0.42l17.671-7.132
			c0,0,5.892-0.62,5.273-14.261c0,0,0.058-4.203-0.591-9.374c-0.301,0.636-0.612,1.277-0.961,1.932
			C338.92,204.985,330.239,219.557,322.177,225.448z"/>
		<path class="st29" d="M307.905,166.278c6.76,2.255,13.876,5.582,19.854,10.492c0,0,5.442,3.724,10.243,9.348
			c-0.197-1.245-0.501-2.502-0.943-3.766C337.059,182.351,331.52,169.751,307.905,166.278z"/>
		<path class="st29" d="M168.395,235.06c-0.824-1.84-1.547-3.639-2.201-5.405c2.319,22.338,17.083,27.108,17.083,27.108
			c9.518,7.876,18.946,5.243,25.716,1.02c-1.506,0.328-2.463,0.53-2.463,0.53C179.246,263.274,168.395,235.06,168.395,235.06z"/>
		<path class="st28" d="M173.044,163.128c0,0-10.541,5.891-11.471,14.573l3.1,1.241c0,0,6.201-13.023,16.121-13.643
			c0,0,4.354-1.392,8.102-0.395c2.954-0.954,5.719-1.573,8.051-1.971C193.339,160.546,186.111,158.325,173.044,163.128z"/>
		<path class="st28" d="M226.992,253.352c0,0,10.541-2.17,13.953-0.619c0,0,3.101-4.961,0-5.581c0,0-6.336,0.509-14.79,2.088
			c-2.603,1.914-6.08,4.402-9.485,6.82C220.804,255.097,225.062,254.041,226.992,253.352z"/>
		<path class="st28" d="M322.177,225.448c8.062-5.891,16.742-20.463,16.742-20.463c0.348-0.655,0.66-1.296,0.961-1.932
			c-0.378-2.995-0.993-6.311-2-9.329c-2.481,13.639-16.013,24.283-16.013,24.283c-5.932,6.917-9.967,15.092-12.118,20.112
			c1.69-1.472,3.872-2.83,6.656-3.879C319.174,229.355,322.177,225.448,322.177,225.448z"/>
		<path class="st28" d="M283.421,161.578l-0.565,4.523c1.335-0.459,6.301-2.057,13.009-2.946
			C288.592,161.757,283.421,161.578,283.421,161.578z"/>
		<path class="st28" d="M330.548,169.64c-11.345-7.562-24.872-7.786-34.683-6.485c-6.708,0.888-11.674,2.487-13.009,2.946
			c-0.233,0.079-0.365,0.128-0.365,0.128c-0.309,2.17-4.031,7.44-4.031,7.44c5.034-3.672,11.26-5.554,16.664-6.51
			c6.914-1.224,12.482-0.93,12.482-0.93c0.101,0.014,0.2,0.032,0.3,0.049c23.615,3.474,29.154,16.074,29.154,16.074
			c0.442,1.264,0.746,2.522,0.943,3.766c1.835,2.15,3.578,4.576,4.886,7.181C345.048,177.011,330.548,169.64,330.548,169.64z"/>
		<path class="st28" d="M345.122,203.435c0.312-3.52-0.64-6.959-2.234-10.136c-1.308-2.605-3.051-5.032-4.886-7.181
			c-4.801-5.624-10.243-9.348-10.243-9.348c-5.977-4.91-13.093-8.237-19.854-10.492c-0.1-0.017-0.199-0.035-0.3-0.049
			c0,0-5.568-0.294-12.482,0.93c24.672,6.586,37.905,18.603,37.905,18.603c2.207,1.766,3.757,4.686,4.852,7.961
			c1.006,3.018,1.622,6.334,2,9.329c0.648,5.171,0.591,9.374,0.591,9.374c0.619,13.641-5.273,14.261-5.273,14.261l-17.671,7.132
			c-0.396,0.128-0.748,0.279-1.12,0.42c-2.785,1.049-4.966,2.408-6.656,3.879c-5.184,4.513-5.866,9.962-5.866,9.962l8.063-1.24
			c2.17-5.581,24.801-13.953,24.801-13.953c5.893-1.55,7.754-8.062,7.754-8.062C345.741,220.488,345.122,203.435,345.122,203.435z"
			/>
		<path class="st28" d="M238.776,238.47c0,0-11.163,2.48-19.844,10.542c0,0-0.716,0.91-1.989,2.238
			c-1.725,1.799-4.485,4.371-7.95,6.533c-6.77,4.223-16.199,6.856-25.716-1.02c0,0-14.764-4.77-17.083-27.108
			c-1.394-3.759-2.42-7.347-3.152-10.75c-0.994,5.505-2.683,22.435,10.624,35.997c0,0,14.261,14.883,31.004,9.612
			c0,0,5.871-4.103,12.001-8.455c3.405-2.418,6.882-4.906,9.485-6.82c1.913-1.406,3.358-2.502,3.938-3.018
			c0,0,12.403-7.441,16.123,0.62l5.58,0.62C251.796,247.461,248.076,238.47,238.776,238.47z"/>
		<path class="st28" d="M210.56,253.042c0,0-19.844,7.441-33.485-10.852c0,0-21.083-28.213-6.201-59.529
			c0,0,19.533-19.533,32.244-13.642c0,0,3.721-2.48,0.62-6.82c0,0-2.729,0.037-6.791,0.733c-2.331,0.398-5.097,1.017-8.051,1.971
			c-7.639,2.469-16.488,7.18-22.054,16.208c0,0-8.811,14.508-3.802,37.794c0.732,3.403,1.758,6.991,3.152,10.75
			c0.654,1.766,1.378,3.565,2.201,5.405c0,0,10.851,28.214,38.135,23.253c0,0,0.958-0.202,2.463-0.53
			c3.466-2.163,6.226-4.734,7.95-6.533C214.835,251.782,212.691,252.376,210.56,253.042z"/>
		<g>
			<path class="st28" d="M134.599,275.055c0,0-6.707-1.305-14.251-5.345c-1.854-0.994-3.757-2.164-5.625-3.508
				c-7.905-5.687-15.159-14.698-15.159-28.662c0,0,3.1-20.464,17.672-25.424c0,0,0.311-22.013-8.371-22.013
				c0,0-29.144,15.813-25.424,46.817c0,0,4.166,28.024,26.261,39.235c2.11,1.071,4.405,1.964,6.855,2.689
				c4.721,1.398,10.071,2.105,16.182,1.793C132.738,280.637,143.9,278.465,134.599,275.055z"/>
			<path class="st28" d="M176.455,186.692c0,0-6.821,7.751-4.652,22.943c0,0,17.054,3.1,21.394,15.813
				c0,0,6.354,20.766-6.875,36.049c-1.936,2.237-4.28,4.358-7.138,6.277c-3.087,2.072-6.744,3.917-11.101,5.421
				c0,0-12.402,7.441-0.62,6.82c0,0,8.15-0.013,17.396-4.107c2.623-1.161,5.328-2.657,7.966-4.57
				c8.833-6.404,16.859-17.525,18.045-36.9C210.87,234.439,214.901,197.853,176.455,186.692z"/>
		</g>
		<path class="st28" d="M144.52,165.195c-2.969,0-5.374,2.406-5.374,5.374c0,2.969,2.405,5.375,5.374,5.375
			c2.968,0,5.374-2.406,5.374-5.375C149.895,167.601,147.489,165.195,144.52,165.195z M144.52,173.563
			c-1.652,0-2.992-1.341-2.992-2.994c0-1.652,1.34-2.993,2.992-2.993c1.654,0,2.994,1.341,2.994,2.993
			C147.515,172.222,146.175,173.563,144.52,173.563z"/>
		<path class="st28" d="M144.52,216.973c-2.969,0-5.374,2.406-5.374,5.374c0,2.969,2.405,5.375,5.374,5.375
			c2.968,0,5.374-2.406,5.374-5.375C149.895,219.378,147.489,216.973,144.52,216.973z M144.52,225.341
			c-1.652,0-2.992-1.341-2.992-2.994c0-1.653,1.34-2.993,2.992-2.993c1.654,0,2.994,1.34,2.994,2.993
			C147.515,224,146.175,225.341,144.52,225.341z"/>
		<path class="st28" d="M120.027,181.007c0,0,2.067-5.373,12.815-5.788c0,0,29.764-2.479,33.072,3.307l-0.414,2.068
			c0,0-9.51,24.804-9.921,35.966c0,0-16.536,4.545-21.91-0.414C133.669,216.147,123.334,182.661,120.027,181.007z"/>
		<path class="st28" d="M108.865,190.102c0,0-2.479-3.721,1.653-5.787c0,0,6.202-7.029,9.509-3.308c3.307,3.72,0,0.828,0,0.828
			s14.056,23.976,12.815,35.551c0,0-4.961,7.027-8.681,2.066l-2.48-3.72c0,0-3.309,2.067-5.375-4.547
			C116.306,211.186,112.585,192.997,108.865,190.102z"/>
		<path class="st28" d="M158.058,219.041c0,0-4.133-0.828-2.479-7.855c0,0,5.787-27.698,11.161-31.005c0,0,2.48-2.066,7.854,1.241
			c0,0,5.374,2.48,2.067,9.921c0,0-4.134,26.457-7.854,25.218C168.807,216.561,164.673,224.415,158.058,219.041z"/>
		<path class="st28" d="M118.786,181.007c0,0,0.828,27.698,4.134,35.553"/>
		<path class="st28" d="M166.74,180.181c0,0-0.826,14.057,1.654,21.497c0,0,3.307,9.92,0,14.055"/>
		<path class="st30" d="M241.565,253.352c0,0-0.932-8.991,8.992-8.061l53.016,0.31c0,0,9.303-2.17,10.232,4.341l-0.309,73.171
			c0,0,2.602,5.577-4.837,5.577c-0.093,0-1.364,0.005-1.364,0.005h-61.08c0,0-6.202,1.549-5.582-8.993L241.565,253.352z"/>
		<g>
			<polygon class="st28" points="257.378,251.492 251.177,243.741 257.378,244.05 264.198,251.181 			"/>
			<polygon class="st28" points="265.129,244.05 272.259,244.05 276.91,248.701 272.259,252.112 			"/>
			<polygon class="st28" points="291.172,244.361 298.303,243.741 305.434,251.181 298.303,251.801 			"/>
			<path class="st28" d="M306.984,252.732c0,0,6.821-1.861,7.751,1.86v4.34l-7.439-1.55L306.984,252.732z"/>
			<polygon class="st28" points="308.225,266.064 315.356,273.505 315.046,280.637 307.605,273.505 			"/>
			<polygon class="st28" points="307.605,288.077 307.915,280.637 315.046,287.767 315.046,295.518 			"/>
			<polygon class="st28" points="307.915,298.619 314.735,305.75 315.356,313.81 308.225,306.37 			"/>
			<path class="st28" d="M306.674,318.772c0,0,7.442-2.481,8.682,0.619l-0.311,6.202c0,0-4.961-2.17-8.062-1.861L306.674,318.772z"
				/>
			<path class="st28" d="M239.705,325.904c0,0,3.41-2.481,7.131-1.862v-4.341c0,0-4.651-2.479-8.06,0.622L239.705,325.904z"/>
			<path class="st28" d="M247.146,307.92v6.821c0,0-5.889,4.96-8.681,4.341c0,0-0.932-6.821,3.1-8.682L247.146,307.92z"/>
			<path class="st28" d="M247.146,301.409c0,0-6.512,5.58-7.132,7.752l-0.618-8.371l7.439-6.201L247.146,301.409z"/>
			<path class="st28" d="M247.146,279.706l0.619,8.062c0,0-7.132,5.27-8.061,7.44c-0.929,2.171-0.309-8.681-0.309-8.681
				S242.806,281.876,247.146,279.706z"/>
			<path class="st28" d="M247.456,271.644v-7.751c0,0-6.2,2.48-7.752,8.371v6.511C239.705,278.776,244.975,272.264,247.456,271.644z
				"/>
			<path class="st28" d="M247.146,257.382c0,0-5.58,4.961-6.512,8.063c0,0-2.478-5.581-0.619-9.613c0,0,4.961-6.82,7.442-5.89
				L247.146,257.382z"/>
			<path class="st28" d="M262.648,266.684c0,0-7.132-8.992-15.502-9.302l0.311-7.44c0,0,14.882,5.581,18.914,9.921L262.648,266.684z
				"/>
		</g>
		<path class="st28" d="M253.967,272.886l24.805-27.905c0,0,3.719-4.961,6.51,0l6.202,12.092c0,0,11.47,13.953,3.719,17.672
			l-24.494,18.603c0,0-7.439,5.271-10.849-3.1c0,0-0.931-2.48,0-4.341l-6.201-8.992
			C253.658,276.915,251.486,275.365,253.967,272.886z"/>
		<path class="st28" d="M259.547,285.907l19.225-12.092c0,0,8.37-17.363,13.021-16.742c0,0,10.852,12.092,3.721,17.364
			c0,0-20.774,22.322-30.694,19.532C264.819,293.968,256.759,293.348,259.547,285.907z"/>
		<path class="st28" d="M268.851,293.658c0,0,9.921-19.533,10.85-20.772"/>
		<path class="st28" d="M256.759,279.396c0,0,18.292-3.722,19.531-12.092c0,0,3.101,5.891,0.312,8.061
			c0,0-9.613,6.822-17.364,10.232L256.759,279.396z"/>
		<path class="st28" d="M306.365,252.732c0,0,1.86,8.061-1.86,9.921c0,0-18.914,11.471-26.665,9.611l-1.55-4.96
			C276.29,267.304,295.822,268.234,306.365,252.732z"/>
		<path class="st28" d="M277.943,288.49l16.536-12.815c0,0,16.536,32.657-0.413,55.809c0,0-22.326,31.832-59.529,13.229
			c0,0-11.989-7.442,1.653-6.616c0,0,34.724,7.027,44.232-16.536C280.423,321.561,288.279,301.717,277.943,288.49z"/>
		<g>
			<path class="st28" d="M242.523,160.409c0,0-5.774-4.485-22.895-4.941"/>
			<path class="st28" d="M218.871,155.963c0,0-5.158,1.984,0,6.611c5.157,4.628,8.595,6.942,10.313,9.586"/>
			<path class="st28" d="M235.536,172.477c0,0-6.669-12.703-16.832-15.561"/>
			<path class="st28" d="M242.735,159.88c0,0,6.352-5.293,24.801-4.412"/>
			<path class="st28" d="M268.295,155.963c0,0,5.157,1.984,0,6.611c-5.158,4.628-8.595,6.942-10.314,9.586"/>
			<path class="st28" d="M251.629,172.477c0,0,6.669-12.703,16.832-15.561"/>
		</g>
		<path class="st28" d="M241.565,113.623c-3.539,0-6.408,2.87-6.408,6.409c0,2.888,1.921,5.301,4.547,6.1v46.479h4.135v-46.605
			c2.414-0.92,4.135-3.238,4.135-5.974C247.974,116.493,245.103,113.623,241.565,113.623z M241.565,122.495
			c-1.361,0-2.466-1.103-2.466-2.463c0-1.361,1.106-2.465,2.466-2.465s2.465,1.105,2.465,2.465
			C244.031,121.393,242.926,122.495,241.565,122.495z"/>
		<line class="st28" x1="319.04" y1="118.323" x2="314.138" y2="126.534"/>
		<path class="st28" d="M120.731,269.605c0,0-3.652,8.892-4.446,9.686"/>
		<path class="st28" d="M178.689,267.064c0,0,4.446,7.781,6.51,9.051"/>
		<path class="st28" d="M109.714,263.252c0,0-5.088,6.596-6.785,7.726"/>
		<path class="st28" d="M196.972,267.209c0,0-7.35-4.9-8.48-7.538"/>
		<line class="st28" x1="319.06" y1="117.96" x2="313.82" y2="126.852"/>
		<line class="st28" x1="312.708" y1="113.514" x2="308.421" y2="124.153"/>
		<line class="st28" x1="305.404" y1="110.655" x2="302.863" y2="122.406"/>
		<line class="st28" x1="296.353" y1="109.226" x2="296.988" y2="121.929"/>
		<line class="st28" x1="289.366" y1="109.067" x2="290.954" y2="122.088"/>
		<line class="st28" x1="281.109" y1="110.497" x2="285.397" y2="123.676"/>
		<line class="st28" x1="273.646" y1="112.561" x2="279.68" y2="125.74"/>
		<line class="st28" x1="165.668" y1="118.595" x2="170.273" y2="127.328"/>
		<line class="st28" x1="172.973" y1="113.831" x2="177.578" y2="123.994"/>
		<line class="st28" x1="179.96" y1="111.29" x2="182.5" y2="122.406"/>
		<line class="st28" x1="188.693" y1="109.544" x2="188.534" y2="122.247"/>
		<line class="st28" x1="195.045" y1="109.544" x2="193.774" y2="122.565"/>
		<line class="st28" x1="204.255" y1="110.973" x2="199.808" y2="123.676"/>
		<line class="st28" x1="211.241" y1="113.037" x2="204.096" y2="125.423"/>
	</g>
	<circle class="st13" cx="327.397" cy="42.551" r="5.091"/>
	<circle class="st13" cx="380.635" cy="83.275" r="5.09"/>
</g>
</svg>
