<svg xmlns="http://www.w3.org/2000/svg" viewBox="0 0 454.5 448.2"><path style="opacity:0.05;" d="M394.8 126.8c-1.2-.4-2.3-1.2-3-2.4l-1 .4 5.3 11.5 1-.4c-.7-1.9-1-3.1-.9-3.7.1-1 .7-1.7 1.7-2.1.8-.3 1.8-.5 3.2-.5h4.2l5.6 12.3-3.7 3.7-1.6 1.6-.9.6c-.5.2-1 .2-1.5 0-.6-.4-1.3-1.2-1.9-2.6l-.3-.7-1 .4 7.7 16.8 1-.4c-.4-1.1-.5-2-.2-2.9.4-1.1 1.7-2.8 4-5.2l23.9-25-.2-.5-34.6-.2c-3.3-.1-5.5-.3-6.8-.7zm27.8 2.9l-10.1 10.4-4.8-10.5 14.9.1zm-408 15c.6-.4 1.2-.7 1.8-.7.6 0 1.9.4 3.8 1.3l23.2 10.5c1.9.9 3.1 1.5 3.5 2 .4.4.6 1 .6 1.7s-.3 1.9-1.1 3.4l1 .4 8.6-17.6-1-.4c-.8 1.6-1.4 2.6-2 3-.6.4-1.2.7-1.8.7-.6 0-1.9-.4-3.8-1.3l-10-4.5 1.1-2.3 21.7-3.7 4.2-8.5h.1L75.4 112l-.2-.1 13-14.4c3.7-4.1 5.6-7.9 5.7-11.5.1-3-1-5.4-3.2-7.2-2.1-1.8-4.6-2.4-7.3-2-1.9.3-4.5 1.6-7.6 3.7 1.6-3.1 2.3-5.6 2.1-7.5-.2-1.9-1-3.5-2.5-4.7-1.4-1.1-3-1.8-4.9-2-1.9-.2-3.8.1-5.7 1-1.8.9-4.2 2.9-7.2 6.2L45.1 87.2l.8.7c1.2-1.3 2.1-2.1 2.8-2.4.7-.3 1.3-.3 1.9-.2.6.2 1.7.9 3.3 2.2l19.4 16.1c1.6 1.3 2.5 2.3 2.8 2.8.2.5.3 1.1.1 1.8-.2.7-.9 1.7-2 3l.2.2-.6.9c-.6.9-1.2 1.5-1.9 1.9-.7.3-1.3.5-1.8.4-.5-.1-1.7-.6-3.4-1.7l-22.1-13c-1.7-1-2.7-1.7-2.9-2.1-.4-.6-.6-1.1-.6-1.7 0-.8.3-1.6.9-2.6l.7-1.1-.9-.5-10.9 16.8.9.5.7-1.1c.6-.9 1.2-1.5 1.9-1.9.7-.3 1.3-.5 1.8-.4.5.1 1.7.6 3.4 1.7l22.1 13.2c1.7 1 2.7 1.7 2.9 2.1.4.6.6 1.1.6 1.7 0 .5-.2 1-.4 1.5l-.3-.1c-.5.9-1.2 1.6-2.1 2-.6.3-2 .6-4.1 1l-16.2 2.8c.5-2.3.5-4.3-.1-6-.8-2.6-2.6-4.5-5.2-5.7-2.2-1-4.3-1.2-6.5-.7s-4.1 1.6-5.6 3.2c-1.5 1.7-3.3 4.6-5.4 8.7l-7.8 15.9 1 .4c.9-1.4 1.6-2.4 2.1-2.8zm41.8-66.8c1.8-2.1 3.4-3.4 4.7-3.9 1.3-.6 2.6-.7 3.9-.5 1.3.2 2.6.9 3.9 1.9 1.3 1.1 2.2 2.3 2.6 3.5.4 1.2.4 2.5 0 3.8-.4 1.3-1.5 3-3.3 5l-11.8-9.8zm13.5 11.3c1.9-2.2 3.6-3.6 5-4.3 1.4-.7 3-.9 4.6-.6 1.7.3 3.2 1 4.6 2.2 1.2 1 2.1 2.2 2.6 3.5.5 1.3.6 2.7.3 4.1-.3 1.4-1 2.6-2 3.8-.7.8-1.4 1.2-2.2 1.2-.8.1-1.5-.3-2.3-.9l-1.1-.9-9.5-8.1zm-48.7 43.4c1.3-2.7 2.9-4.4 4.8-5 1.9-.6 4.2-.3 6.9.9 1.9.8 3.2 1.9 4.1 3.1.8 1.2 1.2 2.5 1.1 3.8-.1 1.4-.8 3.2-1.9 5.6l-.7 1.4-15.7-7.1 1.4-2.7zm210.5 311.7c-1.6 1.2-3.7 1.8-6.4 1.8h-1.7c-.8 0-1.4-.1-1.8-.3-.4-.2-.6-.5-.7-.8-.1-.3-.2-1.3-.2-2.8v-7.8c1.4 0 2.4.2 3.1.5.7.3 1.3 1 1.9 2 .5 1 .9 2.3 1.1 3.9h.8v-14.4h-.8c-.2 2.1-.7 3.8-1.5 4.9-.8 1.1-2.1 1.6-3.9 1.6h-.6v-11.2h2.9c2.1 0 3.6.1 4.4.4 1.3.4 2.4 1 3.1 1.9.7.9 1.3 2.3 1.7 4.3h.8v-8.2h-23.7v.8h.9c.9 0 1.6.2 2.2.6.4.3.6.6.8 1.1.1.3.1 1.1.1 2.3V443c0 1.4-.1 2.2-.2 2.6-.2.5-.5.8-.8 1-.5.3-1.2.4-2 .4h-.9v.8h24.5l1.3-8.8h-.8c-.9 2.3-2 4.1-3.6 5.3zm68.6-17.1c.1 2.5-.5 4.6-1.6 6.2-1.2 1.6-3 2.8-5.5 3.5l-1.6.5c-.8.2-1.4.3-1.8.2-.4-.1-.7-.3-1-.6-.2-.3-.6-1.2-1-2.6l-2.4-7.4c1.3-.4 2.3-.5 3.1-.4.8.1 1.6.6 2.4 1.4.8.8 1.5 1.9 2.2 3.4l.8-.2-4.4-13.8-.8.2c.4 2.1.4 3.8 0 5.1-.4 1.3-1.5 2.2-3.2 2.7l-.5.2-3.4-10.7 2.8-.8c2-.6 3.5-.9 4.3-.9 1.4 0 2.6.3 3.5.9 1 .6 1.9 1.8 2.9 3.6l.8-.2-2.5-7.8-22.7 6.8.2.7.9-.3c.9-.3 1.6-.3 2.2-.1.4.1.8.4 1.1.8.2.2.4 1 .8 2.2l5.5 17.3c.4 1.3.6 2.2.6 2.5 0 .5-.2.9-.5 1.2-.4.4-1 .7-1.8 1l-.9.3.2.7 23.4-7-1.4-8.8-.7.2zm-25.8 15.5c-.4-.2-1.2-.9-2.2-2l-8.2-8.3c1.6-.7 2.9-1.5 3.7-2.5 1.3-1.5 1.8-3.3 1.5-5.3-.3-1.6-1-3-2.2-4.1-1.2-1.1-2.6-1.7-4.2-2-1.6-.2-4.2-.1-7.5.4l-13 1.9.1.7c1.3-.2 2.2-.2 2.7 0s.9.4 1.1.8c.2.4.5 1.3.7 2.7l2.7 17.7c.2 1.5.3 2.4.1 2.8-.1.4-.4.8-.8 1.1-.4.3-1.3.5-2.6.7l.1.7 14.3-2.1-.1-.7c-1.3.2-2.2.2-2.7 0s-.9-.4-1.1-.8c-.2-.4-.5-1.3-.7-2.7l-1.2-7.6 1.8-.3 10.9 11.1 8.8-1.3-.1-.7c-.6.2-1.3.1-1.9-.2zm-12.3-13.4c-.4 1-1.1 1.7-2 2.2-.9.5-2.3.9-4.2 1.1l-1.2.2-1.8-11.9 2.2-.3c2.2-.3 3.9-.1 5.1.8 1.2.8 1.9 2.3 2.2 4.4.2 1.3.1 2.5-.3 3.5zm56.7-14.7c-1.7-.8-4.3-1.3-8-1.4-2.6-.1-4.4-.2-5.1-.3-1.1-.2-1.9-.5-2.6-.9-.5-.3-.8-.7-1.1-1.3-.4-.9-.4-1.8 0-2.8.4-1 1.3-1.8 2.6-2.4 1.7-.7 3.5-.8 5.6-.1 2 .6 3.7 1.9 5.1 3.9l.8-.3-4.1-8.3-.6.2c.2.8.2 1.4.1 1.7-.1.3-.3.5-.6.6-.3.2-1 .2-2.1.2-1 0-1.9 0-2.6.1-.9.1-1.7.4-2.6.8-2.3 1-3.9 2.6-4.7 4.6-.9 2.1-.8 4.1.1 6.1.5 1.2 1.3 2.1 2.3 2.9 1 .7 2.2 1.3 3.6 1.6 1.4.3 3.5.5 6.4.6 2 .1 3.5.2 4.4.4.9.2 1.6.5 2.2.9.6.4 1 .9 1.3 1.5.5 1 .5 2.1 0 3.2s-1.4 2-2.9 2.6c-1.8.8-3.9.9-6.1.2-2.2-.7-4.3-2.3-6.1-4.7l-.7.3 4.4 9.5.7-.3c0-.6.1-1.1.4-1.5.3-.4.5-.7.9-.8.4-.2 1-.3 1.7-.3 1.3 0 2.3-.1 3.1-.3.8-.2 1.6-.4 2.4-.8 2.6-1.1 4.4-2.8 5.3-5.1 1-2.3 1-4.4 0-6.5-.6-1.7-1.8-3-3.5-3.8zm-113.3 28.1c-.9 1-1.9 1.7-2.9 2-1.1.4-2.3.5-3.8.2l-2.3-.3c-1.3-.2-2.1-.4-2.5-.5-.5-.3-.7-.6-.8-1-.1-.4-.1-1.3.2-2.7l2.6-17.4c.2-1.4.4-2.2.6-2.5.3-.4.6-.7 1-.8.5-.2 1.2-.3 2-.1l1.2.2.1-.7-15-2.1-22.6-6.7-2.2 7.1.8.2c.9-1.9 2.1-3.1 3.6-3.8 1.1-.5 2.5-.5 4.3.1l2 .6-6.4 20.3c-.4 1.3-.7 2.1-1 2.4-.3.4-.7.6-1.1.7-.6.1-1.2.1-2-.2l-.9-.3-.5.6 14.2 4.2.2-.7-.9-.3c-.8-.2-1.3-.5-1.7-.9-.4-.4-.6-.8-.6-1.2 0-.4.1-1.2.6-2.6l6.4-20.3 2 .6c1.3.4 2.1.8 2.5 1.1.8.7 1.3 1.5 1.6 2.4.3.9.4 2.2.3 4l.7.2 2.1-6.7c.4.1.8.3 1.1.5.4.3.7.7.8 1 .1.4 0 1.3-.2 2.6l-2.7 18c-.2 1.4-.4 2.2-.6 2.5-.3.4-.6.7-1 .8-.5.2-1.2.3-2 .1l-.9-.1-.1.7 24.9 3.5 2.5-9.4-.8-.1c-1 2.3-1.9 3.8-2.8 4.8zm-79.9-19.9c-.3-.8-.3-2.3-.1-4.7l2.5-24.6-.3-.2-19.9 14.3c-1.9 1.4-3.3 2.2-4.2 2.5-.9.3-1.8.2-2.8-.1l-.4.7 8.2 4.5.4-.7c-1.2-.8-2-1.4-2.2-1.8-.4-.6-.4-1.3 0-1.9.3-.5.8-1.1 1.6-1.7l2.4-1.8 8.7 4.8-.4 3.7c-.1 1-.2 1.5-.2 1.6-.1.3-.1.5-.3.7-.2.4-.5.6-.9.6-.5 0-1.3-.2-2.2-.7l-.5-.3-.4.7 11.9 6.5.4-.7c-.6-.3-1.1-.8-1.3-1.4zm-5.9-12.2l-7.5-4.1 8.6-6.2-1.1 10.3zm224.6-7c.8 2.4.9 4.5.3 6.4-.6 1.9-2 3.5-4.2 5l-1.4.9c-.7.4-1.2.7-1.6.7-.4 0-.8-.1-1.1-.3-.3-.2-.9-.9-1.8-2.2l-4.5-6.4c1.1-.7 2.1-1.2 2.9-1.3.8-.1 1.7.1 2.7.7 1 .5 2.1 1.4 3.1 2.6l.7-.4-8.3-12-.7.4c1.1 1.9 1.6 3.5 1.5 4.9 0 1.3-.8 2.5-2.3 3.5l-.5.3-6.5-9.3 2.4-1.6c1.8-1.2 3.1-1.9 3.8-2.1 1.3-.4 2.6-.4 3.7-.1 1.1.3 2.4 1.2 3.9 2.6l.7-.4-4.7-6.8-19.6 13 .4.6.8-.5c.8-.5 1.5-.7 2.1-.7.5 0 .9.2 1.3.5.2.2.7.8 1.4 1.8l10.5 15c.8 1.1 1.2 1.9 1.3 2.2.1.5.1.9-.1 1.3-.3.5-.7 1-1.4 1.4l-.8.5.4.6 20.3-13.4-4-8-.7.6zm-240.3-.3c1.3-1.5 1.7-3.2 1.3-5.2-.3-1.3-1.2-3.1-2.9-5.2 2.3 1.1 4.2 1.5 5.6 1.3 1.4-.2 2.6-.8 3.5-1.8.8-1 1.3-2.1 1.4-3.5.1-1.3-.1-2.7-.8-3.9-.7-1.3-2.3-2.9-4.8-4.9l-10.5-8.4-.5.6c1 .8 1.6 1.4 1.8 1.9.2.5.3.9.2 1.3-.1.4-.6 1.2-1.6 2.4l-11.7 13.8c-1 1.2-1.7 1.8-2.1 2-.4.2-.8.2-1.4.1-.5-.1-1.3-.6-2.3-1.4l-.5.6 11.1 8.9c3.1 2.5 6 3.7 8.7 3.8 2.3 0 4.1-.8 5.5-2.4zm-4.3-7.6c-.2 1.2-.7 2.3-1.6 3.2-.7.9-1.6 1.5-2.6 1.9-1 .4-2 .5-3 .3s-2-.7-2.9-1.4c-.6-.5-.9-1-.9-1.5-.1-.5.2-1.1.6-1.6l.7-.8 5.8-6.8c1.7 1.3 2.8 2.5 3.3 3.4.6 1 .8 2.1.6 3.3zm1-5.7c-1-.2-2.3-1-3.8-2.2l7.1-8.4c1.6 1.2 2.6 2.3 3 3.2.4.9.6 1.8.5 2.7-.1.9-.6 1.8-1.4 2.8-.8.9-1.6 1.6-2.5 1.9-1 .2-1.9.3-2.9 0zm56.4 19c-1.3-1-3.5-2.2-6.6-3.5l-12.1-5-.3.7c1.2.5 2 .9 2.3 1.3.3.4.5.8.5 1.2 0 .4-.3 1.3-.9 2.7L133 423c-.6 1.4-1.1 2.2-1.4 2.5-.3.3-.8.4-1.3.5-.5 0-1.4-.2-2.6-.7l-.3.7 13.4 5.5.3-.7c-1.2-.5-2-.9-2.3-1.3-.3-.4-.5-.8-.5-1.2 0-.4.3-1.3.9-2.7l3.1-7.1 1.7.7 3.4 15 8.2 3.4.3-.7c-.7-.3-1.2-.8-1.6-1.4-.2-.4-.5-1.4-.8-2.8l-2.5-11.2c1.8.3 3.3.2 4.5-.2 1.9-.7 3.3-1.9 4.1-3.8.7-1.5.8-3.1.4-4.6-.6-1.6-1.5-2.8-2.8-3.9zm-4.1 5.9c-.6 1.3-1.3 2.3-2.2 2.9-.9.6-1.8.9-2.8.9-1 0-2.4-.4-4.2-1.2l-1.1-.5 4.8-11.1 2.1.9c2.1.9 3.4 1.9 3.9 3.2.5 1.3.3 2.9-.5 4.9zm275.4-101.7c-.3.7-.6 1.2-1.1 1.6-.4.3-.8.5-1.2.5-.4 0-1.3-.2-2.6-.7l-17.4-6.6c-1.3-.5-2.1-.9-2.4-1.1-.4-.4-.6-.7-.6-1.1-.1-.6 0-1.2.3-2l.3-.9-.7-.3-5.4 13.5.7.3.3-.9c.3-.7.6-1.2 1.1-1.6.4-.3.8-.5 1.2-.5.4 0 1.3.2 2.6.7l17.4 6.6c1.3.5 2.1.9 2.4 1.1.4.3.6.7.6 1.1.1.6 0 1.2-.3 2l-.3.8.7.3 5.3-13.4-.7-.3-.2.9zm-54.4 78c-.5 0-1.5-.2-2.9-.6l-11.3-3.1c1.1-1.4 1.7-2.7 1.9-3.9.3-2-.2-3.7-1.5-5.3-1.1-1.3-2.4-2.1-4-2.5-1.6-.4-3.1-.2-4.7.4-1.5.6-3.6 2-6.3 4.1l-10.2 8.1.5.6c1-.8 1.8-1.2 2.3-1.4.5-.1 1-.1 1.4.1.4.2 1.1.9 2 2l11.6 13.9c1 1.2 1.5 1.9 1.6 2.4.1.4 0 .9-.2 1.3-.2.5-.8 1.1-1.8 1.9l.5.6 11.3-8.9-.5-.6c-1 .8-1.8 1.2-2.3 1.4-.5.1-1 .1-1.4-.1-.4-.2-1.1-.9-2-2l-5-6 1.4-1.1 15.2 4.2 6.9-5.5-.5-.6c-.6.4-1.3.6-2 .6zm-18.1-2.5c-.5.9-1.5 1.9-3 3.1l-.9.7-7.8-9.4 1.7-1.4c1.7-1.4 3.3-2 4.8-1.8 1.4.2 2.8 1.1 4.2 2.7.9 1.1 1.5 2.2 1.6 3.3.1 1 0 1.9-.6 2.8zm93.2-167.3c-.5-.3-.9-.6-1.3-.9l-.9-.6-1.5-.9c-.3-.2-.7-.4-1-.5-.5-.2-1-.4-1.5-.5-.3-.1-.5-.1-.8-.1-.1 0-.1-.1-.1-.1.4-.5.6-1.1.8-1.7.1-.2.1-.4.1-.7v-.7c0-.5-.1-.9-.2-1.4-.1-.4-.3-.8-.5-1.1-.1-.2-.2-.4-.4-.5-.3-.3-.6-.6-.9-.8-.3-.2-.6-.4-1-.6-.2-.1-.3-.2-.5-.2-.4-.1-.8-.2-1.2-.2-.2 0-.4 0-.6-.1h-.7c-.3 0-.6.1-.9.2-.3.1-.5.1-.7.2-.2.1-.3.2-.5.3l-.9.6c-.2.2-.5.4-.7.6-.3.3-.5.6-.8.9-.2.3-.4.5-.6.8-.1.1-.2.3-.3.5 0 0 0 .1-.1.2h.3c.2 0 .5-.1.8-.1h.6c.6 0 1.2.2 1.7.6.3.3.6.6.7 1 .1.4.1.9 0 1.3-.1.6-.5 1.1-1 1.5-.4.3-.8.5-1.2.7-.4.2-.8.2-1.3.3-.1 0-.2 0-.2-.1-.2-.3-.4-.6-.8-.7-.7-.2-1.2.1-1.5.7v.1c0 .1-.1.1-.2.1-.2-.1-.4-.2-.5-.4-.3-.3-.4-.6-.3-1 0-.5.4-.9.9-1.1.3-.1.6-.1.9-.1h.2c0-.1-.1-.1-.1-.2-.2-.2-.3-.5-.5-.7-.4-.5-.9-.9-1.5-1.2-.3-.1-.6-.2-1-.2-.5 0-1 .1-1.4.4-.3.2-.6.5-.8.8-.2.4-.4.8-.4 1.2-.1.7 0 1.4.3 2 .1.3.3.5.5.7.1.1.1.2.2.3v.1c-.2.1-.4.2-.6.4-.4.2-.7.4-1 .7-.5.4-1 .8-1.5 1.3l-.3.3c.3.4.6.6.9.9.3.2.6.5.9.7.4.3.8.5 1.2.8.1.1.2.1.4.2.1.1.1.1 0 .2-.2.2-.4.5-.6.7-.1.2-.3.5-.3.7-.1.3-.2.7-.2 1 0 .4 0 .7.1 1.1.1.4.3.7.5 1 .3.4.7.6 1.1.8.4.1.7.1 1.1.1.5-.1 1-.3 1.4-.6.4-.3.8-.7 1.1-1.1.1-.2.2-.3.3-.5v-.1h-.6c-.5 0-1-.2-1.2-.7-.3-.5-.2-1.1.2-1.6.1-.1.3-.2.5-.3.1-.1.2 0 .2.1.1.4.4.6.7.8.7.3 1.3-.1 1.6-.6.1-.1.1-.2.3-.1l1.2.3c.4.1.7.3 1.1.6.4.3.7.6.9 1 .1.2.2.4.2.6.1.2.1.5.1.7 0 .3-.1.5-.2.7-.2.5-.5.8-.9 1-.3.2-.6.3-.9.3-.3 0-.6.1-.8.1-.3 0-.6-.1-1-.1-.1 0-.3 0-.4-.1 0 .1 0 .1.1.2.2.4.4.7.6 1.1.3.5.7 1 1.2 1.4.4.4.8.7 1.3.9.3.1.6.3.9.4.3.1.7.2 1.1.3.3 0 .6.1.9 0 .3 0 .7 0 1-.1.3 0 .6-.1.9-.2.6-.2 1.2-.5 1.7-.9.4-.3.8-.7 1.1-1.1.3-.5.6-1.1.7-1.8.1-.4.1-.9.1-1.3 0-.5-.1-.9-.3-1.3-.2-.4-.4-.7-.5-1.1 0-.1 0-.1.1-.2.5 0 1-.1 1.4-.2.5-.1.9-.3 1.3-.5.7-.3 1.3-.6 1.9-1 .6-.4 1.2-.7 1.7-1.1.4-.3.8-.5 1.2-.8.5-.3.9-.5 1.4-.7.3-.2.7-.2 1.1-.4h.1c-.6-.1-1.1-.3-1.6-.6-.7-.5-1.1-.7-1.6-1zm-118.1-52.6c-11.6-7.7-25.5-7.9-35.2-6.6-5.2-1-9.3-1.4-11.2-1.5-.2-1.3-.7-2.3-1.5-3.1-1.7-1.7-4.2-1.5-4.2-1.5h-7l-5.3-2.2c-2.9-17.5 9.5-25.3 13.5-27.3.6-.3.9-.4 1-.5 1.3-.6 2.7-1.2 4.2-1.7 1.9-.6 3.8-1.1 5.7-1.5 2-.3 4.1-.5 6-.5 2 0 4.1.2 6.1.5 2 .4 3.9.9 5.7 1.5 2.2.8 3.5 1.5 3.5 1.5h.1c.2.1.6.3 1.7 1.1 4.1 2.7 12.7 9.3 12.8 9.4 1.8 1.2 3.9 2.5 5.3 1.4 1.6-1.4.1-5.2-.9-7.4v-.1c-2.9-5.2-6.7-9.5-11.5-13-1.7-1.3-3.6-2.4-5.5-3.4l-.5-.2c-.1-.1-.2-.1-.4-.2-2-1-4.2-1.9-6.4-2.6v-.2l-2.5-.5c-2.5-.7-4.8-1-6.5-1.2h-.2c-.4-.1-.8-.1-1.2-.1-1.7-.1-2.7-.1-2.7-.1-.9 0-1.8 0-2.8.1v-.1l-1.2.2h-.6c-2.8.2-5.6.5-8.3 1-2.7.5-5.2 1.2-7.5 1.9-19.4 6.6-26.6 22.4-28.8 28.4v-13.7c2.5-1.2 4.1-3.8 4.1-6.6 0-4.1-3.3-7.4-7.4-7.4-4.1 0-7.4 3.3-7.4 7.4 0 3 1.8 5.7 4.5 6.8v12c-2.8-7.3-9.1-15.5-9.4-16-3.9-4.7-10-8.4-18-10.8-2.3-.7-4.7-1.3-7.2-1.7-3.8-.7-7.2-1-9.4-1.2-2.2-.1-3.6-.1-3.7-.1-.9.1-1.8.1-2.6.2-3 .3-5.9.9-8.6 1.7-2.4.7-4.6 1.5-6.8 2.5-2.8 1.3-5.4 2.9-7.8 4.8-8 6.2-11.1 13.1-11.2 13.3-1.7 3.5-1.9 5.5-.8 6.6 1.5 1.4 4.3 0 5.1-.5l11.4-9.1c.2-.1.4-.3.6-.4l.2-.2c2.2-1.4 4.5-2.6 6.9-3.4 1.6-.6 3.3-1 5-1.3 2-.4 4-.6 6.1-.6 1.7 0 3.4.1 5.1.4 2 .3 4 .8 5.9 1.4 2 .7 3.2 1.3 3.3 1.3.1.1.3.1.4.2l.3.2c20.6 10.6 15.2 26.9 14.9 27.6-.2.7-1.8 1.5-2.9 1.9h-7.2c-2.4-.1-4.1.4-5.2 1.5-1.1 1.1-1 2.3-1 2.4v1.8c-1.2.1-2.9.3-5 .6-4.1-2.5-11.6-4.4-24.5.3l-.1.1c-.4.2-9 5.1-11.4 12.7-3.1-.8-7.1-1.1-11.1-1.2.5-.9.9-2 .9-3.2 0-1.7-.7-3.3-1.9-4.5-1.2-1.2-2.8-1.9-4.5-1.9-3.5 0-6.4 2.9-6.4 6.4 0 1.2.3 2.3.9 3.3-3.1.1-5.5.3-6.3.4-8.3.3-11.8 3.5-13 5.3-.6-.4-1.3-.6-2.1-.6-3.4 0-6.9 3.7-7.7 4.6-1.4.7-2.3 1.8-2.6 3-.3 1.2 0 2.4.3 3.2-4.8 2.9-28.5 19-25.1 47.4 0 .3 4.5 28.7 26.8 40 2.1 1.1 4.5 2 7 2.8 4.3 1.3 8.9 1.9 13.7 1.9.9 0 1.9 0 2.8-.1h.1c1.9-.4 6.2-1.5 6.4-3.8.1-1.9-2.2-3-4.4-3.8h-.2c-.1 0-6.7-1.3-14-5.2-1.9-1-3.8-2.2-5.5-3.4-9.8-7-14.7-16.4-14.7-27.8.2-1.3 3.3-18.7 15.6-24 .8 1.7 1.8 2.8 3 3.2.8.3 1.5.3 2.1.1l2.1 3.1c1.1 1.4 2.4 2.2 3.9 2.2h.1c3.4 0 6.3-4.1 6.4-4.3l.1-.2v-.2c1.4.9 3.2 1.5 5.1 1.7-.5.9-.8 2-.8 3.1 0 3.5 2.9 6.4 6.4 6.4s6.4-2.9 6.4-6.4c0-1.3-.4-2.5-1.1-3.6 2.3-.4 4.2-.8 5.2-1.1.1.1.1.2.2.3.8 1.3 1.9 1.8 2.4 1.9 1.3 1.1 2.7 1.7 4 1.9-.7 7.3-.4 21.8 11.3 33.8.3.3 4.3 4.4 10.4 7.5-1.5 1.4-3 2.7-4.8 3.8-3.2 2.1-6.8 3.9-10.9 5.3l-.2.1c-2.1 1.2-6.8 4.4-6.1 6.9.5 1.5 2.5 1.9 4.6 1.9h1.4c.3 0 8.5-.1 17.8-4.2 2.9-1.3 5.6-2.9 8.1-4.7 2.3-1.7 4.4-3.6 6.3-5.6 1.7-.2 3.5-.5 5.3-1.1l.3-.1s5.8-4 11.8-8.3c5.1-1.2 8.5-2.1 10.2-2.7 2.9-.6 10.6-1.8 13.2-.7-.5.7-1 1.2-1.3 1.6l-.1.2c-2 4.4.5 10.2.6 10.4l.6 1.5v1.2c-.7 1-1.3 2.2-1.6 3.5v7.8l1.5-.1-.1 4.3c-.9 1-1.5 1.8-1.5 1.9l-.2.2v.3c-.6 9.7 0 9.8.8 10h.3c.1 0 .3 0 .5-.1v2.7l-1.6 1.3.7 8.9.8.1v1.1c-3.1 2.8-2.3 8.5-2.3 8.8l.1.7h.1l1.3 7.7 1.3-.9s.1-.1.3-.2c.4.9.9 1.6 1.5 2.1 1.1 1 2.4 1.2 3.3 1.2.4 0 .7 0 .9-.1h27.4c-12.9 12.1-37 7.5-37.3 7.4h-.1c-4.7-.3-7 .3-7.5 2-.8 2.4 3.4 5.3 5.3 6.5 8.5 4.3 16.3 5.9 23.2 5.9 23.6 0 37.4-19.2 37.6-19.4.6-.8 1.1-1.6 1.6-2.4H308.5c2.8 0 4.7-.8 5.7-2.2.2-.3.3-.6.4-.9l1.3.5.4-7.9-.1-.2c-.3-.9-1-1.4-1.8-1.7v-2.9l2 2.1-.9-11.2-1.1-1.2v-7.6l1.4 1.4v-10.6l-1.4-1.4v-4.3l1.3 1.2.4-9.8-1.7-1.7v-11.4l1 .2v-5.8c-.2-.6-.5-1.2-.9-1.6v-2.8-.1c-.2-1.3-.7-2.4-1.5-3.3 2.7-3.8 15.4-9.6 23.7-12.6 6.4-1.7 8.4-8.5 8.5-8.8 1.2-4.3.7-20.3.7-21.6.3-3.3-.5-6.8-2.2-10.3 2.2-16.3-11.6-24.1-12.6-24.6zm-11.8-49c4.1 3.2 7.5 7.1 10 11.6 1 2 1.6 4.3 1.4 4.9-.2 0-1-.1-2.8-1.5-.1-.1-7.9-6.1-12.3-9l3.7-6zm-12.9-6.7c1.4.5 2.8 1 4.2 1.6l-3 7.4c-1-.3-2-.6-3-.8l1.8-8.2zm-2.9-.8l-1.8 8.5-3.3-.3-.5-9.3c1.6.2 3.5.5 5.6 1.1zm-9.8-1.4h1.3l.5 9.5c-1 0-2.1.1-3.1.2l-1.2-9.8c.8.1 1.6.1 2.5.1zm-125.1 16l-11.3 9c-1.1.6-2.4.9-2.7.7 0 0-.5-.8 1.2-4.3 0-.1 2.8-6.2 9.7-11.9l3.3 6.2c0 .2-.1.2-.2.3zm9.8-4.7l-3.3-7.4c1.2-.5 2.5-1 3.8-1.4l1.9 8.2-2.4.6zm8.7-1.5c-1.1 0-2.2.1-3.3.3l-1.9-8.5c1.7-.4 3.5-.8 5.4-1l-.2 9.2zm5.3.2c-.8-.1-1.6-.1-2.4-.2l.1-9.5c.3 0 .7-.1 1-.1 0 0 .8 0 2.2.1l-.9 9.7zm-71.3 150.3c6.7 3.4 12.4 4.6 13.2 4.8 2.7 1 3 1.7 3 1.7-.1.5-2.2 1.4-4.7 1.9-5.1.3-10-.2-14.6-1.4 1-1.9 2.3-4.9 3.1-7zm46.3 7.8c-3.4.2-4-.4-4-.4 0-.7 2.4-2.9 5.1-4.5 3.8-1.3 7.2-3 10.3-4.9 1.1 1.8 2.8 4.6 4.4 6.3-8.4 3.4-15.7 3.5-15.8 3.5zm122.9-113.9c.2 0 .4-.1.5-.1.1 0 .3-.1.4-.1.2 0 .4-.1.5-.1.1 0 .3-.1.4-.1.2 0 .4-.1.6-.1.2 0 .3-.1.5-.1s.4-.1.5-.1c.2 0 .4-.1.6-.1.2 0 .3-.1.5-.1.4-.1.7-.1 1.1-.2 9.3-1.2 22.8-1.1 34 6.3l.1.1c.1.1 11.9 6.2 12 19.4-.1-.1-.2-.2-.2-.3-.3-.4-.6-.8-.8-1.2-.2-.3-.4-.5-.6-.8-.3-.5-.7-.9-1.1-1.4-.1-.2-.3-.4-.4-.5-.1-.4-.2-.7-.2-1.1-.1-.2-.1-.5-.1-.7-.1-.3-.2-.7-.3-1-.1-.3-.2-.6-.3-.8v-.1s-.1-.1-.1-.3c-.4-1-1.5-2.7-3.6-4.7-3.6-3.7-10.4-8.5-22.3-10.9-.2 0-.4-.1-.6-.1-.5-.1-.9-.2-1.4-.3-.4-.1-.8-.1-1.2-.2-.3 0-.5-.1-.8-.1l-.4-.1h-1.7c-2.2 0-6.3.1-11.1 1-3.8.7-7.2 1.7-10.2 2.9v-2.6h.1c.1 0 .2-.1.4-.1.1 0 .2-.1.3-.1.1 0 .2-.1.3-.1.1 0 .2-.1.3-.1.1 0 .2-.1.3-.1.1 0 .2-.1.4-.1.1 0 .2-.1.3-.1.1 0 .3-.1.4-.1.1 0 .2-.1.3-.1.1 0 .3-.1.4-.1.1 0 .2-.1.3-.1.2 0 .3-.1.5-.1.1 0 .2-.1.4-.1s.3-.1.5-.1c.3.1.4.1.5 0zm45.7 17.4l-.8-.8c-.1-.1-.2-.2-.3-.2-.2-.2-.4-.4-.6-.5l-.3-.3-.5-.5c-.1-.1-.2-.2-.3-.2-.2-.2-.4-.3-.6-.5-.1 0-.1-.1-.2-.1-.2-.2-.5-.4-.7-.6l-.2-.2c-.2-.1-.3-.3-.5-.4-.1-.1-.2-.1-.2-.2-.1-.1-.3-.2-.4-.3l-.2-.2c-.1-.1-.3-.2-.4-.3-.1 0-.1-.1-.2-.1-.2-.1-.3-.2-.4-.3l-.1-.1c-.1-.1-.2-.2-.3-.2l-.1-.1c-.1 0-.1-.1-.2-.1 0 0-.1 0-.1-.1-.1 0-.1-.1-.1-.1s-.1 0-.1-.1c-.7-.5-1.3-1.1-2-1.6-.2-.2-.5-.4-.8-.5-.5-.3-.9-.6-1.4-1l-.9-.6c-.4-.3-.9-.6-1.3-.8-.3-.2-.7-.4-1-.6-.3-.2-.7-.4-1-.6 0 0 .1 0 .1.1.6.2 1.2.5 1.8.7.1 0 .1.1.2.1.5.2 1 .5 1.5.7.1.1.3.1.4.2.5.3 1 .5 1.5.8l1.5.9c.1 0 .1.1.2.1.4.3.9.5 1.3.8h.1c5 3.5 7.1 6.8 7.6 7.8zm-51.3-19.8c1.1.1 2.9.2 5.1.5-.5.1-1 .2-1.4.3-.1 0-.2 0-.3.1-.4.1-.9.2-1.2.3-.1 0-.2 0-.2.1-.4.1-.8.2-1.1.3-.1 0-.1 0-.2.1-.2.1-.4.1-.6.2l-.1-1.9zm-13.2-4.5c0-.1 0-.1-.1-.2h7.6s1.7-.1 2.7 1c.7.8 1.1 1.9 1 3.6v7.7s0 .3-.3.6-1.1.8-2.7 1.1c-.5-.2-1.1-.3-1.7-.3h-18.4c1.1-1.3 2.7-2.7 4.8-4.5 1.3-1.1 2.8-2.4 4.5-3.9 2.1-1.8 2.9-3.5 2.6-5.1zm-63.9 38c-1.9 0-3.5-1.6-3.5-3.5v-15.6c0-1.3.7-2.4 1.8-3H276.8c1 0 1.8-.1 2.6-.2 1.2.5 2.1 1.7 2.1 3.2v15.6c0 1.9-1.6 3.5-3.5 3.5h-70.4zm39.4 5.7c0 3-2.4 5.4-5.4 5.4-3 0-5.4-2.4-5.4-5.4 0-1.4.6-2.7 1.5-3.7h7.8c.9 1 1.5 2.3 1.5 3.7zm22.6-43.3c.2.9-.5 2-1.9 3.3-1.7 1.5-3.2 2.8-4.5 3.9-2.8 2.3-4.8 4-6 5.9l.1.1h-4c1.9-3.2 7.7-11.6 15.5-13.8l-.2-.6c.4.1.9.6 1 1.2zm18.5-47.5l1.2 10.1c-1 .2-2 .4-2.9.7l-3.3-10.2c1.6-.3 3.3-.5 5-.6zm-8 1.2l3.5 10.6-3 1.2-4.9-10.7c1.4-.4 2.9-.8 4.4-1.1zm-43.9 7.7c0-3 2.4-5.4 5.4-5.4 3 0 5.4 2.4 5.4 5.4 0 2.3-1.4 4.2-3.5 5l-.6.2V142h-2.1v-16.6l-.7-.2c-2.4-.7-3.9-2.8-3.9-5.2zm-37.4 2.1c-1.1-.3-2.2-.6-3.4-.8l1-9.9c1.6.1 3.7.4 5.9.7l-3.5 10zm4.6 1.6c-.4-.2-.9-.4-1.7-.7l3.6-10.3 3.9.9-5.8 10.1zm17 30.6c.1-.2 6-17.7-14.4-29.2l6.1-10.6c6.9 2.3 12.2 5.5 15.6 9.6.1.1 8.1 10.6 10 18.1.2.6.5 1.2.9 1.6l.1.1h5.5c.2 0 .3 0 .5-.1l.1.1v-.1c.2-.1.4-.1.5-.2.4-.3.7-.7.9-1.2 1.1-3.7 7.1-20.8 26.6-28.1l5.1 11.1c-5.2 3-16.3 11.7-13.1 29.3l.1.5 2.4 1c-9.2 3.1-15.2 13.5-16.3 15.5h-14.7c-1.1-2-7.5-12.9-17.1-15.7.5-.5 1-1.1 1.2-1.7zm-2.8 4.3c.1-.6.6-1 1-1.3l-.2.6c7.8 2.2 13.6 10.6 15.5 13.8h-4l.1-.1c-1.2-1.9-3.2-3.6-6-5.9-1.3-1.1-2.8-2.4-4.5-3.9-1.4-1.2-2.1-2.4-1.9-3.2zm-13-.1c.5-.4 1.5-1 3.7-.9h7.5c-.1.2-.1.4-.2.6-.3 1.6.6 3.3 2.6 5.1 1.7 1.5 3.2 2.8 4.5 3.9 2.1 1.8 3.7 3.1 4.8 4.5h-20c-.7 0-1.4.1-2.1.4-.6-.1-1.4-1-1.4-3.3v-9.3c.1-.1.1-.6.6-1zm-2.4 11.2c.2 1.9.8 3 1.5 3.6-1 1-1.6 2.3-1.6 3.8v15.6c0 3 2.5 5.5 5.5 5.5h27.6c-.6 1.1-1 2.3-1 3.7 0 4.1 3.3 7.4 7.4 7.4 4.1 0 7.4-3.3 7.4-7.4 0-1.3-.4-2.6-1-3.7h30c3 0 5.5-2.5 5.5-5.5v-15.6c0-1.4-.6-2.8-1.5-3.7.8-.3 1.5-.7 2-1.3.2-.3.4-.5.5-.8 3.1-1.4 6.6-2.5 10.6-3.2 24 6.5 37.1 18.2 37.3 18.4 1.8 1.4 3.3 3.9 4.4 7.3-2.5 13-15.5 23.3-15.6 23.4l-.1.1c-5.8 6.8-9.8 14.7-12.2 20.2-2.7 2.4-4.2 5-5 7-.2 0-.3.1-.4.1h-3l-1.8-1.9-9.7.8.9 1h-3.8c-1-1.7-2.2-2.6-3.6-2.7-2.5-.2-4.4 2.3-4.6 2.5l-.1.1H274l-1.4-1.4h-9.8l1.2 1.3h-5l-1.2-1.3-8-.4c-2.2-2.5-5.8-5.2-11.1-5.2h-.2c-.5.1-11.5 2.6-20.3 10.8l-.1.1s-.6.8-1.7 2c-2.2.6-4.2 1.1-6.2 1.7h-.1s-.8.3-2.1.6c2.1-5.4 3.3-11.4 3.7-18.2.2-2.4 2.6-36.5-33.2-48.1-.3-3.8-3.1-5.5-3.6-5.8-.1-.1-.2-.1-.2-.1 6-5 18.5-14.2 27.5-10.7zm132.9 56l-16.3 6.6.1-.1c.2-.3.4-.6.5-.9 0-.1.1-.1.1-.2l.6-.9c0-.1.1-.1.1-.2.2-.3.4-.6.5-.8v-.1c.2-.3.3-.5.5-.7 0-.1.1-.1.1-.2.2-.2.3-.4.5-.6 0 0 0-.1.1-.1.1-.2.3-.4.4-.5v-.1c.1-.2.2-.3.3-.4v-.1c.1-.1.1-.2.2-.2l1.2-.9.2-.2c.4-.3.8-.7 1.1-1 .1-.1.2-.2.3-.2.4-.4.8-.7 1.1-1.1l.2-.2c.4-.4.8-.9 1.2-1.3l.1-.1c5-5.4 9.3-12.1 10.8-14.6v.8c0 .5.1 1 .1 1.5V209.6c.1 1.8.1 3 .1 3.1.8 12.1-4.1 13-4.1 13zm2.9-21.2s-.1.2-.3.5c-1.6 2.5-9.2 14.6-16.2 19.7l-.2.2s-.2.3-.6.8c-.1.1-.2.2-.3.4 0 0 0 .1-.1.1-.1.1-.2.2-.3.4l-.1.1c-.1.1-.2.2-.3.4 0 .1-.1.1-.1.2-.1.1-.2.3-.3.4 0 .1-.1.1-.1.2-.1.1-.2.3-.3.4-.1.1-.1.2-.2.2-.1.1-.2.3-.3.4-.1.1-.1.2-.2.3-.1.1-.2.3-.3.4-.1.1-.1.2-.2.3-.1.2-.2.3-.3.5-.1.1-.1.2-.2.3-.1.2-.2.3-.3.5-.1.1-.1.2-.2.4s-.2.3-.3.5c-.1.1-.2.3-.2.4-.1.2-.2.3-.3.5-.1.1-.2.3-.2.4-.1.1-.1.2-.2.3-.3.1-.6.3-.9.4-.3.1-.5.2-.8.3l-1.2.6-.6.3h-.1c2.4-5 5.8-11.1 10.4-16.4 1.1-.9 11.6-9.5 15.3-21.1 0 .1 0 .2.1.3l.3 1.5c.1.3.1.7.2 1 .1.6.2 1.2.3 1.7 0 .3.1.5.1.8.1.3-.2.8-.5 1.4zm-94.7 44.8c.2-.5.6-1 1-1.4 1.1-1.1 2.7-1.7 4.9-1.7.4 0 .9 0 1.3.1h1.4l5 6.2 9.5-.4-5.5-5.7h4.9l5.2 5.8-5.2 5.8c-4.6-3.7-14.6-7.7-17.3-8.8l-.7-.3-1.3-.5v.4c-1.2.2-2.5 1.1-3.6 2.1.2-.4.3-1 .4-1.6zm-.4-2.8c-.1.1-.2.2-.3.4-.3-.3-.8-.6-1.4-.7h-.2c-.1 0-4.5.4-10.8 1.4.3-.2.5-.4.6-.5.8-.4 7.1-4 11.5-2.6.8.2 1.4.6 1.9 1.2-.6.1-1 .4-1.3.8zm19.1 3.8l-4.1.2-4.5-5.6 3.6.2 5 5.2zm-2.7-5.7c.2.1.3.2.4.3.2.2.3.3.4.5l-.8-.8zm8 .5h4.5l2.9 2.9-2.4 2.7-5-5.6zm-18.9 6.3c3.3 1.3 12.1 5 16.1 8.1l-3.5 3.9c-2.7-2.6-7.4-6.4-12.8-7l.2-5zm14.2 13.3l-.2.3v-.1l.2-.2zm-1.5 1.7c.5.5.8.9.8.9l.9 1.2 4.8-8.8-.3-.3 12.3-13.8c.4-.5 1.7-1.9 2.9-1.8.7 0 1.4.6 1.9 1.7l5.6 11c-2.7 1.3-5.7 5.5-8.1 9.5-2.3.3-4 .4-4.9.4-.2-.6-.7-1.5-1.2-1.4-.8.1-.5 2.2-.5 2.2-.9 6.3-13.8 10.3-18.7 11.3l-.6.1-1.8-2.6h-.1c-.1-.1-.3-.4-.3-.7 0-.5.3-1.1.9-1.7l6.4-7.2zm15-20zm21.8 6.4l7.6-.7c-5.8 8.6-14.6 12-21 13.3 2.9-4.5 5.2-6.8 6.5-7.3.7.9 1.7 2.3 2.7 3.9.5-.4 1.1-.7 1.9-.8-.1-.1-.2-.3-.3-.4.1-.1.2-.1.3-.2-1.5-2.4-3-4.1-3.2-4.3l-.2-.3h-.2l-4.9-9.6h4.7l6.1 6.4zm-4.6-7.6l4.6-.4 5.4 5.6-4.6.4-5.4-5.6zm-17 24.9c.4 1.4.7 3.1.1 4l-14.2 8.9c-.8.4-1.6.8-2.3 1.2l-.3-.5-1.4-3.6c3.6-.9 14.7-4 18.1-10zm-15.5 16.3l2.5-1.6c5.6-2.9 11.3-6.7 13.3-8.1-3 5.6-7.6 14.7-8.5 16.4-1 .2-1.9.2-2.8 0l-.3-.1s-1.5-.1-2.9-.9c-.5-.6-.9-1.3-1.3-2.2 0 0-.8-2.1 0-3.5zm19.7-12.9c4.6-.3 11-2.9 16-5.4.2.8.3 1.5.3 2.3-.2 1.4-.8 2.4-2 3.3l-.1.1-.3.3-23.7 18c3.9-7.6 9.2-17.8 9.8-18.6zm-1.8-2.1c-.2-1.2-.5-2.3-.9-3.1 4.7-.2 18.8-1.6 27.9-13 .2 2.4.1 5.6-1.8 6.5-.1.1-17.6 10.6-25.2 9.6zm23.7-24.8h1.3c1.3-.3 5.2-.8 7.4.7.9.6 1.4 1.5 1.6 2.7v1.5c-2-.6-4.4-.2-5.5.1-.1-.4-.2-.8-.4-.9-.1 0-.2 0-.3.1l-4.1-4.2zm-89 6.6l-.1.1c-.2.2-.5.4-.7.6-.1.1-.2.2-.4.3-.2.2-.5.4-.7.6-.1.1-.3.2-.4.3-.3.2-.6.4-.8.6-.1.1-.3.2-.4.3-.3.2-.6.4-1 .6-.1.1-.2.1-.3.2-1.4.3-2.3.5-2.3.5h-.3c.4-.8.8-1.6 1.2-2.5 2.1-.4 3.4-.8 3.7-.9.8-.2 1.6-.4 2.5-.7zm-35.4-5.3c-5.9-6.2-8.6-13.1-8.7-13.2-.8-1.7-1.5-3.5-2.2-5.3-1-2.6-1.8-5.2-2.4-7.8.6-.2 1.2-.5 1.7-.9 3.3 13.2 9.7 22 9.8 22.1 4.3 5.8 9.2 9 14 10.8l.1-.1c-.6 1.3-1.3 2.6-2.2 3.9.3-.6.6-1.1.9-1.7-3.9-1.6-7.6-4.2-11-7.8zm10.1 9.5c-.2.3-.4.7-.7 1-1.2-.7-2.4-1.5-3.5-2.4l-.1-.1-.2-.1h-.1-.1-.1s-.1 0-.1-.1h-.1c-.1 0-.1-.1-.2-.1h-.1c-.1 0-.2-.1-.3-.1h-.1c-.1-.1-.2-.1-.3-.2 0 0-.1 0-.1-.1-.1 0-.2-.1-.3-.1-.1 0-.1-.1-.2-.1s-.2-.1-.3-.2c-.1 0-.1-.1-.2-.1-.1-.1-.2-.1-.3-.2-.1 0-.1-.1-.2-.1-.1-.1-.3-.2-.5-.3l-.1-.1c-.2-.1-.3-.2-.5-.3-.1 0-.1-.1-.2-.2s-.2-.2-.4-.3c-.1-.1-.2-.1-.2-.2-.1-.1-.2-.2-.4-.3-.1-.1-.2-.1-.3-.2-.1-.1-.3-.2-.4-.3-.1-.1-.2-.1-.2-.2-.2-.2-.4-.3-.5-.5l-.2-.2-.6-.6c-.1-.1-.2-.2-.2-.3l-.4-.4-.3-.3c-.1-.1-.3-.3-.4-.5l-.3-.3c-.1-.2-.3-.3-.4-.5-.1-.1-.2-.2-.2-.3-.2-.2-.4-.5-.6-.8 0-.1-.1-.1-.1-.2l-.6-.9c-.1-.1-.1-.2-.2-.4s-.3-.4-.4-.7c-.1-.1-.2-.3-.2-.4-.1-.2-.2-.4-.4-.7-.1-.1-.2-.3-.2-.4-.1-.2-.2-.5-.4-.8-.1-.1-.1-.3-.2-.4-.2-.4-.3-.8-.5-1.1v-.1c-.2-.4-.3-.9-.5-1.3-.1-.1-.1-.3-.2-.4-.1-.2-.1-.4-.2-.6 0 .1.1.1.1.2.1.2.2.3.3.5.1.1.1.3.2.4.1.2.3.5.4.7.1.2.2.4.4.6.1.2.2.3.3.5.1.2.2.4.4.5.1.2.2.3.3.5.2.3.4.6.7 1 .1.2.2.3.3.5.1.2.3.4.4.6.1.2.2.3.4.5s.3.4.5.6c.2.3.5.6.8.9.2.2.3.4.5.6.1.2.3.3.4.5.2.2.4.4.5.6l.6.6.9.9.6.6.6.6.6.6c.3.2.5.5.8.7.3.2.6.5.9.7.2.2.4.3.6.5.2.2.5.4.7.5.2.2.4.3.7.5.4.3.9.6 1.3.8.2.1.4.2.6.4.3.2.6.3.9.5.2.1.5.2.7.4.4.2.7.3 1.1.5.2-.1.4 0 .5 0zm-10.2-15.8c-.1-.2-6.7-9.2-9.7-22.4.5-.6 1-1.2 1.2-1.6.2 0 .5-.1.7-.3 1.2-.7 2.3-3.1 3.3-6.3 4.3 1.2 15.6 5.1 18.9 14.7 0 .2 3.9 13.3-1.2 26-4.5-1.6-9.2-4.7-13.2-10.1zm-7.3-28.5c1-4.9-1.1-11.4-1.2-11.7-2.1-6.4-1.7-17.9-1.6-20.6.3-.1.7-.2 1.4-.2 1.1 0 2.7.4 5 1.7l.1.1c.2.1 4.4 2.2 1.6 8.6l-.1.3c-1.4 8.3-3.5 17.4-5.2 21.8zm-3.8-35.1c-.1-.1-.2-.3-.3-.4 2-3.4 7.2-10.9 14.3-11.4h.2s1.3-.4 2.9-.6c-7.2 3.1-12.9 7.5-16.9 13.2-.1 0-.2.1-.3.1l.1-.6v-.3zm30.4-14.1c2-.3 3.7-.5 4.9-.6v4.3c-10.3-3.3-23.6 6.9-29.2 11.8-1.2-.5-2.2-.7-3-.8 4.5-5.7 11-10 19.3-12.7 2.6-.8 5.2-1.5 7.9-1.9l.1-.1zm-23.7.1c10-3.7 16.5-3.1 20.5-1.5-.1 0-.3.1-.4.1-.6.1-1.1.3-1.7.4-.2.1-.5.1-.7.2-.6.2-1.3.4-1.9.6-.1 0-.2.1-.3.1-3.6-.8-7.5.2-8.3.4-7.9.6-13.4 8.2-15.7 12.1-.5-.3-1.2-.6-1.8-.8 2-6.6 9.5-11.1 10.3-11.6zm-29 2.2c1.2 0 2.3.5 3.1 1.3.8.8 1.3 1.9 1.3 3.1 0 1.2-.5 2.3-1.2 3.1.2 0 .4 0 .6.1-2.5 0-5 0-7.2.1h.5c-.8-.8-1.3-1.9-1.3-3.1-.2-2.6 1.8-4.6 4.2-4.6zm-33.7 98.1c1 .8 2 1.7 3.1 2.5-.5 2.1-1.7 5.5-3.9 8.4-2-1-3.8-2.2-5.5-3.5 1.9-1.8 5.3-6.1 6.3-7.4zm-8.8-38c-2.6 5.8-3.4 10.9-3.4 11.1v.1c0 9.9 3.5 18.4 10.4 25.2l-.5-.4c-2.1 2.7-5.4 6.7-6.4 7.4l.1.2c-14.5-12.6-17.7-32.9-17.8-33.1-3.3-27.5 20.2-43 24.3-45.4 2.4 2.9 5.2 13.3 6.6 20l.1.4c-5.5 2.4-10.2 7.4-13.4 14.5zm19.2-11.4s-.6.3-1.3.1c-1-.4-1.9-1.8-2.6-3.9-.6-3.1-3.9-18.3-7.7-21.5-.2-.3-.7-1.4-.4-2.4.2-.7.8-1.4 1.8-1.8l.2-.1.1-.1c1-1.1 4.1-4.1 6.4-4.1.2 0 .4 0 .6.1h-.5c0 1.1.8 24 3.5 33.8l-.1-.1zm10.7 2.1c-.8 1-2.8 3.2-4.6 3.2-.8 0-1.6-.4-2.3-1.3l-1.7-2.5.5-.2c-2.6-6.2-3.7-25.5-4-32.6 1 1.8 3 5.5 5.1 9.9 2.1 5.7 4.5 12.8 6.8 19.9.2 1.3.3 2.5.2 3.6zm12.6 9.7c-2.4 0-4.4-2-4.4-4.4 0-1.1.4-2.1 1.1-2.9h1.1c1.7 0 3.4-.1 5.1-.3.1 0 .1.1.2.1.8.8 1.3 1.9 1.3 3.1 0 2.5-2 4.4-4.4 4.4zm10.1-15.7c-.4 1.9-.5 3.5-.3 4.9-5 1.2-15.8 3-19.8-.3-.1-.5-.4-1.4-.8-2.6-.8-6.3-4-14.1-7-20.4-2-5.4-3.4-8.4-4.3-10.1-.1-.2-.2-.3-.3-.5-.3-.5-.6-.9-.8-1.1.9-1.3 3.8-4.3 11.6-4.6 11-.9 29-1 31.9 2.5l-.3 1.6c-.1.2-.3.7-.6 1.5-4.6 7.3-8.8 26.6-9.3 29.1zm4.1 7.3l-.2-.1-.2-.1c-.1 0-1.1-.3-1.7-1.7.4-9 6.8-27.1 9-33.3-.1 4.6 0 13.4 1.8 18.9.9 2.6 2.6 10.1.2 13.1l.6.5-.3.5s-1.7 3.2-4.5 3.7c-1.4.3-3.1-.2-4.7-1.5zm26.9 42.5c-.2.2-.4.5-.7.7-6.3-3-10.4-7.3-10.5-7.4-9.9-10.1-11.3-22.3-10.9-29.7.1.2.1.4.2.6.1.4.2.8.4 1.2.1.4.2.8.4 1.2.3.8.5 1.6.8 2.4v.1c0 .3.1.6.1 1 0 .3.1.6.1 1 0 .3.1.7.2 1 0 .3.1.6.1.9.1.3.1.6.2 1 .1.3.1.6.2.8.1.3.2.6.2 1 .1.2.1.5.2.7l.3.9c.1.2.1.5.2.7l.3.9c.1.2.1.4.2.6l.3.9c.1.2.1.4.2.6.1.3.2.6.4.9.1.2.1.3.2.5.1.3.3.6.4.9.1.1.1.3.2.4.1.3.3.6.4.8.1.1.1.3.2.4.2.3.3.5.5.8.1.1.1.2.2.4.2.3.3.5.5.8.1.1.1.2.2.3.2.3.4.5.5.8.1.1.1.2.2.2.2.3.4.5.6.8 0 .1.1.1.1.2.2.2.4.5.6.7 0 .1.1.1.1.2.2.2.4.5.6.7l.1.1c.2.2.4.4.6.7l.1.1.6.6.1.1c.2.2.4.4.7.6l.1.1c.2.2.5.4.7.6 2.8 2.2 5.1 3.2 5.8 3.4 1.2.9 2.3 1.7 3.4 2.4-.2-.1-.4.2-.6.4zm6.6 9.7c-.2.1-.4.3-.6.4-2.1-2.4-4-5.5-5.3-8l.8-.8c.3-.4.7-.8 1-1.2 1.7 2.4 6 5.5 7.7 6.7-1.1 1-2.3 2-3.6 2.9zm5.1-4.3c-2.8-1.9-7.1-5.3-7.8-6.9l-.2.1c10.5-15.2 5-34 4.9-34.2-3.6-10.6-15.4-14.8-20.2-16 1.9-6.5 3.3-14.9 3.7-17.5.5-1.2.8-2.2 1-3.2 34.6 11.6 31.3 45.6 31.3 45.9-1 13.5-5.2 24.1-12.7 31.8zm18.8-11c-5.6 4-11 7.7-11.9 8.4-.9.3-1.7.5-2.6.6.7-.9 1.4-1.8 2-2.7 1.9-.7 3.6-1.5 5.2-2.5.2-.1.4-.2.5-.3h.2l4.9-3.1-.9.2c1.7-1.4 3.1-2.8 4.2-3.8l.2-.2 2.2-2.3h-.1c7.9-7.1 17.8-9.7 19-10 4.7 0 7.8 2.5 9.7 4.8-.9 0-1.8.2-2.6.4-.9-1-2-1.8-3.3-2.2-5.4-1.7-12.8 2.7-13.1 2.9l-.1.1c-.5.4-1.8 1.4-3.9 3-2.4 1.6-5.5 3.8-9.6 6.7zm10.7-2.8h-.1c-1 .4-2.7.9-5.2 1.5.8-.6 1.5-1.1 2.2-1.6l.2-.2c.3-.2.6-.4.8-.6.1-.1.2-.1.3-.2.3-.2.5-.4.7-.5.1-.1.2-.1.3-.2.2-.1.4-.3.5-.4 7.5-1.4 13.3-1.9 14.3-2 .3.1.4.2.4.3 0 .1.1.2.1.4-.3.8-.6 1.6-.7 2.3-.1.1-.1.3-.2.4-4-1.1-12.6.6-13.6.8zm14.1 3.9c1.8-2.4 4.2-4.8 5.5-5.4l-.2 4.7-.1 1.3c-1 .9-3.7 3.5-5.3 6-.5-1.8-.8-4.5.1-6.6zm5.6 9.2v5.4c-1.8.9-4.1 3.2-5.8 5.1v-3.7c1-3.5 4-5.7 5.8-6.8zm-6.1 21.4c.6-.8 3-3.6 5.9-5.5l.5 5.9c-1.4 1-4.6 3.5-6.5 5.6-.1-1.6 0-3.9.1-6zm5.5 9.7l.2 4.3c-1.1 1-3.6 3.2-5.3 5.2l-.4-5 5.5-4.5zm-3.9 14.7l4.2-1.9v4.8c-2 1.6-5 3.6-6.8 3.8-.1-1.6 0-5.5 2.6-6.7zm-1.5 13l-.6-3.6c2.2-1.6 4.9-.8 6-.4v2.6c-2.3 0-4.2.8-5.4 1.4zm5.7 3.4h-.2c-.1 0-1.4.3-2.6-.7-.4-.3-.7-.8-1-1.3-.3.2-.7.4-1.1.4 1.2-.6 3.3-1.5 5.4-1.1l1.2.2v-6.1l-.5-.3c-.1-.1-1.2-.6-2.8-.9 1.5-1 2.8-2 3.3-2.4l.4-.3v-8.8l-6.4 2.8v-1.1c1.3-1.7 4-4.3 6-5.9l.4-.3-.4-9.3-5.8 4.8v-3.5c1.7-1.7 4.5-3.9 6.4-5.3l.4-.3-.8-10.1-1.3.7c-1.7.9-3.3 2-4.5 3.2l.1-4.7c2.1-2.4 4.4-4.5 5.5-4.8l.8-.2v-10l-1.4.5c-.2.1-2.5 1-4.7 3.1v-2c1.3-2 3.8-4.5 5.1-5.7 5 .4 9.6 4 12.2 6.5l-6.4 7.2c-1.8 1.8-1.5 3.4-1.2 4.1.1.2.4.9.9 1.2l4.9 7.1.6 1.5c-.7 2.2-.6 4.1.4 5.6.5.8 1.2 1.4 2 1.9.9 1 1.9 1.7 3.1 2.1.6.2 1.3.3 1.9.3 2.4 0 4.4-1.1 5.2-1.6 2.3-.8 4.8-2.1 7.3-3.7 8.2 12.6 1.4 30.3 1.3 30.6-1 2.5-2.4 4.7-3.9 6.5l-29.8.1zm47 3.2c-.2.3-22.2 30.9-58.2 13-2.6-1.6-4.6-3.6-4.4-4.2 0 0 .4-.7 3.6-.7.5 0 1.1 0 1.8.1 1.8.3 35.8 6.4 45.3-17.1.1-.2 7.4-19-1.4-32.5 5.8-4.1 11.3-9.3 14.2-12.2 2.7 6 13.8 33.6-.9 53.6zm19.6-5c-.1.2-.1.3-.2.5-.7 1.1-2.5 1.3-4 1.3h-11c11.5-21.2-.1-47.9-2-51.9l.2-.2c1.5-.8 2.5-2 2.9-3.7.1-.4.1-.9.1-1.3v-.2c.1-1.1 0-2.2-.3-3.3 3.5-1.8 6.1-3.4 6.3-3.5 1.9-.9 2.6-3 2.8-5l5 1v9.8l-5.3-5.5-.8 10.1 6.1 5.9v4.2l-5.7-5.6-.4 10.2 6 6v7.6l-5.8-6 .4 10.8 5.3 5.5v4.5c.2 0 .4 0 .6.1-2.7-.4-6.2.7-6.7.9l-.7.2.4 6.8 1-.1c1.9-.2 4.6.7 6.2 1.2-.1-.2-.2-.3-.4-.3zm1.2-32.8l-5.4-5.4.2-4.7 5.2 5.2v4.9zm.1 18l-4.9-5.1-.2-4.7 4.7 5 .4 4.8zm0 13c-1.5-.6-4-1.4-6.2-1.4l-.2-3.2c2.5-.7 5.9-1.1 6.6.1l-.2 4.5zm0-45.7l-5.5-5.3.4-4.8 5.3 5.5-.2 4.6zm-.4-23.7v3l-5.5-1.1-.2-3c1.4-.3 3.7-.5 4.9.2.5.2.7.5.8.9zm30.4-51.4v.1c0 .2.6 16.9-.6 21.1 0 .1-1.8 6-7.1 7.4-2.2.8-20.4 7.7-24.7 13.3-1.7-.9-3.8-1.1-5.5-1 .8-1.7 2.1-3.6 4.2-5.4 1.3-1.1 2.8-2.1 4.6-2.9.6-.3 1.2-.5 1.8-.8l.3-.1c.2-.1.5-.2.8-.3l17.6-7.1c1.1-.2 6.6-2 6-15.2 0-.2 0-4.2-.6-9.2v-.3l-.4-3.4-.1.2c0-.1 0-.3-.1-.4-.4-2.2-.9-4.1-1.5-5.9-1.3-3.9-3-6.7-5.1-8.4-.5-.5-12.1-10.8-33.7-17.5h.5c.4 0 .8-.1 1.1-.1h.2c.4 0 .8-.1 1.2-.1h4.8c.5.2 1.1.4 1.6.6.4.1.8.3 1.2.4.6.2 1.1.4 1.7.7.4.1.7.3 1.1.4.6.2 1.1.5 1.7.7.3.1.7.3 1 .4.6.3 1.1.5 1.6.8.3.1.6.3.9.4.5.3 1.1.6 1.6.9.3.2.5.3.8.4.5.3 1 .6 1.6 1 .2.1.5.3.7.4.6.4 1.1.8 1.7 1.2.1.1.3.2.4.3.7.5 1.4 1 2 1.6 0 0 .1.1.3.2 1.1.8 5.7 4.2 9.8 9 2 2.4 3.6 4.7 4.7 7 1.5 3.4 2.2 6.6 1.9 9.6zm107.6-28.5l-1.1.2c.3 1.7.3 2.9 0 3.6-.2.5-.6.9-1.1 1-.9.2-3-.2-6.3-1.2l-13.2-4 11.1-9.6c2.4-2.1 3.9-3.2 4.6-3.3.4-.1.8.1 1.2.4.4.4.8 1.1 1 2.1l.2.8 1-.2-4.4-17.7-1 .2c.3 1.2.2 2.2-.2 3-.4.8-2 2.5-4.8 4.9l-14.3 12.4-7.7 1.7c-1.9.4-3.1.6-3.6.5-.7-.1-1.3-.4-1.6-.8-.6-.5-1-1.4-1.2-2.5l-.5-1.9-1.1.2 5.1 20.7 1.1-.2-.5-2.1c-.2-1-.2-1.8 0-2.5s.5-1.2 1-1.5c.4-.3 1.6-.7 3.6-1.1l9.3-2.1 15.9 4.9c4 1.2 6.5 2.1 7.6 2.8.7.5 1.3 1.4 1.8 2.6l1-.2-2.9-11.1zm-26.8 104c-4.1-1-7.8-.5-11.2 1.5-3.4 2-5.6 5.1-6.6 9.4-1.2 3.9-.8 7.5 1.2 10.9 2 3.4 5.1 5.6 9.1 6.6 3.6.9 7 .6 10.2-.8 4-1.8 6.7-5.1 8-9.9 1.3-4.8.5-8.9-2.3-12.4-2.1-2.7-4.9-4.4-8.4-5.3zm9.3 17.4c-.5 2-1.7 3.4-3.6 4.1-2.7 1-6.3 1-11-.2-3.9-1-6.8-2.3-8.7-3.8-2.2-1.9-3-4.1-2.4-6.5.4-1.3 1-2.4 2-3.2 1-.8 2.5-1.4 4.5-1.6 2-.2 4.8.1 8.4 1 3.1.8 5.4 1.7 7.2 2.8 1.7 1.1 2.9 2.4 3.4 3.7.5 1.1.5 2.4.2 3.7zm-26.1 55.7c-.8.1-2.4-.1-4.8-.7l-24.5-6.3-.2.3 11.4 21.4c1.1 2 1.7 3.5 1.8 4.4.1.9-.1 1.8-.6 2.7l.6.5 5.9-7.2-.6-.5c-1 1.1-1.7 1.7-2.1 1.8-.7.3-1.4.1-2-.3-.5-.4-.9-1-1.4-1.8l-1.4-2.6 6.2-7.6 3.7 1c1 .3 1.5.4 1.6.5.3.1.5.2.7.4.3.3.5.6.5.9 0 .5-.4 1.2-1.1 2l-.4.4.6.5 8.5-10.4-.6-.5c-.5.6-1.1 1-1.8 1.1zm-18.7 10.2l-4.9-9.2 10.3 2.7-5.4 6.5zm-13.8-6.1c-.1-1.2.1-2.2.7-3l-.6-.5-6.5 6.5.6.5c.7-.7 1.3-1.2 1.9-1.4.4-.2.8-.3 1.2-.2.4.1.7.2 1 .5.3.2.5.6.8 1.1.3.5.7 1.4 1.3 2.9l5.1 12.4-14.3-5.3c-1.5-.6-2.4-.9-2.8-1.1-.3-.2-.6-.3-.8-.5-.3-.3-.4-.6-.3-1 .1-.5.6-1.2 1.4-2.1l.3-.3-.6-.5-9.5 9.5.6.5c.9-.7 1.6-1 2.2-1 .6 0 2.3.6 5.1 1.6l22.9 8.5.5-.5-8.8-21.5c-.7-2.5-1.3-4.2-1.4-5.1zm43-20.8c-.4.7-.8 1.2-1.3 1.4-.5.3-.9.4-1.3.3-.4 0-1.2-.4-2.5-1.1l-19.1-10.4 1-1.8c.6-1.1 1.2-1.9 1.7-2.2.9-.6 1.8-.9 2.7-1 .9-.1 2.3.1 4.1.6l.4-.6-6.7-3.7-12.5 21.6 6.7 3.7.4-.7c-1.7-1.3-2.7-2.7-3.1-4.2-.3-1.1 0-2.5 1-4.1l1-1.7 19.1 10.4c1.2.7 2 1.2 2.2 1.5.3.4.5.8.5 1.2 0 .6-.2 1.2-.6 1.9l-.5.8.7.4 7.3-12.6-.7-.4-.5.7zM71 380c-2-.4-3.8-1.5-5.6-3.5l-1.1-1.2c-.5-.6-.8-1.1-.9-1.5-.1-.4 0-.8.2-1.1.2-.3.8-1 2-2l6-5.1c.9 1 1.4 1.9 1.6 2.6.2.8.1 1.7-.3 2.7-.4 1.1-1.2 2.2-2.3 3.3l.5.6 11.2-9.5-.5-.6c-1.8 1.2-3.4 1.9-4.8 2.1-1.4.1-2.7-.5-3.8-1.8l-.4-.4 8.7-7.4 1.9 2.1c1.4 1.6 2.3 2.7 2.6 3.5.6 1.2.8 2.4.6 3.5-.2 1.1-.9 2.5-2.2 4.1l.5.6 6.3-5.4-15.6-17.4-.6.5.6.7c.6.7.9 1.3 1 2 0 .4-.1.9-.3 1.3-.2.2-.7.8-1.7 1.6l-14 12c-1.1.9-1.8 1.4-2.1 1.5-.5.2-.9.2-1.3 0-.6-.2-1.1-.6-1.6-1.2l-.6-.7-.6.5 16.1 17.9 7.6-4.8-.5-.6c-2.5 1.2-4.7 1.5-6.6 1.1zm348.3-127.4c-.5-.3-.8-.7-1-1.1-.2-.4-.2-1.2-.2-2.4l-.8-.1-1.6 9 .8.1c.2-1.5.8-2.5 1.7-3 .7-.4 1.8-.4 3.5-.1l12 2.1-19.7 10.3-1.7 9.6.8.1c.2-.8.4-1.4.7-1.8.3-.4.9-.8 1.7-1.3l.8-.4 19.7 3.5c1.5.3 2.5.7 3 1.4s.6 1.8.4 3.3l.8.1 1.7-9.6-.8-.1-.1.6c-.2.9-.6 1.7-1.3 2.3-.7.6-1.8.8-3.4.5l-17.7-3.1 26.5-14.3.1-.7-23.2-4.1c-1.2-.2-2.2-.5-2.7-.8zM210.7 36.9c-1.8 0-3.1-.3-3.9-.9-.8-.6-1.4-1.3-1.6-2.3-.1-.4-.1-1.6-.1-3.4V3.6l15.1 34.3h.7l14.9-34.6v28.1c0 1.9-.1 3.1-.3 3.5-.3.6-.7 1.1-1.1 1.3-.7.4-1.6.6-2.8.6h-1.3v1h20.3v-1h-1.3c-1.1 0-2-.2-2.6-.5-.7-.4-1.1-.8-1.3-1.3-.2-.5-.3-1.7-.3-3.6v-25c0-1.9.1-3 .3-3.5.3-.6.7-1.1 1.1-1.3.7-.4 1.6-.6 2.8-.6h1.3V0h-15.8l-10.6 25-10.9-25h-15.9v1h1.2c1.1 0 2 .2 2.6.5.7.4 1.1.8 1.3 1.3.2.5.3 1.7.3 3.6v24c0 1.7 0 2.6-.1 2.9-.2.9-.5 1.6-.9 2-.4.5-.9.9-1.7 1.2-.7.3-1.5.4-2.4.4h-.4v1h13.3v-1zM64.8 356.7c3.4-2.4 5.4-5.5 6-9.3.6-3.8-.5-7.5-3.2-10.9-2.3-3.4-5.4-5.4-9.4-6.1-4-.7-7.6.2-11 2.6-3 2.1-5 4.9-5.9 8.1-1.2 4.2-.3 8.3 2.7 12.3s6.7 6.1 11.3 6.2c3.4.2 6.6-.8 9.5-2.9zm-16.6-2c-1.1-.4-2.1-1.1-3-2.2-1.2-1.7-1.6-3.5-.9-5.3.9-2.7 3.3-5.4 7.2-8.1 3.3-2.3 6.2-3.7 8.6-4 2.9-.4 5.2.4 6.7 2.4.8 1.1 1.2 2.3 1.3 3.6 0 1.3-.5 2.7-1.6 4.3-1.1 1.6-3.2 3.5-6.2 5.6-2.6 1.8-4.8 3-6.8 3.6-2.2.5-3.9.6-5.3.1zm294.5-277c5.7 4 11.7 5.1 17.8 3.4 4.6-1.3 8.4-3.9 11.3-7.8 3.5-4.6 4.7-9.5 3.8-14.7-.9-5.3-3.9-9.6-9.2-12.9-4.6-3.5-9.6-4.8-15.2-4-5.5.8-10 3.5-13.5 8-3.1 4.1-4.5 8.4-4.2 13.1.4 5.9 3.5 10.9 9.2 14.9zm3.5-21.9c3.3-4.4 6.5-7.3 9.5-8.8 3.7-1.8 7-1.7 9.9.4 1.6 1.1 2.7 2.5 3.3 4.2.6 1.7.5 3.8-.2 6.4-.7 2.6-2.6 5.9-5.7 9.9-2.6 3.4-5.1 5.9-7.4 7.5-2.4 1.6-4.6 2.4-6.7 2.4-1.7 0-3.3-.6-4.9-1.7-2.4-1.7-3.6-3.9-3.6-6.5-.1-4 1.9-8.5 5.8-13.8zm-74.7-15.4l-1.3-.2c-1.1-.2-1.9-.5-2.5-1-.6-.5-.9-1-1.1-1.5-.1-.5 0-1.7.3-3.6l4.5-24.6c.3-1.9.7-3 .9-3.4.4-.6.9-1 1.4-1.1.8-.3 1.7-.3 2.8-.1l1.3.2.2-1L257.6.7l-.2 1 1.3.2c1.1.2 1.9.5 2.5 1 .6.5.9 1 1 1.5.1.5 0 1.7-.3 3.6l-4.5 24.6c-.3 1.9-.7 3-.9 3.4-.4.6-.8 1-1.4 1.1-.8.3-1.7.3-2.8.1L251 37l-.2 1 20.4 3.4.3-1zm5.4-4.9c.8 3.4 2.6 6.3 5.2 8.7 2.7 2.4 6 4.2 10.1 5.3 3.1.9 5.9 1.1 8.5.8 2.6-.3 5.3-1.2 8-2.8l1-3.1c-2.9 1.8-5.6 3-7.8 3.4-2.3.4-4.6.3-7-.3-2.9-.8-5.1-2.2-6.5-4-1.4-1.9-2.1-4.3-2.2-7.2-.1-2.9.4-6 1.4-9.3 1-3.3 2.5-6.2 4.5-8.5 1.6-1.9 3.5-3.2 5.9-3.9 2.4-.8 4.7-.8 7.1-.1 2.8.8 5.1 2.4 6.8 4.8 1.7 2.4 2.5 5.3 2.3 8.9l1.1.3 3.8-12.6-1.1-.3c-.4.9-.9 1.5-1.5 1.8-.6.3-1.1.4-1.7.2-.5-.1-1.5-.8-3-1.9-2.6-1.9-5.3-3.3-7.9-4-3.6-1-7.3-1.1-11-.3s-7 2.5-9.9 5.1c-2.8 2.6-4.8 5.6-5.8 9.1-1.1 3.1-1.2 6.5-.3 9.9zM227.1 61c-92.8 0-168.4 75.5-168.4 168.4s75.5 168.4 168.4 168.4 168.4-75.5 168.4-168.4S320 61 227.1 61zm0 330.8c-89.5 0-162.4-72.8-162.4-162.4S137.6 67 227.1 67s162.4 72.8 162.4 162.4-72.8 162.4-162.4 162.4zM379.8 88.9c1.1 0 2.2-.4 3-1 1.7-.8 2.8-2.5 2.8-4.5 0-2.8-2.3-5.1-5.1-5.1-1.1 0-2.2.4-3 1-1.7.8-2.8 2.5-2.8 4.5 0 2.8 2.3 5.1 5.1 5.1zM227.1 46C126 46 43.7 128.3 43.7 229.4S126 412.8 227.1 412.8c101.1 0 183.4-82.3 183.4-183.4S328.3 46 227.1 46zm0 360.8c-97.8 0-177.4-79.6-177.4-177.4C49.7 131.6 129.3 52 227.1 52s177.4 79.6 177.4 177.4c.1 97.8-79.5 177.4-177.4 177.4zm155.6-292.4c-1.6-2.2-2.3-4.9-1.9-8 .3-3.1 1.9-6.1 4.8-9.1l-.6-.8-11.9 8.1.6.8c.8-.2 1.6-.1 2.2.1.6.2 1.1.5 1.4.9.3.5.6 1.2.9 2.1.4 1.7.8 3 1.3 4 .4 1 1 2 1.7 3 2.3 3.1 5.1 5 8.5 5.7 3.4.7 6.4.2 9-1.6 2.1-1.4 3.4-3.3 4.1-5.6.7-2.4.6-6-.3-10.8-.6-3.5-.9-5.7-1-6.8 0-1.5.2-2.7.6-3.6.3-.7.8-1.3 1.5-1.7 1.1-.7 2.4-1 3.9-.6 1.5.3 2.8 1.3 4 2.8 1.5 2 2.1 4.4 1.7 7.2-.3 2.8-1.6 5.3-3.9 7.6l.7.9 10.3-7.4-.5-.7c-1.1.4-1.8.6-2.3.6-.4-.1-.8-.3-1.1-.7-.3-.4-.6-1.3-.8-2.7-.3-1.4-.6-2.5-.9-3.3-.5-1.1-1-2.2-1.8-3.2-2-2.8-4.6-4.4-7.7-5-3.1-.6-5.9-.1-8.4 1.6-1.5 1-2.6 2.2-3.3 3.7-.7 1.5-1.1 3.2-1.2 5.1-.1 1.9.2 4.7.9 8.5.5 2.7.7 4.6.7 5.9 0 1.2-.3 2.3-.7 3.1-.4.9-1 1.5-1.7 2-1.3.8-2.7 1.1-4.4.7-1.6 0-3.1-1.1-4.4-2.8zm-56.1-66.3c1.1 0 2.2-.4 3-1 1.7-.8 2.8-2.5 2.8-4.5 0-2.8-2.3-5.1-5.1-5.1-1.1 0-2.2.4-3 1-1.7.8-2.8 2.5-2.8 4.5 0 2.9 2.3 5.1 5.1 5.1zM16.8 291.5c.2-.5.4-.9.7-1.1.3-.2 1.2-.5 2.6-.8l18.2-4.2c1.4-.3 2.3-.4 2.6-.4.5.1.9.3 1.2.6.4.4.7 1 .9 1.8l.2.9.8-.2-3.4-14-.8.2.2.9c.2.8.2 1.4 0 1.9s-.4.9-.7 1.1c-.3.2-1.2.5-2.6.8l-7.8 1.8-2.3-9.5 7.8-1.8c1.4-.3 2.3-.4 2.6-.4.5.1.9.3 1.2.6.4.4.7 1 .9 1.8l.2.9.8-.2-3.4-14-.8.2.2.9c.2.8.2 1.4 0 1.9s-.4.9-.7 1.1c-.3.2-1.2.5-2.6.8l-18.2 4.2c-1.4.3-2.3.4-2.6.4-.5-.1-.9-.3-1.2-.6-.4-.4-.7-1-.9-1.8l-.2-.9-.8.2 3.4 14 .8-.2-.2-.9c-.2-.8-.2-1.4 0-1.9s.4-.9.7-1.1c.3-.2 1.2-.5 2.6-.8l8.5-2 2.3 9.5-8.5 2c-1.4.3-2.3.4-2.6.4-.5-.1-.9-.3-1.2-.6-.4-.4-.7-1-.9-1.8l-.2-.9-.8.2 3.4 14 .8-.2-.2-.9c-.1-.7-.1-1.4 0-1.9zm7.3 6.3c0-.9-.3-1.7-1-2.4s-1.5-1-2.5-1-1.8.3-2.5 1-1 1.5-1 2.4c0 .9.3 1.7 1 2.4s1.5 1 2.5 1 1.8-.3 2.5-1 1-1.5 1-2.4zM11 227.4c.3.1.5.1.8.1.1 0 .1.1.1.1-.4.5-.6 1.1-.8 1.7-.1.2-.1.4-.1.7 0 .2-.1.5 0 .7 0 .5.1.9.2 1.4.1.4.3.8.5 1.1.1.2.2.4.4.5.3.3.6.6.9.8.3.2.6.4 1 .6.2.1.3.2.5.2l1.2.3c.2 0 .4 0 .6.1h.7c.3 0 .6-.1.9-.2.3-.1.5-.1.7-.2.2-.1.3-.2.5-.3l.9-.6c.2-.2.5-.4.7-.6.3-.3.5-.6.8-.9.2-.3.4-.5.6-.8.1-.2.2-.3.3-.5 0 0 0-.1.1-.2h-.3c-.3 0-.5.1-.8.1h-.6c-.6 0-1.2-.2-1.7-.6-.3-.3-.6-.6-.7-1-.1-.4-.1-.9 0-1.3.1-.6.5-1.1 1-1.5.4-.3.8-.5 1.2-.7.4-.2.8-.2 1.3-.3.1 0 .2 0 .3.1.2.3.4.6.8.7.6.2 1.2-.1 1.5-.7v-.1c0-.1.1-.1.2-.1.2.1.4.2.5.4.3.3.4.6.3 1 0 .5-.4.9-.9 1.1-.3.1-.6.1-.9.1h-.2c0 .1.1.1.1.2.2.2.3.5.5.7.4.5.9.9 1.5 1.2.3.1.6.2 1 .2.5 0 1-.1 1.4-.4.3-.2.6-.5.8-.8.2-.4.4-.8.4-1.2.1-.7 0-1.4-.3-2-.1-.3-.3-.5-.5-.7-.1-.1-.1-.2-.2-.3v-.1c.2-.1.4-.2.6-.4.4-.2.7-.4 1-.7.5-.4 1-.8 1.5-1.3l.3-.3c-.3-.4-.6-.6-.9-.9-.3-.3-.6-.5-.9-.7-.4-.3-.8-.5-1.2-.8-.1-.1-.2-.1-.4-.2-.1-.1-.1-.1 0-.2.2-.2.4-.5.6-.7.1-.2.3-.5.3-.7.1-.3.2-.7.2-1 0-.4 0-.7-.1-1.1-.1-.4-.3-.7-.5-1-.3-.4-.7-.6-1.1-.8-.4-.1-.7-.1-1.1-.1-.5.1-1 .3-1.4.6-.4.3-.8.7-1.1 1.1-.1.2-.2.3-.3.5v.1h.6c.5 0 1 .2 1.2.7.3.5.2 1.1-.2 1.6-.1.1-.3.2-.5.3-.1.1-.2 0-.2-.1-.1-.4-.4-.6-.7-.8-.7-.3-1.3.1-1.6.6-.1.1-.1.2-.3.1l-1.2-.3c-.4-.1-.7-.3-1.1-.6-.3-.3-.6-.6-.9-1-.1-.2-.2-.4-.2-.6-.1-.2-.1-.5-.1-.7 0-.3.1-.5.2-.7.1-.5.5-.8.9-1 .3-.2.6-.3.9-.3.3 0 .6-.1.8-.1.3 0 .6.1 1 .1.1 0 .3 0 .4.1 0-.1 0-.1-.1-.2-.2-.4-.4-.7-.6-1.1-.3-.5-.7-1-1.2-1.4-.4-.4-.8-.7-1.3-.9-.3-.1-.6-.3-.9-.4-.3-.1-.7-.2-1.1-.3-.3 0-.6-.1-.9 0-.3 0-.7 0-1 .1-.3 0-.6.1-.9.2-.6.2-1.2.5-1.7.9-.4.3-.8.7-1.1 1.1-.3.5-.6 1.1-.7 1.8-.1.4-.1.9-.1 1.3 0 .5.1.9.3 1.3.2.4.4.7.5 1.1 0 .1 0 .1-.1.2-.5 0-1 .1-1.4.2-.5.1-.9.3-1.3.5-.7.3-1.3.6-1.9 1-.6.4-1.2.7-1.7 1.1-.4.3-.8.5-1.2.8-.5.3-.9.5-1.4.7-.3.2-.7.2-1.1.4h-.1c.6.1 1.1.3 1.6.6s.9.6 1.4.9c.5.3.9.6 1.3.9l.9.6 1.5.9c.3.2.7.4 1 .5.5.2 1.1.4 1.6.5zM36.2 334l6.3-9.7c1.1 1.4 2.2 2.4 3.3 2.9 1.8.8 3.7.9 5.7.1 1.6-.6 2.8-1.6 3.6-3 .8-1.4 1.1-2.9.9-4.5-.2-1.6-.9-3.9-2.2-7l-5-11.8-.7.3c.5 1.2.7 2 .7 2.5s-.2.9-.5 1.2c-.3.3-1.2.8-2.6 1.3l-17 6.8c-1.4.6-2.3.8-2.8.8-.4 0-.9-.2-1.3-.5s-.9-1.1-1.4-2.3l-.7.3 5.5 13 .7-.3c-.5-1.2-.7-2-.7-2.5s.2-.9.5-1.2c.3-.3 1.1-.8 2.6-1.3l7.3-3 .7 1.7-8.4 13 3.4 8 .7-.3c-.2-.7-.3-1.4-.1-2 .3-.4.7-1.2 1.5-2.5zm15.2-23l.9 2c.9 2 1 3.7.4 5-.6 1.3-1.8 2.3-3.8 3.1-1.4.6-2.6.8-3.7.6-1.1-.1-1.9-.6-2.6-1.3-.7-.7-1.4-2-2.2-3.7l-.5-1.1 11.5-4.6zM145 52.9c3.3 1.5 6.7 1.4 10.4-.4 3.7-1.8 6-4.5 6.7-8.3.6-3.1 0-6.3-1.7-9.6-1.2-2.3-2.8-4.2-4.7-5.7-2-1.5-4.1-2.3-6.5-2.5-2.4-.2-4.6.2-6.7 1.3-3.5 1.7-5.7 4.3-6.4 7.7-.7 3.5-.2 6.9 1.5 10.2 1.6 3.4 4.1 5.8 7.4 7.3zm-3.4-21.4c.3-.9.9-1.6 1.8-2.1.7-.3 1.4-.5 2-.3.9.2 1.8.7 2.7 1.6.9.9 2.1 2.8 3.5 5.6 2.5 4.8 4 8.1 4.5 9.9.3 1.1.3 2.1-.1 3-.3.7-.8 1.2-1.6 1.6-.8.4-1.7.4-2.6.1-.9-.3-1.8-1-2.6-2.1-1.1-1.4-2-3-3-4.8-1.8-3.4-3-6-3.8-8-.8-2-1.1-3.5-.8-4.5zm-131 158.8c-2.7-1.1-4.6-2.6-5.8-4.6-.8-1.4-.9-3.3-.2-5.8l.7-2.7 29.6 7.1c1.9.5 3.1.8 3.5 1.2.6.4.9.9 1.1 1.4.2.7.2 1.7-.1 2.7l-.3 1.2 1 .3 5-19.3-1-.3-.3 1.2c-.3 1.1-.7 1.8-1.2 2.4-.5.5-1.1.8-1.6.9-.5.1-1.8-.1-3.8-.6l-29.6-7.1.7-2.7c.5-1.7.9-2.9 1.5-3.5.9-1.1 2-1.8 3.3-2.3 1.2-.5 3.1-.7 5.7-.7l.3-1-10.4-2.5-8.7 33 10.4 2.5.2-.8zM162.5 24.1l3.9-.8 4 17.7c.3 1.4.4 2.3.3 2.8-.1.5-.4.9-.8 1.2-.5.3-1.3.7-2.5.9l.2 1 15.7-3.2-.2-1c-1.6.4-2.8.3-3.6-.2-.5-.4-.9-1.4-1.3-3.1l-4-17.7 3.9-.8-.6-2.7-3.9.8-.7-3.3-1.1-4.8c-.2-1-.2-1.7.1-2.2.3-.5.7-.8 1.2-.9.4-.1.8 0 1.2.2.3.1.4.4.5.8.1.3.1.6.1.9 0 .5 0 .9.1 1 .1.6.5 1.1 1.2 1.5s1.5.5 2.5.3c1.2-.2 2-.7 2.6-1.5.6-.7.8-1.5.6-2.3-.2-1-1-1.8-2.3-2.4-1.3-.6-3.1-.7-5.5-.2-3.4.7-5.9 2.1-7.6 4.3-1.6 2.2-2.1 4.6-1.5 7.2l.3 1.3.4 1.9-3.9.8.7 2.5zM75.7 55.7c1-.8 2-1.2 2.9-1.2.6 0 1.2.1 1.8.5.3.2 1.1 1 2.2 2.4l16.2 19.5c1.2 1.5 1.9 2.5 2 2.9.2.7.2 1.2 0 1.7-.3.7-.9 1.4-1.8 2.1l-1 .8.7.8 26.7-20.5-6.5-10.5-.8.6c1.4 3.2 1.8 6.1 1.1 8.7-.7 2.6-2.4 5-5.3 7.2l-1.8 1.4c-.9.7-1.6 1-2.2 1.1-.6.1-1.1 0-1.6-.3s-1.4-1.2-2.7-2.8l-7-8.3c1.5-1.1 2.7-1.8 3.8-2 1.1-.2 2.4 0 3.8.6 1.5.6 3 1.7 4.6 3.3l.9-.7-12.9-15.3-.8.7c1.7 2.5 2.6 4.7 2.7 6.5.1 1.9-.8 3.5-2.8 5l-.6.5-10.1-12.1 3.2-2.4c2.3-1.8 4-2.9 5.1-3.3 1.8-.7 3.5-.9 5.1-.5 1.6.3 3.5 1.4 5.7 3.2l.9-.7-7.3-8.8L74 55.7l.7.8 1-.8z" fill="#fff"/></svg>